<svg xmlns="http://www.w3.org/2000/svg" width="920" height="360" viewBox="0 0 920 360">
  <rect width="100%" height="100%" fill="#fbf8ef"/>
  <text x="36" y="34" font-size="20" fill="#292620" font-family="system-ui" font-weight="700">Continued-fraction denominator test</text>
  <text x="36" y="62" font-size="12" fill="#71695c" font-family="ui-monospace">Z_2 denominators are generated without primality; primes are tested against that set.</text>
  <text x="120" y="58" font-size="16" fill="#292620" font-family="system-ui">10,000-20,000</text>
<line x1="120" y1="92" x2="120" y2="272" stroke="#d5ccbd"/>
<line x1="120" y1="272" x2="360" y2="272" stroke="#d5ccbd"/>
<rect x="154" y="154.55566311713454" width="54" height="117.44433688286544" fill="#1f8f7a" rx="3"/>
<rect x="224" y="159.25457287992595" width="54" height="112.74542712007404" fill="#a65d31" rx="3"/>
<text x="142" y="297" font-size="11" fill="#71695c" font-family="ui-monospace">cf2 hit-rate</text>
<text x="148" y="320" font-size="11" fill="#1f8f7a" font-family="ui-monospace">real 0.652</text>
<text x="148" y="338" font-size="11" fill="#a65d31" font-family="ui-monospace">fake 0.626</text>
<text x="148" y="358" font-size="11" fill="#71695c" font-family="ui-monospace">cf2 den 0.453</text>
<text x="148" y="378" font-size="11" fill="#71695c" font-family="ui-monospace">num/label 2.55 vs 2.35</text>
<text x="500" y="58" font-size="16" fill="#292620" font-family="system-ui">50,000-100,000</text>
<line x1="500" y1="92" x2="500" y2="272" stroke="#d5ccbd"/>
<line x1="500" y1="272" x2="740" y2="272" stroke="#d5ccbd"/>
<rect x="534" y="151.78470509082752" width="54" height="120.21529490917247" fill="#1f8f7a" rx="3"/>
<rect x="604" y="156.68786155710632" width="54" height="115.31213844289367" fill="#a65d31" rx="3"/>
<text x="522" y="297" font-size="11" fill="#71695c" font-family="ui-monospace">cf2 hit-rate</text>
<text x="528" y="320" font-size="11" fill="#1f8f7a" font-family="ui-monospace">real 0.668</text>
<text x="528" y="338" font-size="11" fill="#a65d31" font-family="ui-monospace">fake 0.641</text>
<text x="528" y="358" font-size="11" fill="#71695c" font-family="ui-monospace">cf2 den 0.486</text>
<text x="528" y="378" font-size="11" fill="#71695c" font-family="ui-monospace">num/label 2.43 vs 2.27</text>
  <rect x="36" y="314" width="14" height="14" fill="#1f8f7a" rx="2"/>
  <text x="58" y="326" font-size="12" fill="#292620" font-family="system-ui">real primes</text>
  <rect x="156" y="314" width="14" height="14" fill="#a65d31" rx="2"/>
  <text x="178" y="326" font-size="12" fill="#292620" font-family="system-ui">five Cramer seeds, averaged</text>
</svg>
