<svg xmlns="http://www.w3.org/2000/svg" width="940" height="390" viewBox="0 0 940 390">
  <rect width="100%" height="100%" fill="#fbf8ef"/>
  <text x="36" y="36" font-size="20" fill="#292620" font-family="system-ui" font-weight="700">Deep Z_2 continued-fraction witness scan</text>
  <text x="36" y="64" font-size="12" fill="#71695c" font-family="ui-monospace">Only alphabet {1,2}; Cramer contrast uses the same denominator witness table.</text>
  <text x="120" y="60" font-size="16" fill="#292620" font-family="system-ui">100,000-200,000</text>
<line x1="120" y1="96" x2="120" y2="276" stroke="#d5ccbd"/>
<line x1="120" y1="276" x2="390" y2="276" stroke="#d5ccbd"/>
<rect x="148" y="156.01429933269782" width="52" height="119.9857006673022" fill="#1f8f7a" rx="3"/>
<rect x="206" y="161.44924353563823" width="52" height="114.55075646436175" fill="#a65d31" rx="3"/>
<rect x="292" y="119.47826086956519" width="52" height="156.5217391304348" fill="#1f8f7a" rx="3"/>
<rect x="350" y="134.8646696340991" width="52" height="141.1353303659009" fill="#a65d31" rx="3"/>
<text x="138" y="302" font-size="11" fill="#71695c" font-family="ui-monospace">hit-rate</text>
<text x="280" y="302" font-size="11" fill="#71695c" font-family="ui-monospace">num/label</text>
<text x="138" y="324" font-size="11" fill="#1f8f7a" font-family="ui-monospace">real 0.667</text>
<text x="138" y="342" font-size="11" fill="#a65d31" font-family="ui-monospace">fake 0.636</text>
<text x="280" y="324" font-size="11" fill="#1f8f7a" font-family="ui-monospace">real 2.67</text>
<text x="280" y="342" font-size="11" fill="#a65d31" font-family="ui-monospace">fake 2.41</text>
<text x="138" y="364" font-size="11" fill="#71695c" font-family="ui-monospace">minus main 2238.0</text>
<text x="510" y="60" font-size="16" fill="#292620" font-family="system-ui">500,000-1,000,000</text>
<line x1="510" y1="96" x2="510" y2="276" stroke="#d5ccbd"/>
<line x1="510" y1="276" x2="780" y2="276" stroke="#d5ccbd"/>
<rect x="538" y="142.1201298701299" width="52" height="133.8798701298701" fill="#1f8f7a" rx="3"/>
<rect x="596" y="148.0920472112369" width="52" height="127.9079527887631" fill="#a65d31" rx="3"/>
<rect x="682" y="119.47826086956519" width="52" height="156.5217391304348" fill="#1f8f7a" rx="3"/>
<rect x="740" y="132.85704273520255" width="52" height="143.14295726479745" fill="#a65d31" rx="3"/>
<text x="528" y="302" font-size="11" fill="#71695c" font-family="ui-monospace">hit-rate</text>
<text x="670" y="302" font-size="11" fill="#71695c" font-family="ui-monospace">num/label</text>
<text x="528" y="324" font-size="11" fill="#1f8f7a" font-family="ui-monospace">real 0.744</text>
<text x="528" y="342" font-size="11" fill="#a65d31" font-family="ui-monospace">fake 0.711</text>
<text x="670" y="324" font-size="11" fill="#1f8f7a" font-family="ui-monospace">real 3.07</text>
<text x="670" y="342" font-size="11" fill="#a65d31" font-family="ui-monospace">fake 2.81</text>
<text x="528" y="364" font-size="11" fill="#71695c" font-family="ui-monospace">minus main 9783.6</text>
  <rect x="36" y="336" width="14" height="14" fill="#1f8f7a" rx="2"/>
  <text x="58" y="348" font-size="12" fill="#292620" font-family="system-ui">real primes</text>
  <rect x="156" y="336" width="14" height="14" fill="#a65d31" rx="2"/>
  <text x="178" y="348" font-size="12" fill="#292620" font-family="system-ui">five Cramer seeds, averaged</text>
</svg>
