<svg xmlns="http://www.w3.org/2000/svg" width="920" height="420" viewBox="0 0 920 420">
<rect width="100%" height="100%" fill="#07111f"/>
<line x1="62" x2="890" y1="370" y2="370" stroke="#334155"/>
<line x1="62" x2="62" y1="58" y2="370" stroke="#334155"/>
<rect x="62.00" y="370.00" width="19.70" height="0.00" fill="#38bdf8" opacity="0.75"/>
<rect x="82.70" y="370.00" width="19.70" height="0.00" fill="#38bdf8" opacity="0.75"/>
<rect x="103.40" y="370.00" width="19.70" height="0.00" fill="#38bdf8" opacity="0.75"/>
<rect x="124.10" y="370.00" width="19.70" height="0.00" fill="#38bdf8" opacity="0.75"/>
<rect x="144.80" y="370.00" width="19.70" height="0.00" fill="#38bdf8" opacity="0.75"/>
<rect x="165.50" y="370.00" width="19.70" height="0.00" fill="#38bdf8" opacity="0.75"/>
<rect x="186.20" y="370.00" width="19.70" height="0.00" fill="#38bdf8" opacity="0.75"/>
<rect x="206.90" y="370.00" width="19.70" height="0.00" fill="#38bdf8" opacity="0.75"/>
<rect x="227.60" y="370.00" width="19.70" height="0.00" fill="#38bdf8" opacity="0.75"/>
<rect x="248.30" y="370.00" width="19.70" height="0.00" fill="#38bdf8" opacity="0.75"/>
<rect x="269.00" y="370.00" width="19.70" height="0.00" fill="#38bdf8" opacity="0.75"/>
<rect x="289.70" y="370.00" width="19.70" height="0.00" fill="#38bdf8" opacity="0.75"/>
<rect x="310.40" y="370.00" width="19.70" height="0.00" fill="#38bdf8" opacity="0.75"/>
<rect x="331.10" y="370.00" width="19.70" height="0.00" fill="#38bdf8" opacity="0.75"/>
<rect x="351.80" y="316.56" width="19.70" height="53.44" fill="#38bdf8" opacity="0.75"/>
<rect x="372.50" y="370.00" width="19.70" height="0.00" fill="#38bdf8" opacity="0.75"/>
<rect x="393.20" y="370.00" width="19.70" height="0.00" fill="#38bdf8" opacity="0.75"/>
<rect x="413.90" y="370.00" width="19.70" height="0.00" fill="#38bdf8" opacity="0.75"/>
<rect x="434.60" y="170.84" width="19.70" height="199.16" fill="#38bdf8" opacity="0.75"/>
<rect x="455.30" y="370.00" width="19.70" height="0.00" fill="#38bdf8" opacity="0.75"/>
<rect x="476.00" y="370.00" width="19.70" height="0.00" fill="#38bdf8" opacity="0.75"/>
<rect x="496.70" y="98.70" width="19.70" height="271.30" fill="#38bdf8" opacity="0.75"/>
<rect x="517.40" y="370.00" width="19.70" height="0.00" fill="#38bdf8" opacity="0.75"/>
<rect x="538.10" y="370.00" width="19.70" height="0.00" fill="#38bdf8" opacity="0.75"/>
<rect x="558.80" y="210.67" width="19.70" height="159.33" fill="#38bdf8" opacity="0.75"/>
<rect x="579.50" y="370.00" width="19.70" height="0.00" fill="#38bdf8" opacity="0.75"/>
<rect x="600.20" y="370.00" width="19.70" height="0.00" fill="#38bdf8" opacity="0.75"/>
<rect x="620.90" y="333.65" width="19.70" height="36.35" fill="#38bdf8" opacity="0.75"/>
<rect x="641.60" y="370.00" width="19.70" height="0.00" fill="#38bdf8" opacity="0.75"/>
<rect x="662.30" y="370.00" width="19.70" height="0.00" fill="#38bdf8" opacity="0.75"/>
<rect x="683.00" y="367.70" width="19.70" height="2.30" fill="#38bdf8" opacity="0.75"/>
<rect x="703.70" y="370.00" width="19.70" height="0.00" fill="#38bdf8" opacity="0.75"/>
<rect x="724.40" y="370.00" width="19.70" height="0.00" fill="#38bdf8" opacity="0.75"/>
<rect x="745.10" y="369.99" width="19.70" height="0.01" fill="#38bdf8" opacity="0.75"/>
<rect x="765.80" y="370.00" width="19.70" height="0.00" fill="#38bdf8" opacity="0.75"/>
<rect x="786.50" y="370.00" width="19.70" height="0.00" fill="#38bdf8" opacity="0.75"/>
<rect x="807.20" y="370.00" width="19.70" height="0.00" fill="#38bdf8" opacity="0.75"/>
<rect x="827.90" y="370.00" width="19.70" height="0.00" fill="#38bdf8" opacity="0.75"/>
<rect x="848.60" y="370.00" width="19.70" height="0.00" fill="#38bdf8" opacity="0.75"/>
<rect x="869.30" y="370.00" width="19.70" height="0.00" fill="#38bdf8" opacity="0.75"/>
<path d="M 62.00 369.98 L 67.17 369.98 L 72.35 369.97 L 77.52 369.97 L 82.70 369.96 L 87.88 369.95 L 93.05 369.94 L 98.23 369.93 L 103.40 369.91 L 108.58 369.89 L 113.75 369.87 L 118.92 369.85 L 124.10 369.82 L 129.27 369.79 L 134.45 369.75 L 139.63 369.71 L 144.80 369.66 L 149.98 369.60 L 155.15 369.53 L 160.33 369.45 L 165.50 369.36 L 170.67 369.26 L 175.85 369.14 L 181.02 369.01 L 186.20 368.86 L 191.38 368.69 L 196.55 368.50 L 201.73 368.28 L 206.90 368.04 L 212.08 367.77 L 217.25 367.47 L 222.42 367.14 L 227.60 366.77 L 232.77 366.36 L 237.95 365.91 L 243.13 365.42 L 248.30 364.88 L 253.48 364.29 L 258.65 363.65 L 263.83 362.96 L 269.00 362.20 L 274.17 361.40 L 279.35 360.53 L 284.52 359.60 L 289.70 358.60 L 294.88 357.54 L 300.05 356.42 L 305.23 355.23 L 310.40 353.99 L 315.58 352.67 L 320.75 351.30 L 325.92 349.87 L 331.10 348.38 L 336.27 346.84 L 341.45 345.26 L 346.63 343.63 L 351.80 341.96 L 356.98 340.27 L 362.15 338.55 L 367.33 336.81 L 372.50 335.06 L 377.67 333.32 L 382.85 331.58 L 388.02 329.86 L 393.20 328.17 L 398.38 326.52 L 403.55 324.92 L 408.73 323.37 L 413.90 321.89 L 419.08 320.49 L 424.25 319.17 L 429.42 317.95 L 434.60 316.83 L 439.77 315.82 L 444.95 314.94 L 450.13 314.17 L 455.30 313.54 L 460.48 313.04 L 465.65 312.69 L 470.83 312.47 L 476.00 312.40 L 481.17 312.47 L 486.35 312.69 L 491.53 313.04 L 496.70 313.54 L 501.88 314.17 L 507.05 314.94 L 512.22 315.82 L 517.40 316.83 L 522.58 317.95 L 527.75 319.17 L 532.92 320.49 L 538.10 321.89 L 543.28 323.37 L 548.45 324.92 L 553.63 326.52 L 558.80 328.17 L 563.97 329.86 L 569.15 331.58 L 574.33 333.32 L 579.50 335.06 L 584.67 336.81 L 589.85 338.55 L 595.03 340.27 L 600.20 341.96 L 605.38 343.63 L 610.55 345.26 L 615.72 346.84 L 620.90 348.38 L 626.08 349.87 L 631.25 351.30 L 636.42 352.67 L 641.60 353.99 L 646.78 355.23 L 651.95 356.42 L 657.13 357.54 L 662.30 358.60 L 667.47 359.60 L 672.65 360.53 L 677.83 361.40 L 683.00 362.20 L 688.17 362.96 L 693.35 363.65 L 698.53 364.29 L 703.70 364.88 L 708.88 365.42 L 714.05 365.91 L 719.22 366.36 L 724.40 366.77 L 729.58 367.14 L 734.75 367.47 L 739.92 367.77 L 745.10 368.04 L 750.28 368.28 L 755.45 368.50 L 760.63 368.69 L 765.80 368.86 L 770.97 369.01 L 776.15 369.14 L 781.33 369.26 L 786.50 369.36 L 791.67 369.45 L 796.85 369.53 L 802.03 369.60 L 807.20 369.66 L 812.38 369.71 L 817.55 369.75 L 822.72 369.79 L 827.90 369.82 L 833.08 369.85 L 838.25 369.87 L 843.42 369.89 L 848.60 369.91 L 853.78 369.93 L 858.95 369.94 L 864.13 369.95 L 869.30 369.96 L 874.47 369.97 L 879.65 369.97 L 884.83 369.98 L 890.00 369.98" fill="none" stroke="#f59e0b" stroke-width="3"/>
<text x="62" y="26" fill="#f8fafc" font-family="system-ui, sans-serif" font-size="18" font-weight="700">16 Erdos-Kac omega(n)</text>
<text x="62" y="45" fill="#94a3b8" font-family="Menlo, Consolas, monospace" font-size="11">n in [500000, 1000000], z=(omega-loglog N)/sqrt(loglog N)</text>
<text x="670" y="34" fill="#38bdf8" font-family="Menlo, Consolas, monospace" font-size="12">observed histogram</text>
<text x="670" y="52" fill="#f59e0b" font-family="Menlo, Consolas, monospace" font-size="12">standard normal density</text>
</svg>