<?xml version="1.0" encoding="UTF-8"?>
<svg xmlns="http://www.w3.org/2000/svg" width="1100" height="520" viewBox="0 0 1100 520">
  <rect width="100%" height="100%" fill="#f8fafc"/>
  <text x="62" y="25" font-size="20" font-family="system-ui, -apple-system, sans-serif" font-weight="700" fill="#0f172a">cramer-avg</text>
  <rect x="62" y="42" width="1016" height="426" fill="#ffffff" stroke="#cbd5e1"/>
  <line x1="62" y1="468" x2="62" y2="473" stroke="#475569"/>
  <text x="62" y="502" font-size="12" text-anchor="middle" fill="#334155">0</text>
  <line x1="146.68088909299092" y1="468" x2="146.68088909299092" y2="473" stroke="#475569"/>
  <text x="146.68088909299092" y="502" font-size="12" text-anchor="middle" fill="#334155">10</text>
  <line x1="231.36177818598185" y1="468" x2="231.36177818598185" y2="473" stroke="#475569"/>
  <text x="231.36177818598185" y="502" font-size="12" text-anchor="middle" fill="#334155">20</text>
  <line x1="316.0426672789728" y1="468" x2="316.0426672789728" y2="473" stroke="#475569"/>
  <text x="316.0426672789728" y="502" font-size="12" text-anchor="middle" fill="#334155">30</text>
  <line x1="400.7235563719637" y1="468" x2="400.7235563719637" y2="473" stroke="#475569"/>
  <text x="400.7235563719637" y="502" font-size="12" text-anchor="middle" fill="#334155">40</text>
  <line x1="485.4044454649547" y1="468" x2="485.4044454649547" y2="473" stroke="#475569"/>
  <text x="485.4044454649547" y="502" font-size="12" text-anchor="middle" fill="#334155">50</text>
  <line x1="570.0853345579455" y1="468" x2="570.0853345579455" y2="473" stroke="#475569"/>
  <text x="570.0853345579455" y="502" font-size="12" text-anchor="middle" fill="#334155">60</text>
  <line x1="654.7662236509365" y1="468" x2="654.7662236509365" y2="473" stroke="#475569"/>
  <text x="654.7662236509365" y="502" font-size="12" text-anchor="middle" fill="#334155">70</text>
  <line x1="739.4471127439274" y1="468" x2="739.4471127439274" y2="473" stroke="#475569"/>
  <text x="739.4471127439274" y="502" font-size="12" text-anchor="middle" fill="#334155">80</text>
  <line x1="824.1280018369184" y1="468" x2="824.1280018369184" y2="473" stroke="#475569"/>
  <text x="824.1280018369184" y="502" font-size="12" text-anchor="middle" fill="#334155">90</text>
  <line x1="908.8088909299094" y1="468" x2="908.8088909299094" y2="473" stroke="#475569"/>
  <text x="908.8088909299094" y="502" font-size="12" text-anchor="middle" fill="#334155">100</text>
  <line x1="993.4897800229003" y1="468" x2="993.4897800229003" y2="473" stroke="#475569"/>
  <text x="993.4897800229003" y="502" font-size="12" text-anchor="middle" fill="#334155">110</text>
  <line x1="57" y1="468" x2="62" y2="468" stroke="#475569"/>
  <text x="52" y="472" font-size="12" text-anchor="end" fill="#334155">0.000</text>
  <line x1="57" y1="361.5" x2="62" y2="361.5" stroke="#475569"/>
  <text x="52" y="365.5" font-size="12" text-anchor="end" fill="#334155">0.339</text>
  <line x1="57" y1="255" x2="62" y2="255" stroke="#475569"/>
  <text x="52" y="259" font-size="12" text-anchor="end" fill="#334155">0.679</text>
  <line x1="57" y1="148.49999999999994" x2="62" y2="148.49999999999994" stroke="#475569"/>
  <text x="52" y="152.49999999999994" font-size="12" text-anchor="end" fill="#334155">1.018</text>
  <line x1="57" y1="42" x2="62" y2="42" stroke="#475569"/>
  <text x="52" y="46" font-size="12" text-anchor="end" fill="#334155">1.357</text>
  <line x1="181.69" y1="42" x2="181.69" y2="468" stroke="#2563eb" stroke-width="1" opacity="0.28"><title>zero 1</title></line>
<line x1="240.02" y1="42" x2="240.02" y2="468" stroke="#2563eb" stroke-width="1" opacity="0.28"><title>zero 2</title></line>
<line x1="273.79" y1="42" x2="273.79" y2="468" stroke="#2563eb" stroke-width="1" opacity="0.28"><title>zero 3</title></line>
<line x1="319.64" y1="42" x2="319.64" y2="468" stroke="#2563eb" stroke-width="1" opacity="0.28"><title>zero 4</title></line>
<line x1="340.90" y1="42" x2="340.90" y2="468" stroke="#2563eb" stroke-width="1" opacity="0.28"><title>zero 5</title></line>
<line x1="380.28" y1="42" x2="380.28" y2="468" stroke="#2563eb" stroke-width="1" opacity="0.28"><title>zero 6</title></line>
<line x1="408.50" y1="42" x2="408.50" y2="468" stroke="#2563eb" stroke-width="1" opacity="0.28"><title>zero 7</title></line>
<line x1="428.90" y1="42" x2="428.90" y2="468" stroke="#2563eb" stroke-width="1" opacity="0.28"><title>zero 8</title></line>
<line x1="468.51" y1="42" x2="468.51" y2="468" stroke="#2563eb" stroke-width="1" opacity="0.28"><title>zero 9</title></line>
<line x1="483.49" y1="42" x2="483.49" y2="468" stroke="#2563eb" stroke-width="1" opacity="0.28"><title>zero 10</title></line>
<line x1="510.56" y1="42" x2="510.56" y2="468" stroke="#2563eb" stroke-width="1" opacity="0.28"><title>zero 11</title></line>
<line x1="539.99" y1="42" x2="539.99" y2="468" stroke="#2563eb" stroke-width="1" opacity="0.28"><title>zero 12</title></line>
<line x1="564.56" y1="42" x2="564.56" y2="468" stroke="#2563eb" stroke-width="1" opacity="0.28"><title>zero 13</title></line>
<line x1="577.13" y1="42" x2="577.13" y2="468" stroke="#2563eb" stroke-width="1" opacity="0.28"><title>zero 14</title></line>
<line x1="613.38" y1="42" x2="613.38" y2="468" stroke="#2563eb" stroke-width="1" opacity="0.28"><title>zero 15</title></line>
<line x1="630.04" y1="42" x2="630.04" y2="468" stroke="#2563eb" stroke-width="1" opacity="0.28"><title>zero 16</title></line>
<line x1="650.92" y1="42" x2="650.92" y2="468" stroke="#2563eb" stroke-width="1" opacity="0.28"><title>zero 17</title></line>
<line x1="672.27" y1="42" x2="672.27" y2="468" stroke="#2563eb" stroke-width="1" opacity="0.28"><title>zero 18</title></line>
<line x1="703.07" y1="42" x2="703.07" y2="468" stroke="#2563eb" stroke-width="1" opacity="0.28"><title>zero 19</title></line>
<line x1="715.27" y1="42" x2="715.27" y2="468" stroke="#2563eb" stroke-width="1" opacity="0.28"><title>zero 20</title></line>
<line x1="733.84" y1="42" x2="733.84" y2="468" stroke="#2563eb" stroke-width="1" opacity="0.28"><title>zero 21</title></line>
<line x1="764.09" y1="42" x2="764.09" y2="468" stroke="#2563eb" stroke-width="1" opacity="0.28"><title>zero 22</title></line>
<line x1="779.55" y1="42" x2="779.55" y2="468" stroke="#2563eb" stroke-width="1" opacity="0.28"><title>zero 23</title></line>
<line x1="802.32" y1="42" x2="802.32" y2="468" stroke="#2563eb" stroke-width="1" opacity="0.28"><title>zero 24</title></line>
<line x1="814.04" y1="42" x2="814.04" y2="468" stroke="#2563eb" stroke-width="1" opacity="0.28"><title>zero 25</title></line>
<line x1="845.23" y1="42" x2="845.23" y2="468" stroke="#2563eb" stroke-width="1" opacity="0.28"><title>zero 26</title></line>
<line x1="863.52" y1="42" x2="863.52" y2="468" stroke="#2563eb" stroke-width="1" opacity="0.28"><title>zero 27</title></line>
<line x1="873.84" y1="42" x2="873.84" y2="468" stroke="#2563eb" stroke-width="1" opacity="0.28"><title>zero 28</title></line>
<line x1="898.91" y1="42" x2="898.91" y2="468" stroke="#2563eb" stroke-width="1" opacity="0.28"><title>zero 29</title></line>
<line x1="919.97" y1="42" x2="919.97" y2="468" stroke="#2563eb" stroke-width="1" opacity="0.28"><title>zero 30</title></line>
<line x1="940.36" y1="42" x2="940.36" y2="468" stroke="#2563eb" stroke-width="1" opacity="0.28"><title>zero 31</title></line>
<line x1="954.93" y1="42" x2="954.93" y2="468" stroke="#2563eb" stroke-width="1" opacity="0.28"><title>zero 32</title></line>
<line x1="969.51" y1="42" x2="969.51" y2="468" stroke="#2563eb" stroke-width="1" opacity="0.28"><title>zero 33</title></line>
<line x1="1002.21" y1="42" x2="1002.21" y2="468" stroke="#2563eb" stroke-width="1" opacity="0.28"><title>zero 34</title></line>
<line x1="1009.36" y1="42" x2="1009.36" y2="468" stroke="#2563eb" stroke-width="1" opacity="0.28"><title>zero 35</title></line>
  <polyline fill="none" stroke="#0f766e" stroke-width="1.4" points="63.44,206.33 64.17,163.29 64.89,120.45 65.61,83.92 66.33,57.45 67.05,43.17 67.78,42.00 68.50,53.85 69.22,77.84 69.94,112.39 70.67,155.40 71.39,204.34 72.11,256.33 72.83,308.02 73.55,354.94 74.28,389.28 75.00,398.63 75.72,383.89 76.44,361.94 77.16,342.54 77.89,329.03 78.61,322.35 79.33,322.43 80.05,328.71 80.77,340.27 81.50,356.04 82.22,374.83 82.94,395.47 83.66,416.79 84.39,437.75 85.11,457.38 85.83,460.71 86.55,445.81 87.27,433.87 88.00,425.22 88.72,419.95 89.44,417.98 90.16,419.12 90.88,423.04 91.61,429.32 92.33,437.44 93.05,446.66 93.77,455.54 94.49,458.42 95.22,451.33 95.94,441.88 96.66,432.79 97.38,424.83 98.11,418.37 98.83,413.60 99.55,410.58 100.27,409.28 100.99,409.56 101.72,411.23 102.44,414.05 103.16,417.77 103.88,422.20 104.60,427.16 105.33,432.57 106.05,438.39 106.77,444.61 107.49,451.17 108.21,457.62 108.94,461.17 109.66,456.77 110.38,448.85 111.10,440.14 111.83,431.33 112.55,422.80 113.27,414.89 113.99,407.88 114.71,402.03 115.44,397.54 116.16,394.56 116.88,393.18 117.60,393.40 118.32,395.17 119.05,398.34 119.77,402.70 120.49,407.99 121.21,413.84 121.93,419.86 122.66,425.61 123.38,430.63 124.10,434.57 124.82,437.30 125.55,438.97 126.27,440.07 126.99,441.13 127.71,442.61 128.43,444.79 129.16,447.69 129.88,451.06 130.60,454.12 131.32,455.33 132.04,453.40 132.77,449.02 133.49,443.67 134.21,438.31 134.93,433.54 135.65,429.76 136.38,427.24 137.10,426.17 137.82,426.62 138.54,428.58 139.27,431.94 139.99,436.50 140.71,441.98 141.43,447.97 142.15,453.83 142.88,458.21 143.60,458.63 144.32,455.31 145.04,451.05 145.76,447.20 146.49,444.27 147.21,442.42 147.93,441.70 148.65,442.07 149.37,443.39 150.10,445.50 150.82,448.18 151.54,451.22 152.26,454.41 152.99,457.57 153.71,460.58 154.43,463.36 155.15,465.64 155.87,465.74 156.60,463.49 157.32,460.69 158.04,457.61 158.76,454.31 159.48,450.88 160.21,447.43 160.93,444.05 161.65,440.86 162.37,437.96 163.09,435.40 163.82,433.23 164.54,431.45 165.26,430.04 165.98,428.95 166.71,428.12 167.43,427.49 168.15,426.98 168.87,426.56 169.59,426.18 170.32,425.87 171.04,425.63 171.76,425.53 172.48,425.65 173.20,426.05 173.93,426.84 174.65,428.06 175.37,429.78 176.09,432.02 176.81,434.75 177.54,437.92 178.26,441.41 178.98,445.03 179.70,448.51 180.43,451.41 181.15,453.19 181.87,453.43 182.59,452.23 183.31,450.17 184.04,447.84 184.76,445.64 185.48,443.81 186.20,442.49 186.92,441.72 187.65,441.49 188.37,441.77 189.09,442.45 189.81,443.45 190.53,444.66 191.26,445.95 191.98,447.26 192.70,448.51 193.42,449.70 194.14,450.83 194.87,451.93 195.59,453.06 196.31,454.22 197.03,455.40 197.76,456.52 198.48,457.40 199.20,457.79 199.92,457.46 200.64,456.35 201.37,454.60 202.09,452.46 202.81,450.18 203.53,447.96 204.25,445.97 204.98,444.36 205.70,443.25 206.42,442.73 207.14,442.89 207.86,443.75 208.59,445.33 209.31,447.61 210.03,450.53 210.75,454.01 211.48,457.93 212.20,462.12 212.92,466.09 213.64,464.38 214.36,460.11 215.09,455.92 215.81,452.03 216.53,448.53 217.25,445.49 217.97,442.96 218.70,440.97 219.42,439.50 220.14,438.57 220.86,438.13 221.58,438.17 222.31,438.65 223.03,439.56 223.75,440.84 224.47,442.47 225.20,444.40 225.92,446.57 226.64,448.93 227.36,451.38 228.08,453.82 228.81,456.12 229.53,458.12 230.25,459.63 230.97,460.52 231.69,460.79 232.42,460.64 233.14,460.36 233.86,460.15 234.58,460.13 235.30,460.34 236.03,460.77 236.75,461.36 237.47,462.02 238.19,462.66 238.92,463.18 239.64,463.53 240.36,463.69 241.08,463.69 241.80,463.55 242.53,463.23 243.25,462.68 243.97,461.85 244.69,460.75 245.41,459.43 246.14,458.01 246.86,456.57 247.58,455.21 248.30,454.02 249.02,453.03 249.75,452.27 250.47,451.70 251.19,451.27 251.91,450.90 252.64,450.48 253.36,449.96 254.08,449.31 254.80,448.57 255.52,447.82 256.25,447.18 256.97,446.75 257.69,446.64 258.41,446.93 259.13,447.65 259.86,448.82 260.58,450.38 261.30,452.28 262.02,454.40 262.74,456.57 263.47,458.59 264.19,460.12 264.91,460.76 265.63,460.37 266.36,459.18 267.08,457.62 267.80,455.96 268.52,454.33 269.24,452.83 269.97,451.47 270.69,450.27 271.41,449.26 272.13,448.44 272.85,447.82 273.58,447.42 274.30,447.25 275.02,447.33 275.74,447.64 276.46,448.20 277.19,448.99 277.91,449.99 278.63,451.17 279.35,452.51 280.08,453.97 280.80,455.50 281.52,457.08 282.24,458.64 282.96,460.16 283.69,461.56 284.41,462.79 285.13,463.72 285.85,464.21 286.57,464.17 287.30,463.70 288.02,462.99 288.74,462.20 289.46,461.42 290.18,460.71 290.91,460.11 291.63,459.65 292.35,459.37 293.07,459.27 293.80,459.35 294.52,459.60 295.24,459.99 295.96,460.45 296.68,460.91 297.41,461.24 298.13,461.35 298.85,461.18 299.57,460.77 300.29,460.21 301.02,459.62 301.74,459.12 302.46,458.82 303.18,458.79 303.90,459.09 304.63,459.75 305.35,460.80 306.07,462.23 306.79,464.00 307.52,466.04 308.24,466.90 308.96,464.56 309.68,461.80 310.40,458.92 311.13,456.04 311.85,453.24 312.57,450.61 313.29,448.22 314.01,446.13 314.74,444.42 315.46,443.13 316.18,442.28 316.90,441.91 317.62,442.00 318.35,442.54 319.07,443.51 319.79,444.85 320.51,446.51 321.24,448.41 321.96,450.48 322.68,452.62 323.40,454.75 324.12,456.75 324.85,458.53 325.57,459.98 326.29,461.00 327.01,461.57 327.73,461.76 328.46,461.69 329.18,461.50 329.90,461.29 330.62,461.08 331.34,460.87 332.07,460.62 332.79,460.28 333.51,459.80 334.23,459.17 334.96,458.42 335.68,457.58 336.40,456.72 337.12,455.92 337.84,455.25 338.57,454.77 339.29,454.54 340.01,454.60 340.73,454.97 341.45,455.66 342.18,456.66 342.90,457.92 343.62,459.41 344.34,461.06 345.06,462.77 345.79,464.41 346.51,465.61 347.23,465.62 347.95,464.55 348.68,463.17 349.40,461.79 350.12,460.47 350.84,459.21 351.56,458.01 352.29,456.85 353.01,455.72 353.73,454.60 354.45,453.52 355.17,452.49 355.90,451.56 356.62,450.75 357.34,450.10 358.06,449.63 358.78,449.36 359.51,449.29 360.23,449.42 360.95,449.74 361.67,450.21 362.40,450.82 363.12,451.52 363.84,452.27 364.56,453.03 365.28,453.76 366.01,454.43 366.73,455.01 367.45,455.46 368.17,455.78 368.89,455.97 369.62,456.03 370.34,455.98 371.06,455.85 371.78,455.66 372.50,455.46 373.23,455.28 373.95,455.16 374.67,455.13 375.39,455.22 376.12,455.45 376.84,455.85 377.56,456.41 378.28,457.15 379.00,458.04 379.73,459.07 380.45,460.21 381.17,461.42 381.89,462.66 382.61,463.89 383.34,465.03 384.06,466.03 384.78,466.74 385.50,466.96 386.22,466.74 386.95,466.45 387.67,466.25 388.39,466.14 389.11,466.06 389.84,465.90 390.56,465.56 391.28,465.00 392.00,464.25 392.72,463.37 393.45,462.42 394.17,461.44 394.89,460.47 395.61,459.54 396.33,458.67 397.06,457.87 397.78,457.17 398.50,456.56 399.22,456.07 399.94,455.68 400.67,455.41 401.39,455.26 402.11,455.23 402.83,455.32 403.56,455.53 404.28,455.86 405.00,456.31 405.72,456.87 406.44,457.54 407.17,458.30 407.89,459.14 408.61,460.04 409.33,461.00 410.05,461.98 410.78,462.99 411.50,463.99 412.22,464.98 412.94,465.93 413.66,466.83 414.39,467.64 415.11,467.47 415.83,466.77 416.55,466.12 417.28,465.54 418.00,465.03 418.72,464.59 419.44,464.21 420.16,463.91 420.89,463.68 421.61,463.53 422.33,463.47 423.05,463.52 423.77,463.69 424.50,463.99 425.22,464.43 425.94,465.01 426.66,465.71 427.38,466.45 428.11,466.88 428.83,466.41 429.55,465.39 430.27,464.21 431.00,463.00 431.72,461.81 432.44,460.69 433.16,459.67 433.88,458.78 434.61,458.01 435.33,457.37 436.05,456.83 436.77,456.37 437.49,455.97 438.22,455.59 438.94,455.21 439.66,454.84 440.38,454.47 441.10,454.15 441.83,453.91 442.55,453.82 443.27,453.91 443.99,454.24 444.71,454.84 445.44,455.76 446.16,456.99 446.88,458.53 447.60,460.37 448.33,462.46 449.05,464.75 449.77,467.15 450.49,466.37 451.21,463.98 451.94,461.72 452.66,459.70 453.38,457.98 454.10,456.65 454.82,455.73 455.55,455.25 456.27,455.21 456.99,455.56 457.71,456.23 458.43,457.12 459.16,458.06 459.88,458.88 460.60,459.40 461.32,459.49 462.05,459.17 462.77,458.57 463.49,457.87 464.21,457.23 464.93,456.75 465.66,456.52 466.38,456.55 467.10,456.85 467.82,457.42 468.54,458.21 469.27,459.18 469.99,460.28 470.71,461.43 471.43,462.52 472.15,463.40 472.88,463.89 473.60,463.82 474.32,463.25 475.04,462.39 475.77,461.42 476.49,460.42 477.21,459.48 477.93,458.61 478.65,457.85 479.38,457.20 480.10,456.69 480.82,456.33 481.54,456.14 482.26,456.15 482.99,456.36 483.71,456.80 484.43,457.45 485.15,458.29 485.87,459.30 486.60,460.38 487.32,461.41 488.04,462.19 488.76,462.49 489.49,462.18 490.21,461.39 490.93,460.37 491.65,459.30 492.37,458.35 493.10,457.59 493.82,457.06 494.54,456.78 495.26,456.73 495.98,456.88 496.71,457.17 497.43,457.53 498.15,457.89 498.87,458.19 499.59,458.38 500.32,458.47 501.04,458.48 501.76,458.45 502.48,458.43 503.21,458.47 503.93,458.57 504.65,458.75 505.37,458.99 506.09,459.25 506.82,459.52 507.54,459.75 508.26,459.93 508.98,460.04 509.70,460.11 510.43,460.16 511.15,460.23 511.87,460.33 512.59,460.50 513.31,460.74 514.04,461.07 514.76,461.49 515.48,461.97 516.20,462.52 516.93,463.10 517.65,463.70 518.37,464.31 519.09,464.90 519.81,465.45 520.54,465.94 521.26,466.33 521.98,466.57 522.70,466.61 523.42,466.50 524.15,466.29 524.87,466.08 525.59,465.91 526.31,465.80 527.03,465.78 527.76,465.86 528.48,466.03 529.20,466.27 529.92,466.55 530.65,466.75 531.37,466.72 532.09,466.41 532.81,465.91 533.53,465.34 534.26,464.75 534.98,464.21 535.70,463.73 536.42,463.33 537.14,463.05 537.87,462.87 538.59,462.82 539.31,462.89 540.03,463.08 540.75,463.39 541.48,463.79 542.20,464.28 542.92,464.78 543.64,465.22 544.37,465.41 545.09,465.22 545.81,464.65 546.53,463.83 547.25,462.91 547.98,461.98 548.70,461.11 549.42,460.36 550.14,459.78 550.86,459.40 551.59,459.27 552.31,459.39 553.03,459.77 553.75,460.40 554.47,461.28 555.20,462.35 555.92,463.57 556.64,464.85 557.36,465.98 558.09,466.35 558.81,465.59 559.53,464.44 560.25,463.30 560.97,462.30 561.70,461.48 562.42,460.88 563.14,460.51 563.86,460.36 564.58,460.42 565.31,460.65 566.03,461.02 566.75,461.49 567.47,462.03 568.19,462.60 568.92,463.19 569.64,463.77 570.36,464.33 571.08,464.86 571.81,465.30 572.53,465.56 573.25,465.53 573.97,465.16 574.69,464.55 575.42,463.80 576.14,463.03 576.86,462.29 577.58,461.64 578.30,461.13 579.03,460.80 579.75,460.65 580.47,460.71 581.19,460.97 581.91,461.40 582.64,461.99 583.36,462.67 584.08,463.38 584.80,463.99 585.53,464.37 586.25,464.40 586.97,464.10 587.69,463.58 588.41,462.99 589.14,462.44 589.86,461.98 590.58,461.67 591.30,461.53 592.02,461.56 592.75,461.76 593.47,462.13 594.19,462.65 594.91,463.28 595.63,464.02 596.36,464.82 597.08,465.67 597.80,466.53 598.52,467.37 599.25,467.83 599.97,467.08 600.69,466.41 601.41,465.83 602.13,465.33 602.86,464.94 603.58,464.63 604.30,464.41 605.02,464.25 605.74,464.15 606.47,464.06 607.19,463.97 607.91,463.84 608.63,463.66 609.35,463.44 610.08,463.19 610.80,462.93 611.52,462.70 612.24,462.54 612.97,462.47 613.69,462.53 614.41,462.71 615.13,463.02 615.85,463.43 616.58,463.86 617.30,464.20 618.02,464.32 618.74,464.09 619.46,463.53 620.19,462.77 620.91,461.94 621.63,461.13 622.35,460.44 623.07,459.91 623.80,459.58 624.52,459.48 625.24,459.60 625.96,459.93 626.69,460.44 627.41,461.10 628.13,461.85 628.85,462.64 629.57,463.39 630.30,464.06 631.02,464.60 631.74,464.99 632.46,465.25 633.18,465.43 633.91,465.56 634.63,465.66 635.35,465.71 636.07,465.65 636.79,465.46 637.52,465.13 638.24,464.69 638.96,464.19 639.68,463.69 640.41,463.21 641.13,462.78 641.85,462.42 642.57,462.13 643.29,461.91 644.02,461.75 644.74,461.64 645.46,461.58 646.18,461.56 646.90,461.57 647.63,461.61 648.35,461.66 649.07,461.74 649.79,461.83 650.51,461.92 651.24,462.01 651.96,462.08 652.68,462.13 653.40,462.14 654.13,462.13 654.85,462.09 655.57,462.02 656.29,461.94 657.01,461.87 657.74,461.81 658.46,461.78 659.18,461.80 659.90,461.86 660.62,461.98 661.35,462.15 662.07,462.38 662.79,462.67 663.51,463.00 664.23,463.37 664.96,463.78 665.68,464.22 666.40,464.67 667.12,465.11 667.85,465.52 668.57,465.86 669.29,466.08 670.01,466.16 670.73,466.09 671.46,465.92 672.18,465.69 672.90,465.46 673.62,465.25 674.34,465.07 675.07,464.93 675.79,464.82 676.51,464.76 677.23,464.72 677.95,464.71 678.68,464.73 679.40,464.76 680.12,464.80 680.84,464.85 681.57,464.91 682.29,464.96 683.01,465.01 683.73,465.06 684.45,465.11 685.18,465.17 685.90,465.24 686.62,465.34 687.34,465.47 688.06,465.62 688.79,465.80 689.51,465.98 690.23,466.15 690.95,466.25 691.67,466.25 692.40,466.11 693.12,465.83 693.84,465.42 694.56,464.91 695.29,464.33 696.01,463.69 696.73,463.00 697.45,462.29 698.17,461.57 698.90,460.86 699.62,460.18 700.34,459.54 701.06,458.97 701.78,458.49 702.51,458.09 703.23,457.81 703.95,457.63 704.67,457.57 705.39,457.62 706.12,457.78 706.84,458.04 707.56,458.40 708.28,458.83 709.00,459.35 709.73,459.93 710.45,460.57 711.17,461.27 711.89,462.00 712.62,462.76 713.34,463.50 714.06,464.17 714.78,464.68 715.50,464.93 716.23,464.87 716.95,464.58 717.67,464.19 718.39,463.80 719.11,463.50 719.84,463.34 720.56,463.34 721.28,463.52 722.00,463.87 722.72,464.36 723.45,464.96 724.17,465.64 724.89,466.34 725.61,466.99 726.34,467.46 727.06,467.43 727.78,467.14 728.50,466.92 729.22,466.84 729.95,466.91 730.67,467.11 731.39,467.41 732.11,467.62 732.83,467.39 733.56,466.94 734.28,466.48 735.00,466.07 735.72,465.73 736.44,465.50 737.17,465.36 737.89,465.32 738.61,465.35 739.33,465.42 740.06,465.50 740.78,465.55 741.50,465.55 742.22,465.52 742.94,465.47 743.67,465.44 744.39,465.45 745.11,465.49 745.83,465.55 746.55,465.57 747.28,465.50 748.00,465.28 748.72,464.92 749.44,464.45 750.16,463.92 750.89,463.39 751.61,462.90 752.33,462.48 753.05,462.17 753.78,461.98 754.50,461.92 755.22,461.98 755.94,462.16 756.66,462.43 757.39,462.77 758.11,463.15 758.83,463.53 759.55,463.87 760.27,464.15 761.00,464.33 761.72,464.43 762.44,464.46 763.16,464.46 763.88,464.46 764.61,464.49 765.33,464.57 766.05,464.72 766.77,464.93 767.50,465.19 768.22,465.48 768.94,465.77 769.66,466.02 770.38,466.16 771.11,466.16 771.83,466.01 772.55,465.76 773.27,465.46 773.99,465.15 774.72,464.88 775.44,464.64 776.16,464.45 776.88,464.32 777.60,464.25 778.33,464.22 779.05,464.23 779.77,464.26 780.49,464.29 781.22,464.33 781.94,464.35 782.66,464.36 783.38,464.36 784.10,464.37 784.83,464.39 785.55,464.44 786.27,464.51 786.99,464.61 787.71,464.72 788.44,464.81 789.16,464.85 789.88,464.81 790.60,464.68 791.32,464.48 792.05,464.24 792.77,463.99 793.49,463.80 794.21,463.69 794.94,463.68 795.66,463.80 796.38,464.05 797.10,464.43 797.82,464.91 798.55,465.46 799.27,466.00 799.99,466.38 800.71,466.38 801.43,466.00 802.16,465.42 802.88,464.80 803.60,464.21 804.32,463.70 805.04,463.28 805.77,462.96 806.49,462.74 807.21,462.63 807.93,462.60 808.66,462.64 809.38,462.74 810.10,462.88 810.82,463.05 811.54,463.24 812.27,463.43 812.99,463.64 813.71,463.84 814.43,464.05 815.15,464.26 815.88,464.48 816.60,464.70 817.32,464.93 818.04,465.15 818.76,465.36 819.49,465.55 820.21,465.72 820.93,465.85 821.65,465.94 822.38,466.00 823.10,466.04 823.82,466.09 824.54,466.17 825.26,466.28 825.99,466.45 826.71,466.68 827.43,466.97 828.15,467.31 828.87,467.67 829.60,467.79 830.32,467.40 831.04,466.97 831.76,466.54 832.48,466.14 833.21,465.77 833.93,465.44 834.65,465.17 835.37,464.94 836.10,464.77 836.82,464.65 837.54,464.58 838.26,464.56 838.98,464.58 839.71,464.63 840.43,464.72 841.15,464.84 841.87,464.99 842.59,465.15 843.32,465.31 844.04,465.46 844.76,465.59 845.48,465.69 846.20,465.75 846.93,465.76 847.65,465.75 848.37,465.70 849.09,465.64 849.82,465.56 850.54,465.48 851.26,465.38 851.98,465.28 852.70,465.16 853.43,465.05 854.15,464.95 854.87,464.87 855.59,464.84 856.31,464.86 857.04,464.94 857.76,465.11 858.48,465.36 859.20,465.69 859.92,466.10 860.65,466.55 861.37,467.03 862.09,467.42 862.81,467.43 863.54,467.05 864.26,466.61 864.98,466.21 865.70,465.89 866.42,465.67 867.15,465.55 867.87,465.55 868.59,465.66 869.31,465.87 870.03,466.16 870.76,466.51 871.48,466.88 872.20,467.23 872.92,467.44 873.64,467.40 874.37,467.21 875.09,467.02 875.81,466.91 876.53,466.88 877.26,466.96 877.98,467.12 878.70,467.32 879.42,467.41 880.14,467.22 880.87,466.82 881.59,466.34 882.31,465.84 883.03,465.36 883.75,464.93 884.48,464.57 885.20,464.29 885.92,464.12 886.64,464.04 887.36,464.05 888.09,464.16 888.81,464.33 889.53,464.57 890.25,464.84 890.98,465.13 891.70,465.41 892.42,465.66 893.14,465.86 893.86,466.01 894.59,466.10 895.31,466.12 896.03,466.10 896.75,466.05 897.47,465.96 898.20,465.85 898.92,465.72 899.64,465.58 900.36,465.44 901.08,465.30 901.81,465.17 902.53,465.06 903.25,464.97 903.97,464.92 904.70,464.89 905.42,464.90 906.14,464.94 906.86,465.02 907.58,465.12 908.31,465.24 909.03,465.39 909.75,465.55 910.47,465.72 911.19,465.90 911.92,466.07 912.64,466.23 913.36,466.38 914.08,466.52 914.80,466.64 915.53,466.75 916.25,466.84 916.97,466.92 917.69,466.99 918.42,467.06 919.14,467.11 919.86,467.15 920.58,467.18 921.30,467.20 922.03,467.21 922.75,467.21 923.47,467.22 924.19,467.25 924.91,467.31 925.64,467.41 926.36,467.55 927.08,467.75 927.80,467.93 928.52,467.63 929.25,467.23 929.97,466.76 930.69,466.24 931.41,465.67 932.14,465.07 932.86,464.46 933.58,463.84 934.30,463.25 935.02,462.69 935.75,462.20 936.47,461.77 937.19,461.43 937.91,461.19 938.63,461.04 939.36,460.99 940.08,461.03 940.80,461.16 941.52,461.36 942.24,461.63 942.97,461.95 943.69,462.31 944.41,462.69 945.13,463.09 945.86,463.49 946.58,463.90 947.30,464.31 948.02,464.71 948.74,465.09 949.47,465.47 950.19,465.82 950.91,466.14 951.63,466.43 952.35,466.67 953.08,466.84 953.80,466.96 954.52,467.01 955.24,467.02 955.96,467.02 956.69,467.00 957.41,467.00 958.13,467.01 958.85,467.04 959.57,467.09 960.30,467.15 961.02,467.22 961.74,467.28 962.46,467.31 963.19,467.31 963.91,467.27 964.63,467.19 965.35,467.09 966.07,467.00 966.80,466.92 967.52,466.87 968.24,466.86 968.96,466.90 969.68,466.98 970.41,467.09 971.13,467.22 971.85,467.34 972.57,467.38 973.29,467.30 974.02,467.13 974.74,466.91 975.46,466.70 976.18,466.51 976.91,466.36 977.63,466.26 978.35,466.21 979.07,466.19 979.79,466.19 980.52,466.17 981.24,466.11 981.96,465.98 982.68,465.80 983.40,465.57 984.13,465.33 984.85,465.11 985.57,464.94 986.29,464.83 987.01,464.82 987.74,464.90 988.46,465.09 989.18,465.37 989.90,465.74 990.63,466.17 991.35,466.67 992.07,467.18 992.79,467.68 993.51,467.69 994.24,467.26 994.96,466.85 995.68,466.51 996.40,466.26 997.12,466.10 997.85,466.03 998.57,466.05 999.29,466.14 1000.01,466.29 1000.73,466.46 1001.46,466.60 1002.18,466.67 1002.90,466.61 1003.62,466.42 1004.35,466.14 1005.07,465.80 1005.79,465.44 1006.51,465.08 1007.23,464.76 1007.96,464.49 1008.68,464.28 1009.40,464.15 1010.12,464.13 1010.84,464.22 1011.57,464.42 1012.29,464.75 1013.01,465.19 1013.73,465.73 1014.45,466.36 1015.18,467.03 1015.90,467.52 1016.62,467.17 1017.34,466.49 1018.07,465.82 1018.79,465.21 1019.51,464.71 1020.23,464.33 1020.95,464.07 1021.68,463.96 1022.40,463.97 1023.12,464.09 1023.84,464.30 1024.56,464.56 1025.29,464.84 1026.01,465.09 1026.73,465.29 1027.45,465.41 1028.17,465.44 1028.90,465.41 1029.62,465.34 1030.34,465.26 1031.06,465.19 1031.79,465.16 1032.51,465.16 1033.23,465.21 1033.95,465.31 1034.67,465.45 1035.40,465.63 1036.12,465.84 1036.84,466.06 1037.56,466.27 1038.28,466.43 1039.01,466.52 1039.73,466.50 1040.45,466.39 1041.17,466.22 1041.89,466.05 1042.62,465.89 1043.34,465.77 1044.06,465.70 1044.78,465.68 1045.51,465.71 1046.23,465.77 1046.95,465.84 1047.67,465.88 1048.39,465.86 1049.12,465.77 1049.84,465.61 1050.56,465.41 1051.28,465.19 1052.00,464.98 1052.73,464.80 1053.45,464.68 1054.17,464.62 1054.89,464.62 1055.61,464.68 1056.34,464.80 1057.06,464.95 1057.78,465.13 1058.50,465.30 1059.23,465.46 1059.95,465.58 1060.67,465.66 1061.39,465.70 1062.11,465.71 1062.84,465.72 1063.56,465.74 1064.28,465.78 1065.00,465.85 1065.72,465.95 1066.45,466.08 1067.17,466.22 1067.89,466.37 1068.61,466.49 1069.33,466.57 1070.06,466.57 1070.78,466.48 1071.50,466.33 1072.22,466.12 1072.95,465.88 1073.67,465.64 1074.39,465.41 1075.11,465.21 1075.83,465.05 1076.56,464.94 1077.28,464.89 1078.00,464.92"/>
  <line x1="67.78" y1="42.00" x2="67.78" y2="468" stroke="#b45309" stroke-width="1" opacity="0.55"/>
<line x1="78.61" y1="322.35" x2="78.61" y2="468" stroke="#b45309" stroke-width="1" opacity="0.55"/>
<line x1="116.88" y1="393.18" x2="116.88" y2="468" stroke="#b45309" stroke-width="1" opacity="0.55"/>
<line x1="100.27" y1="409.28" x2="100.27" y2="468" stroke="#b45309" stroke-width="1" opacity="0.55"/>
<line x1="89.44" y1="417.98" x2="89.44" y2="468" stroke="#b45309" stroke-width="1" opacity="0.55"/>
<line x1="171.76" y1="425.53" x2="171.76" y2="468" stroke="#b45309" stroke-width="1" opacity="0.55"/>
<line x1="137.10" y1="426.17" x2="137.10" y2="468" stroke="#b45309" stroke-width="1" opacity="0.55"/>
<line x1="220.86" y1="438.13" x2="220.86" y2="468" stroke="#b45309" stroke-width="1" opacity="0.55"/>
<line x1="187.65" y1="441.49" x2="187.65" y2="468" stroke="#b45309" stroke-width="1" opacity="0.55"/>
<line x1="147.93" y1="441.70" x2="147.93" y2="468" stroke="#b45309" stroke-width="1" opacity="0.55"/>
<line x1="316.90" y1="441.91" x2="316.90" y2="468" stroke="#b45309" stroke-width="1" opacity="0.55"/>
<line x1="206.42" y1="442.73" x2="206.42" y2="468" stroke="#b45309" stroke-width="1" opacity="0.55"/>
<line x1="257.69" y1="446.64" x2="257.69" y2="468" stroke="#b45309" stroke-width="1" opacity="0.55"/>
<line x1="274.30" y1="447.25" x2="274.30" y2="468" stroke="#b45309" stroke-width="1" opacity="0.55"/>
<line x1="359.51" y1="449.29" x2="359.51" y2="468" stroke="#b45309" stroke-width="1" opacity="0.55"/>
<line x1="442.55" y1="453.82" x2="442.55" y2="468" stroke="#b45309" stroke-width="1" opacity="0.55"/>
<line x1="339.29" y1="454.54" x2="339.29" y2="468" stroke="#b45309" stroke-width="1" opacity="0.55"/>
<line x1="374.67" y1="455.13" x2="374.67" y2="468" stroke="#b45309" stroke-width="1" opacity="0.55"/>
<line x1="456.27" y1="455.21" x2="456.27" y2="468" stroke="#b45309" stroke-width="1" opacity="0.55"/>
<line x1="402.11" y1="455.23" x2="402.11" y2="468" stroke="#b45309" stroke-width="1" opacity="0.55"/>
<line x1="481.54" y1="456.14" x2="481.54" y2="468" stroke="#b45309" stroke-width="1" opacity="0.55"/>
<line x1="465.66" y1="456.52" x2="465.66" y2="468" stroke="#b45309" stroke-width="1" opacity="0.55"/>
<line x1="495.26" y1="456.73" x2="495.26" y2="468" stroke="#b45309" stroke-width="1" opacity="0.55"/>
<line x1="704.67" y1="457.57" x2="704.67" y2="468" stroke="#b45309" stroke-width="1" opacity="0.55"/>
<line x1="502.48" y1="458.43" x2="502.48" y2="468" stroke="#b45309" stroke-width="1" opacity="0.55"/>
<line x1="303.18" y1="458.79" x2="303.18" y2="468" stroke="#b45309" stroke-width="1" opacity="0.55"/>
<line x1="551.59" y1="459.27" x2="551.59" y2="468" stroke="#b45309" stroke-width="1" opacity="0.55"/>
<line x1="293.07" y1="459.27" x2="293.07" y2="468" stroke="#b45309" stroke-width="1" opacity="0.55"/>
<line x1="624.52" y1="459.48" x2="624.52" y2="468" stroke="#b45309" stroke-width="1" opacity="0.55"/>
<line x1="234.58" y1="460.13" x2="234.58" y2="468" stroke="#b45309" stroke-width="1" opacity="0.55"/>
  <text x="570" y="516" font-size="13" text-anchor="middle" fill="#334155">log-frequency gamma</text>
  <text x="15" y="255" font-size="13" text-anchor="middle" fill="#334155" transform="rotate(-90 15 255)">Hann DFT amplitude</text>
</svg>
