<?xml version="1.0" encoding="UTF-8"?>
<svg xmlns="http://www.w3.org/2000/svg" width="1100" height="520" viewBox="0 0 1100 520">
  <rect width="100%" height="100%" fill="#f8fafc"/>
  <text x="62" y="25" font-size="20" font-family="system-ui, -apple-system, sans-serif" font-weight="700" fill="#0f172a">cramer-n2plus1-avg</text>
  <rect x="62" y="42" width="1016" height="426" fill="#ffffff" stroke="#cbd5e1"/>
  <line x1="62" y1="468" x2="62" y2="473" stroke="#475569"/>
  <text x="62" y="502" font-size="12" text-anchor="middle" fill="#334155">0</text>
  <line x1="146.68088909299092" y1="468" x2="146.68088909299092" y2="473" stroke="#475569"/>
  <text x="146.68088909299092" y="502" font-size="12" text-anchor="middle" fill="#334155">10</text>
  <line x1="231.36177818598185" y1="468" x2="231.36177818598185" y2="473" stroke="#475569"/>
  <text x="231.36177818598185" y="502" font-size="12" text-anchor="middle" fill="#334155">20</text>
  <line x1="316.0426672789728" y1="468" x2="316.0426672789728" y2="473" stroke="#475569"/>
  <text x="316.0426672789728" y="502" font-size="12" text-anchor="middle" fill="#334155">30</text>
  <line x1="400.7235563719637" y1="468" x2="400.7235563719637" y2="473" stroke="#475569"/>
  <text x="400.7235563719637" y="502" font-size="12" text-anchor="middle" fill="#334155">40</text>
  <line x1="485.4044454649547" y1="468" x2="485.4044454649547" y2="473" stroke="#475569"/>
  <text x="485.4044454649547" y="502" font-size="12" text-anchor="middle" fill="#334155">50</text>
  <line x1="570.0853345579455" y1="468" x2="570.0853345579455" y2="473" stroke="#475569"/>
  <text x="570.0853345579455" y="502" font-size="12" text-anchor="middle" fill="#334155">60</text>
  <line x1="654.7662236509365" y1="468" x2="654.7662236509365" y2="473" stroke="#475569"/>
  <text x="654.7662236509365" y="502" font-size="12" text-anchor="middle" fill="#334155">70</text>
  <line x1="739.4471127439274" y1="468" x2="739.4471127439274" y2="473" stroke="#475569"/>
  <text x="739.4471127439274" y="502" font-size="12" text-anchor="middle" fill="#334155">80</text>
  <line x1="824.1280018369184" y1="468" x2="824.1280018369184" y2="473" stroke="#475569"/>
  <text x="824.1280018369184" y="502" font-size="12" text-anchor="middle" fill="#334155">90</text>
  <line x1="908.8088909299094" y1="468" x2="908.8088909299094" y2="473" stroke="#475569"/>
  <text x="908.8088909299094" y="502" font-size="12" text-anchor="middle" fill="#334155">100</text>
  <line x1="993.4897800229003" y1="468" x2="993.4897800229003" y2="473" stroke="#475569"/>
  <text x="993.4897800229003" y="502" font-size="12" text-anchor="middle" fill="#334155">110</text>
  <line x1="57" y1="468" x2="62" y2="468" stroke="#475569"/>
  <text x="52" y="472" font-size="12" text-anchor="end" fill="#334155">0.000</text>
  <line x1="57" y1="361.5" x2="62" y2="361.5" stroke="#475569"/>
  <text x="52" y="365.5" font-size="12" text-anchor="end" fill="#334155">4.376</text>
  <line x1="57" y1="255" x2="62" y2="255" stroke="#475569"/>
  <text x="52" y="259" font-size="12" text-anchor="end" fill="#334155">8.753</text>
  <line x1="57" y1="148.5" x2="62" y2="148.5" stroke="#475569"/>
  <text x="52" y="152.5" font-size="12" text-anchor="end" fill="#334155">13.129</text>
  <line x1="57" y1="42" x2="62" y2="42" stroke="#475569"/>
  <text x="52" y="46" font-size="12" text-anchor="end" fill="#334155">17.505</text>
  <line x1="181.69" y1="42" x2="181.69" y2="468" stroke="#2563eb" stroke-width="1" opacity="0.28"><title>zero 1</title></line>
<line x1="240.02" y1="42" x2="240.02" y2="468" stroke="#2563eb" stroke-width="1" opacity="0.28"><title>zero 2</title></line>
<line x1="273.79" y1="42" x2="273.79" y2="468" stroke="#2563eb" stroke-width="1" opacity="0.28"><title>zero 3</title></line>
<line x1="319.64" y1="42" x2="319.64" y2="468" stroke="#2563eb" stroke-width="1" opacity="0.28"><title>zero 4</title></line>
<line x1="340.90" y1="42" x2="340.90" y2="468" stroke="#2563eb" stroke-width="1" opacity="0.28"><title>zero 5</title></line>
<line x1="380.28" y1="42" x2="380.28" y2="468" stroke="#2563eb" stroke-width="1" opacity="0.28"><title>zero 6</title></line>
<line x1="408.50" y1="42" x2="408.50" y2="468" stroke="#2563eb" stroke-width="1" opacity="0.28"><title>zero 7</title></line>
<line x1="428.90" y1="42" x2="428.90" y2="468" stroke="#2563eb" stroke-width="1" opacity="0.28"><title>zero 8</title></line>
<line x1="468.51" y1="42" x2="468.51" y2="468" stroke="#2563eb" stroke-width="1" opacity="0.28"><title>zero 9</title></line>
<line x1="483.49" y1="42" x2="483.49" y2="468" stroke="#2563eb" stroke-width="1" opacity="0.28"><title>zero 10</title></line>
<line x1="510.56" y1="42" x2="510.56" y2="468" stroke="#2563eb" stroke-width="1" opacity="0.28"><title>zero 11</title></line>
<line x1="539.99" y1="42" x2="539.99" y2="468" stroke="#2563eb" stroke-width="1" opacity="0.28"><title>zero 12</title></line>
<line x1="564.56" y1="42" x2="564.56" y2="468" stroke="#2563eb" stroke-width="1" opacity="0.28"><title>zero 13</title></line>
<line x1="577.13" y1="42" x2="577.13" y2="468" stroke="#2563eb" stroke-width="1" opacity="0.28"><title>zero 14</title></line>
<line x1="613.38" y1="42" x2="613.38" y2="468" stroke="#2563eb" stroke-width="1" opacity="0.28"><title>zero 15</title></line>
<line x1="630.04" y1="42" x2="630.04" y2="468" stroke="#2563eb" stroke-width="1" opacity="0.28"><title>zero 16</title></line>
<line x1="650.92" y1="42" x2="650.92" y2="468" stroke="#2563eb" stroke-width="1" opacity="0.28"><title>zero 17</title></line>
<line x1="672.27" y1="42" x2="672.27" y2="468" stroke="#2563eb" stroke-width="1" opacity="0.28"><title>zero 18</title></line>
<line x1="703.07" y1="42" x2="703.07" y2="468" stroke="#2563eb" stroke-width="1" opacity="0.28"><title>zero 19</title></line>
<line x1="715.27" y1="42" x2="715.27" y2="468" stroke="#2563eb" stroke-width="1" opacity="0.28"><title>zero 20</title></line>
<line x1="733.84" y1="42" x2="733.84" y2="468" stroke="#2563eb" stroke-width="1" opacity="0.28"><title>zero 21</title></line>
<line x1="764.09" y1="42" x2="764.09" y2="468" stroke="#2563eb" stroke-width="1" opacity="0.28"><title>zero 22</title></line>
<line x1="779.55" y1="42" x2="779.55" y2="468" stroke="#2563eb" stroke-width="1" opacity="0.28"><title>zero 23</title></line>
<line x1="802.32" y1="42" x2="802.32" y2="468" stroke="#2563eb" stroke-width="1" opacity="0.28"><title>zero 24</title></line>
<line x1="814.04" y1="42" x2="814.04" y2="468" stroke="#2563eb" stroke-width="1" opacity="0.28"><title>zero 25</title></line>
<line x1="845.23" y1="42" x2="845.23" y2="468" stroke="#2563eb" stroke-width="1" opacity="0.28"><title>zero 26</title></line>
<line x1="863.52" y1="42" x2="863.52" y2="468" stroke="#2563eb" stroke-width="1" opacity="0.28"><title>zero 27</title></line>
<line x1="873.84" y1="42" x2="873.84" y2="468" stroke="#2563eb" stroke-width="1" opacity="0.28"><title>zero 28</title></line>
<line x1="898.91" y1="42" x2="898.91" y2="468" stroke="#2563eb" stroke-width="1" opacity="0.28"><title>zero 29</title></line>
<line x1="919.97" y1="42" x2="919.97" y2="468" stroke="#2563eb" stroke-width="1" opacity="0.28"><title>zero 30</title></line>
<line x1="940.36" y1="42" x2="940.36" y2="468" stroke="#2563eb" stroke-width="1" opacity="0.28"><title>zero 31</title></line>
<line x1="954.93" y1="42" x2="954.93" y2="468" stroke="#2563eb" stroke-width="1" opacity="0.28"><title>zero 32</title></line>
<line x1="969.51" y1="42" x2="969.51" y2="468" stroke="#2563eb" stroke-width="1" opacity="0.28"><title>zero 33</title></line>
<line x1="1002.21" y1="42" x2="1002.21" y2="468" stroke="#2563eb" stroke-width="1" opacity="0.28"><title>zero 34</title></line>
<line x1="1009.36" y1="42" x2="1009.36" y2="468" stroke="#2563eb" stroke-width="1" opacity="0.28"><title>zero 35</title></line>
  <polyline fill="none" stroke="#0f766e" stroke-width="1.4" points="63.44,294.28 64.17,275.25 64.89,256.31 65.61,240.73 66.33,230.50 67.05,226.43 67.78,228.25 68.50,234.61 69.22,243.07 69.94,250.22 70.67,252.25 71.39,246.12 72.11,230.90 72.83,208.04 73.55,180.37 74.28,150.92 75.00,122.29 75.72,96.47 76.44,74.85 77.16,58.31 77.89,47.32 78.61,42.00 79.33,42.23 80.05,47.70 80.77,57.96 81.50,72.49 82.22,90.74 82.94,112.13 83.66,136.05 84.39,161.94 85.11,189.23 85.83,217.37 86.55,245.85 87.27,274.20 88.00,302.02 88.72,328.96 89.44,354.78 90.16,379.28 90.88,402.28 91.61,423.48 92.33,441.65 93.05,450.44 93.77,441.58 94.49,426.14 95.22,409.95 95.94,394.17 96.66,379.17 97.38,365.13 98.11,352.15 98.83,340.33 99.55,329.70 100.27,320.28 100.99,312.08 101.72,305.11 102.44,299.37 103.16,294.91 103.88,291.80 104.60,290.14 105.33,290.02 106.05,291.55 106.77,294.80 107.49,299.81 108.21,306.54 108.94,314.90 109.66,324.74 110.38,335.86 111.10,347.99 111.83,360.89 112.55,374.27 113.27,387.88 113.99,401.44 114.71,414.61 115.44,426.88 116.16,437.14 116.88,442.98 117.60,441.73 118.32,434.70 119.05,425.23 119.77,415.32 120.49,405.94 121.21,397.65 121.93,390.87 122.66,385.87 123.38,382.86 124.10,381.96 124.82,383.18 125.55,386.46 126.27,391.66 126.99,398.56 127.71,406.89 128.43,416.32 129.16,426.50 129.88,437.08 130.60,447.67 131.32,457.78 132.04,464.27 132.77,457.75 133.49,449.90 134.21,442.97 134.93,437.21 135.65,432.71 136.38,429.46 137.10,427.42 137.82,426.51 138.54,426.57 139.27,427.44 139.99,428.92 140.71,430.78 141.43,432.78 142.15,434.73 142.88,436.45 143.60,437.87 144.32,439.03 145.04,440.06 145.76,441.13 146.49,442.45 147.21,444.20 147.93,446.48 148.65,449.32 149.37,452.70 150.10,456.45 150.82,460.21 151.54,462.88 152.26,462.18 152.99,459.05 153.71,455.60 154.43,452.56 155.15,450.22 155.87,448.76 156.60,448.25 157.32,448.72 158.04,450.11 158.76,452.29 159.48,455.10 160.21,458.23 160.93,461.22 161.65,462.96 162.37,462.15 163.09,459.82 163.82,457.35 164.54,455.27 165.26,453.78 165.98,452.98 166.71,452.86 167.43,453.37 168.15,454.43 168.87,455.89 169.59,457.59 170.32,459.27 171.04,460.63 171.76,461.28 172.48,461.00 173.20,459.97 173.93,458.56 174.65,457.04 175.37,455.56 176.09,454.18 176.81,452.94 177.54,451.87 178.26,450.96 178.98,450.26 179.70,449.77 180.43,449.56 181.15,449.64 181.87,450.07 182.59,450.85 183.31,451.94 184.04,453.24 184.76,454.47 185.48,455.22 186.20,454.96 186.92,453.39 187.65,450.67 188.37,447.22 189.09,443.44 189.81,439.66 190.53,436.16 191.26,433.15 191.98,430.80 192.70,429.21 193.42,428.46 194.14,428.55 194.87,429.43 195.59,431.00 196.31,433.11 197.03,435.55 197.76,438.06 198.48,440.39 199.20,442.28 199.92,443.53 200.64,444.10 201.37,444.10 202.09,443.76 202.81,443.32 203.53,442.99 204.25,442.89 204.98,443.06 205.70,443.42 206.42,443.81 207.14,444.02 207.86,443.78 208.59,442.91 209.31,441.34 210.03,439.15 210.75,436.55 211.48,433.77 212.20,431.08 212.92,428.69 213.64,426.79 214.36,425.52 215.09,424.99 215.81,425.25 216.53,426.34 217.25,428.23 217.97,430.86 218.70,434.14 219.42,437.94 220.14,442.11 220.86,446.47 221.58,450.85 222.31,455.02 223.03,458.74 223.75,461.58 224.47,462.84 225.20,462.22 225.92,460.64 226.64,458.84 227.36,457.00 228.08,455.13 228.81,453.16 229.53,451.08 230.25,448.91 230.97,446.71 231.69,444.60 232.42,442.67 233.14,441.02 233.86,439.70 234.58,438.77 235.30,438.24 236.03,438.06 236.75,438.20 237.47,438.57 238.19,439.08 238.92,439.63 239.64,440.11 240.36,440.44 241.08,440.54 241.80,440.37 242.53,439.90 243.25,439.15 243.97,438.15 244.69,436.95 245.41,435.60 246.14,434.16 246.86,432.69 247.58,431.24 248.30,429.88 249.02,428.65 249.75,427.62 250.47,426.83 251.19,426.35 251.91,426.20 252.64,426.43 253.36,427.06 254.08,428.08 254.80,429.48 255.52,431.24 256.25,433.31 256.97,435.64 257.69,438.17 258.41,440.82 259.13,443.54 259.86,446.25 260.58,448.91 261.30,451.43 262.02,453.77 262.74,455.86 263.47,457.63 264.19,459.01 264.91,459.94 265.63,460.43 266.36,460.52 267.08,460.35 267.80,460.04 268.52,459.68 269.24,459.34 269.97,459.04 270.69,458.78 271.41,458.54 272.13,458.30 272.85,458.02 273.58,457.69 274.30,457.26 275.02,456.74 275.74,456.10 276.46,455.37 277.19,454.56 277.91,453.67 278.63,452.75 279.35,451.80 280.08,450.85 280.80,449.93 281.52,449.05 282.24,448.22 282.96,447.48 283.69,446.81 284.41,446.23 285.13,445.72 285.85,445.27 286.57,444.86 287.30,444.46 288.02,444.04 288.74,443.59 289.46,443.13 290.18,442.67 290.91,442.28 291.63,442.02 292.35,441.97 293.07,442.20 293.80,442.79 294.52,443.77 295.24,445.18 295.96,446.99 296.68,449.15 297.41,451.55 298.13,454.00 298.85,456.18 299.57,457.65 300.29,457.95 301.02,457.01 301.74,455.28 302.46,453.27 303.18,451.34 303.90,449.74 304.63,448.59 305.35,447.97 306.07,447.93 306.79,448.46 307.52,449.52 308.24,451.05 308.96,452.97 309.68,455.17 310.40,457.53 311.13,459.90 311.85,462.11 312.57,463.84 313.29,464.61 314.01,464.22 314.74,463.32 315.46,462.43 316.18,461.78 316.90,461.42 317.62,461.34 318.35,461.51 319.07,461.85 319.79,462.28 320.51,462.67 321.24,462.89 321.96,462.85 322.68,462.50 323.40,461.89 324.12,461.10 324.85,460.19 325.57,459.24 326.29,458.25 327.01,457.27 327.73,456.30 328.46,455.37 329.18,454.49 329.90,453.68 330.62,452.97 331.34,452.39 332.07,451.97 332.79,451.72 333.51,451.67 334.23,451.82 334.96,452.17 335.68,452.71 336.40,453.40 337.12,454.21 337.84,455.09 338.57,455.98 339.29,456.84 340.01,457.64 340.73,458.37 341.45,459.04 342.18,459.71 342.90,460.41 343.62,461.21 344.34,462.15 345.06,463.25 345.79,464.47 346.51,465.68 347.23,466.25 347.95,465.31 348.68,463.62 349.40,461.70 350.12,459.69 350.84,457.66 351.56,455.64 352.29,453.68 353.01,451.79 353.73,449.98 354.45,448.27 355.17,446.67 355.90,445.21 356.62,443.90 357.34,442.78 358.06,441.89 358.78,441.25 359.51,440.91 360.23,440.88 360.95,441.20 361.67,441.87 362.40,442.87 363.12,444.20 363.84,445.81 364.56,447.66 365.28,449.68 366.01,451.82 366.73,454.01 367.45,456.19 368.17,458.30 368.89,460.29 369.62,462.11 370.34,463.74 371.06,465.14 371.78,466.21 372.50,466.68 373.23,466.36 373.95,465.70 374.67,465.01 375.39,464.34 376.12,463.70 376.84,463.10 377.56,462.53 378.28,461.98 379.00,461.47 379.73,461.00 380.45,460.56 381.17,460.17 381.89,459.82 382.61,459.52 383.34,459.27 384.06,459.08 384.78,458.95 385.50,458.88 386.22,458.86 386.95,458.91 387.67,459.00 388.39,459.14 389.11,459.31 389.84,459.50 390.56,459.69 391.28,459.88 392.00,460.05 392.72,460.19 393.45,460.29 394.17,460.36 394.89,460.38 395.61,460.36 396.33,460.30 397.06,460.22 397.78,460.15 398.50,460.10 399.22,460.12 399.94,460.24 400.67,460.48 401.39,460.86 402.11,461.40 402.83,462.09 403.56,462.91 404.28,463.82 405.00,464.75 405.72,465.57 406.44,466.06 407.17,465.98 407.89,465.50 408.61,464.95 409.33,464.50 410.05,464.23 410.78,464.19 411.50,464.40 412.22,464.83 412.94,465.48 413.66,466.29 414.39,467.19 415.11,467.49 415.83,466.55 416.55,465.52 417.28,464.55 418.00,463.68 418.72,462.93 419.44,462.30 420.16,461.80 420.89,461.40 421.61,461.05 422.33,460.73 423.05,460.40 423.77,460.01 424.50,459.57 425.22,459.06 425.94,458.51 426.66,457.93 427.38,457.36 428.11,456.81 428.83,456.31 429.55,455.88 430.27,455.51 431.00,455.23 431.72,455.04 432.44,454.94 433.16,454.94 433.88,455.03 434.61,455.21 435.33,455.49 436.05,455.84 436.77,456.28 437.49,456.78 438.22,457.32 438.94,457.91 439.66,458.51 440.38,459.12 441.10,459.73 441.83,460.30 442.55,460.85 443.27,461.35 443.99,461.80 444.71,462.19 445.44,462.53 446.16,462.82 446.88,463.06 447.60,463.25 448.33,463.42 449.05,463.56 449.77,463.70 450.49,463.84 451.21,463.99 451.94,464.16 452.66,464.37 453.38,464.63 454.10,464.95 454.82,465.34 455.55,465.79 456.27,466.27 456.99,466.68 457.71,466.73 458.43,466.24 459.16,465.40 459.88,464.39 460.60,463.29 461.32,462.12 462.05,460.92 462.77,459.70 463.49,458.49 464.21,457.29 464.93,456.14 465.66,455.04 466.38,454.02 467.10,453.10 467.82,452.31 468.54,451.69 469.27,451.26 469.99,451.05 470.71,451.10 471.43,451.42 472.15,452.01 472.88,452.86 473.60,453.97 474.32,455.28 475.04,456.76 475.77,458.35 476.49,459.96 477.21,461.52 477.93,462.94 478.65,464.07 479.38,464.77 480.10,464.96 480.82,464.77 481.54,464.46 482.26,464.19 482.99,464.04 483.71,464.06 484.43,464.24 485.15,464.58 485.87,465.05 486.60,465.62 487.32,466.21 488.04,466.63 488.76,466.53 489.49,465.93 490.21,465.14 490.93,464.31 491.65,463.54 492.37,462.89 493.10,462.38 493.82,462.05 494.54,461.92 495.26,461.99 495.98,462.24 496.71,462.64 497.43,463.14 498.15,463.66 498.87,464.07 499.59,464.25 500.32,464.10 501.04,463.66 501.76,463.03 502.48,462.34 503.21,461.67 503.93,461.09 504.65,460.65 505.37,460.39 506.09,460.31 506.82,460.44 507.54,460.78 508.26,461.32 508.98,462.03 509.70,462.85 510.43,463.67 511.15,464.26 511.87,464.29 512.59,463.64 513.31,462.50 514.04,461.13 514.76,459.70 515.48,458.34 516.20,457.12 516.93,456.11 517.65,455.36 518.37,454.90 519.09,454.76 519.81,454.93 520.54,455.42 521.26,456.20 521.98,457.23 522.70,458.46 523.42,459.83 524.15,461.24 524.87,462.58 525.59,463.66 526.31,464.23 527.03,464.17 527.76,463.66 528.48,462.99 529.20,462.38 529.92,461.95 530.65,461.76 531.37,461.80 532.09,462.08 532.81,462.55 533.53,463.11 534.26,463.59 534.98,463.79 535.70,463.51 536.42,462.75 537.14,461.68 537.87,460.48 538.59,459.26 539.31,458.11 540.03,457.08 540.75,456.22 541.48,455.54 542.20,455.04 542.92,454.74 543.64,454.61 544.37,454.64 545.09,454.82 545.81,455.14 546.53,455.58 547.25,456.12 547.98,456.75 548.70,457.44 549.42,458.16 550.14,458.87 550.86,459.54 551.59,460.11 552.31,460.54 553.03,460.79 553.75,460.86 554.47,460.77 555.20,460.59 555.92,460.37 556.64,460.15 557.36,459.97 558.09,459.86 558.81,459.83 559.53,459.85 560.25,459.93 560.97,460.01 561.70,460.09 562.42,460.13 563.14,460.12 563.86,460.06 564.58,459.95 565.31,459.83 566.03,459.71 566.75,459.63 567.47,459.61 568.19,459.66 568.92,459.78 569.64,459.98 570.36,460.25 571.08,460.56 571.81,460.91 572.53,461.27 573.25,461.63 573.97,461.96 574.69,462.26 575.42,462.52 576.14,462.74 576.86,462.93 577.58,463.10 578.30,463.27 579.03,463.48 579.75,463.74 580.47,464.08 581.19,464.51 581.91,465.04 582.64,465.67 583.36,466.37 584.08,466.99 584.80,466.98 585.53,466.22 586.25,465.23 586.97,464.18 587.69,463.15 588.41,462.16 589.14,461.25 589.86,460.46 590.58,459.79 591.30,459.27 592.02,458.89 592.75,458.67 593.47,458.58 594.19,458.63 594.91,458.78 595.63,459.01 596.36,459.30 597.08,459.61 597.80,459.93 598.52,460.23 599.25,460.48 599.97,460.69 600.69,460.84 601.41,460.94 602.13,460.99 602.86,461.00 603.58,460.98 604.30,460.95 605.02,460.92 605.74,460.90 606.47,460.91 607.19,460.97 607.91,461.09 608.63,461.28 609.35,461.56 610.08,461.92 610.80,462.35 611.52,462.83 612.24,463.29 612.97,463.62 613.69,463.71 614.41,463.47 615.13,462.90 615.85,462.10 616.58,461.19 617.30,460.26 618.02,459.40 618.74,458.69 619.46,458.16 620.19,457.86 620.91,457.82 621.63,458.05 622.35,458.56 623.07,459.34 623.80,460.35 624.52,461.56 625.24,462.93 625.96,464.40 626.69,465.88 627.41,467.08 628.13,466.67 628.85,465.46 629.57,464.33 630.30,463.37 631.02,462.65 631.74,462.18 632.46,461.98 633.18,462.02 633.91,462.30 634.63,462.79 635.35,463.43 636.07,464.18 636.79,464.95 637.52,465.61 638.24,465.95 638.96,465.80 639.68,465.28 640.41,464.62 641.13,463.94 641.85,463.32 642.57,462.77 643.29,462.31 644.02,461.92 644.74,461.62 645.46,461.38 646.18,461.22 646.90,461.14 647.63,461.13 648.35,461.22 649.07,461.42 649.79,461.73 650.51,462.18 651.24,462.75 651.96,463.47 652.68,464.30 653.40,465.24 654.13,466.27 654.85,467.34 655.57,467.53 656.29,466.48 657.01,465.49 657.74,464.61 658.46,463.89 659.18,463.36 659.90,463.06 660.62,463.01 661.35,463.21 662.07,463.67 662.79,464.37 663.51,465.30 664.23,466.42 664.96,467.62 665.68,466.87 666.40,465.44 667.12,464.00 667.85,462.61 668.57,461.32 669.29,460.17 670.01,459.20 670.73,458.45 671.46,457.92 672.18,457.63 672.90,457.58 673.62,457.75 674.34,458.12 675.07,458.66 675.79,459.34 676.51,460.10 677.23,460.90 677.95,461.69 678.68,462.40 679.40,463.00 680.12,463.45 680.84,463.75 681.57,463.93 682.29,464.03 683.01,464.12 683.73,464.24 684.45,464.41 685.18,464.62 685.90,464.86 686.62,465.05 687.34,465.10 688.06,464.93 688.79,464.52 689.51,463.90 690.23,463.15 690.95,462.33 691.67,461.51 692.40,460.72 693.12,460.01 693.84,459.40 694.56,458.91 695.29,458.57 696.01,458.37 696.73,458.34 697.45,458.45 698.17,458.71 698.90,459.10 699.62,459.60 700.34,460.20 701.06,460.89 701.78,461.63 702.51,462.41 703.23,463.21 703.95,464.01 704.67,464.81 705.39,465.56 706.12,466.28 706.84,466.92 707.56,467.46 708.28,467.64 709.00,467.36 709.73,467.04 710.45,466.79 711.17,466.62 711.89,466.51 712.62,466.47 713.34,466.48 714.06,466.51 714.78,466.54 715.50,466.53 716.23,466.48 716.95,466.38 717.67,466.23 718.39,466.05 719.11,465.85 719.84,465.65 720.56,465.44 721.28,465.24 722.00,465.03 722.72,464.82 723.45,464.61 724.17,464.40 724.89,464.19 725.61,464.00 726.34,463.83 727.06,463.72 727.78,463.66 728.50,463.69 729.22,463.81 729.95,464.02 730.67,464.32 731.39,464.69 732.11,465.09 732.83,465.42 733.56,465.56 734.28,465.39 735.00,464.92 735.72,464.25 736.44,463.49 737.17,462.73 737.89,462.02 738.61,461.39 739.33,460.88 740.06,460.52 740.78,460.30 741.50,460.23 742.22,460.31 742.94,460.53 743.67,460.85 744.39,461.26 745.11,461.73 745.83,462.22 746.55,462.68 747.28,463.08 748.00,463.39 748.72,463.57 749.44,463.61 750.16,463.53 750.89,463.37 751.61,463.16 752.33,462.95 753.05,462.77 753.78,462.65 754.50,462.61 755.22,462.65 755.94,462.79 756.66,463.02 757.39,463.33 758.11,463.71 758.83,464.15 759.55,464.61 760.27,465.07 761.00,465.49 761.72,465.84 762.44,466.09 763.16,466.20 763.88,466.20 764.61,466.11 765.33,465.98 766.05,465.83 766.77,465.67 767.50,465.50 768.22,465.32 768.94,465.12 769.66,464.91 770.38,464.68 771.11,464.44 771.83,464.19 772.55,463.94 773.27,463.70 773.99,463.47 774.72,463.26 775.44,463.08 776.16,462.93 776.88,462.81 777.60,462.72 778.33,462.68 779.05,462.68 779.77,462.72 780.49,462.81 781.22,462.94 781.94,463.10 782.66,463.31 783.38,463.54 784.10,463.79 784.83,464.04 785.55,464.30 786.27,464.55 786.99,464.79 787.71,465.02 788.44,465.25 789.16,465.48 789.88,465.73 790.60,466.01 791.32,466.31 792.05,466.65 792.77,467.02 793.49,467.42 794.21,467.80 794.94,467.66 795.66,467.22 796.38,466.78 797.10,466.34 797.82,465.93 798.55,465.55 799.27,465.21 799.99,464.92 800.71,464.69 801.43,464.53 802.16,464.45 802.88,464.45 803.60,464.54 804.32,464.72 805.04,464.98 805.77,465.31 806.49,465.69 807.21,466.11 807.93,466.52 808.66,466.87 809.38,467.07 810.10,467.05 810.82,466.88 811.54,466.65 812.27,466.44 812.99,466.27 813.71,466.13 814.43,466.02 815.15,465.90 815.88,465.78 816.60,465.62 817.32,465.45 818.04,465.28 818.76,465.11 819.49,464.98 820.21,464.90 820.93,464.89 821.65,464.95 822.38,465.08 823.10,465.28 823.82,465.53 824.54,465.81 825.26,466.09 825.99,466.33 826.71,466.49 827.43,466.53 828.15,466.44 828.87,466.26 829.60,466.03 830.32,465.76 831.04,465.49 831.76,465.22 832.48,464.95 833.21,464.69 833.93,464.43 834.65,464.19 835.37,463.96 836.10,463.76 836.82,463.58 837.54,463.43 838.26,463.31 838.98,463.22 839.71,463.17 840.43,463.16 841.15,463.18 841.87,463.24 842.59,463.34 843.32,463.49 844.04,463.69 844.76,463.95 845.48,464.26 846.20,464.64 846.93,465.09 847.65,465.61 848.37,466.18 849.09,466.81 849.82,467.40 850.54,467.44 851.26,466.80 851.98,466.07 852.70,465.34 853.43,464.64 854.15,464.02 854.87,463.49 855.59,463.07 856.31,462.79 857.04,462.65 857.76,462.66 858.48,462.80 859.20,463.09 859.92,463.48 860.65,463.96 861.37,464.50 862.09,465.07 862.81,465.62 863.54,466.14 864.26,466.59 864.98,466.95 865.70,467.20 866.42,467.37 867.15,467.49 867.87,467.61 868.59,467.72 869.31,467.76 870.03,467.64 870.76,467.44 871.48,467.23 872.20,467.04 872.92,466.89 873.64,466.79 874.37,466.76 875.09,466.78 875.81,466.86 876.53,466.97 877.26,467.08 877.98,467.11 878.70,467.02 879.42,466.79 880.14,466.45 880.87,466.02 881.59,465.55 882.31,465.03 883.03,464.49 883.75,463.93 884.48,463.36 885.20,462.81 885.92,462.28 886.64,461.79 887.36,461.36 888.09,461.00 888.81,460.72 889.53,460.53 890.25,460.43 890.98,460.42 891.70,460.50 892.42,460.68 893.14,460.94 893.86,461.29 894.59,461.71 895.31,462.20 896.03,462.74 896.75,463.34 897.47,463.98 898.20,464.65 898.92,465.32 899.64,465.98 900.36,466.59 901.08,467.06 901.81,467.21 902.53,466.98 903.25,466.61 903.97,466.24 904.70,465.92 905.42,465.65 906.14,465.42 906.86,465.24 907.58,465.09 908.31,464.95 909.03,464.82 909.75,464.70 910.47,464.57 911.19,464.45 911.92,464.34 912.64,464.24 913.36,464.16 914.08,464.11 914.80,464.07 915.53,464.04 916.25,464.02 916.97,463.99 917.69,463.94 918.42,463.87 919.14,463.77 919.86,463.64 920.58,463.50 921.30,463.34 922.03,463.18 922.75,463.02 923.47,462.88 924.19,462.76 924.91,462.67 925.64,462.62 926.36,462.60 927.08,462.62 927.80,462.68 928.52,462.77 929.25,462.91 929.97,463.07 930.69,463.27 931.41,463.49 932.14,463.73 932.86,464.00 933.58,464.27 934.30,464.55 935.02,464.82 935.75,465.06 936.47,465.24 937.19,465.32 937.91,465.27 938.63,465.09 939.36,464.80 940.08,464.44 940.80,464.05 941.52,463.66 942.24,463.29 942.97,462.98 943.69,462.74 944.41,462.57 945.13,462.48 945.86,462.47 946.58,462.54 947.30,462.68 948.02,462.88 948.74,463.12 949.47,463.39 950.19,463.69 950.91,463.99 951.63,464.28 952.35,464.54 953.08,464.76 953.80,464.93 954.52,465.01 955.24,465.02 955.96,464.95 956.69,464.82 957.41,464.65 958.13,464.47 958.85,464.30 959.57,464.17 960.30,464.10 961.02,464.09 961.74,464.15 962.46,464.29 963.19,464.49 963.91,464.74 964.63,465.01 965.35,465.27 966.07,465.46 966.80,465.54 967.52,465.49 968.24,465.32 968.96,465.08 969.68,464.82 970.41,464.58 971.13,464.39 971.85,464.28 972.57,464.26 973.29,464.34 974.02,464.50 974.74,464.75 975.46,465.04 976.18,465.34 976.91,465.58 977.63,465.68 978.35,465.59 979.07,465.31 979.79,464.92 980.52,464.48 981.24,464.06 981.96,463.69 982.68,463.43 983.40,463.28 984.13,463.27 984.85,463.40 985.57,463.66 986.29,464.05 987.01,464.55 987.74,465.14 988.46,465.77 989.18,466.39 989.90,466.88 990.63,466.98 991.35,466.64 992.07,466.13 992.79,465.63 993.51,465.18 994.24,464.81 994.96,464.53 995.68,464.34 996.40,464.25 997.12,464.24 997.85,464.31 998.57,464.45 999.29,464.63 1000.01,464.86 1000.73,465.11 1001.46,465.36 1002.18,465.61 1002.90,465.82 1003.62,465.98 1004.35,466.05 1005.07,466.05 1005.79,465.97 1006.51,465.82 1007.23,465.64 1007.96,465.44 1008.68,465.24 1009.40,465.04 1010.12,464.87 1010.84,464.71 1011.57,464.58 1012.29,464.49 1013.01,464.43 1013.73,464.40 1014.45,464.40 1015.18,464.44 1015.90,464.50 1016.62,464.58 1017.34,464.68 1018.07,464.79 1018.79,464.90 1019.51,465.01 1020.23,465.12 1020.95,465.23 1021.68,465.32 1022.40,465.41 1023.12,465.50 1023.84,465.57 1024.56,465.64 1025.29,465.69 1026.01,465.73 1026.73,465.76 1027.45,465.78 1028.17,465.79 1028.90,465.80 1029.62,465.81 1030.34,465.83 1031.06,465.85 1031.79,465.86 1032.51,465.84 1033.23,465.78 1033.95,465.66 1034.67,465.48 1035.40,465.23 1036.12,464.94 1036.84,464.63 1037.56,464.30 1038.28,464.00 1039.01,463.72 1039.73,463.48 1040.45,463.29 1041.17,463.15 1041.89,463.05 1042.62,462.99 1043.34,462.96 1044.06,462.96 1044.78,462.97 1045.51,463.00 1046.23,463.04 1046.95,463.10 1047.67,463.16 1048.39,463.22 1049.12,463.30 1049.84,463.37 1050.56,463.44 1051.28,463.51 1052.00,463.56 1052.73,463.62 1053.45,463.68 1054.17,463.75 1054.89,463.85 1055.61,463.98 1056.34,464.16 1057.06,464.37 1057.78,464.63 1058.50,464.91 1059.23,465.21 1059.95,465.50 1060.67,465.77 1061.39,466.00 1062.11,466.18 1062.84,466.32 1063.56,466.43 1064.28,466.55 1065.00,466.69 1065.72,466.85 1066.45,467.03 1067.17,467.15 1067.89,467.13 1068.61,466.89 1069.33,466.50 1070.06,466.04 1070.78,465.53 1071.50,465.02 1072.22,464.52 1072.95,464.05 1073.67,463.62 1074.39,463.23 1075.11,462.89 1075.83,462.61 1076.56,462.38 1077.28,462.21 1078.00,462.09"/>
  <line x1="78.61" y1="42.00" x2="78.61" y2="468" stroke="#b45309" stroke-width="1" opacity="0.55"/>
<line x1="67.05" y1="226.43" x2="67.05" y2="468" stroke="#b45309" stroke-width="1" opacity="0.55"/>
<line x1="105.33" y1="290.02" x2="105.33" y2="468" stroke="#b45309" stroke-width="1" opacity="0.55"/>
<line x1="124.10" y1="381.96" x2="124.10" y2="468" stroke="#b45309" stroke-width="1" opacity="0.55"/>
<line x1="215.09" y1="424.99" x2="215.09" y2="468" stroke="#b45309" stroke-width="1" opacity="0.55"/>
<line x1="251.91" y1="426.20" x2="251.91" y2="468" stroke="#b45309" stroke-width="1" opacity="0.55"/>
<line x1="137.82" y1="426.51" x2="137.82" y2="468" stroke="#b45309" stroke-width="1" opacity="0.55"/>
<line x1="193.42" y1="428.46" x2="193.42" y2="468" stroke="#b45309" stroke-width="1" opacity="0.55"/>
<line x1="236.03" y1="438.06" x2="236.03" y2="468" stroke="#b45309" stroke-width="1" opacity="0.55"/>
<line x1="360.23" y1="440.88" x2="360.23" y2="468" stroke="#b45309" stroke-width="1" opacity="0.55"/>
<line x1="292.35" y1="441.97" x2="292.35" y2="468" stroke="#b45309" stroke-width="1" opacity="0.55"/>
<line x1="204.25" y1="442.89" x2="204.25" y2="468" stroke="#b45309" stroke-width="1" opacity="0.55"/>
<line x1="306.07" y1="447.93" x2="306.07" y2="468" stroke="#b45309" stroke-width="1" opacity="0.55"/>
<line x1="156.60" y1="448.25" x2="156.60" y2="468" stroke="#b45309" stroke-width="1" opacity="0.55"/>
<line x1="180.43" y1="449.56" x2="180.43" y2="468" stroke="#b45309" stroke-width="1" opacity="0.55"/>
<line x1="469.99" y1="451.05" x2="469.99" y2="468" stroke="#b45309" stroke-width="1" opacity="0.55"/>
<line x1="333.51" y1="451.67" x2="333.51" y2="468" stroke="#b45309" stroke-width="1" opacity="0.55"/>
<line x1="166.71" y1="452.86" x2="166.71" y2="468" stroke="#b45309" stroke-width="1" opacity="0.55"/>
<line x1="543.64" y1="454.61" x2="543.64" y2="468" stroke="#b45309" stroke-width="1" opacity="0.55"/>
<line x1="519.09" y1="454.76" x2="519.09" y2="468" stroke="#b45309" stroke-width="1" opacity="0.55"/>
<line x1="433.16" y1="454.94" x2="433.16" y2="468" stroke="#b45309" stroke-width="1" opacity="0.55"/>
<line x1="672.90" y1="457.58" x2="672.90" y2="468" stroke="#b45309" stroke-width="1" opacity="0.55"/>
<line x1="620.91" y1="457.82" x2="620.91" y2="468" stroke="#b45309" stroke-width="1" opacity="0.55"/>
<line x1="696.73" y1="458.34" x2="696.73" y2="468" stroke="#b45309" stroke-width="1" opacity="0.55"/>
<line x1="593.47" y1="458.58" x2="593.47" y2="468" stroke="#b45309" stroke-width="1" opacity="0.55"/>
<line x1="386.22" y1="458.86" x2="386.22" y2="468" stroke="#b45309" stroke-width="1" opacity="0.55"/>
<line x1="567.47" y1="459.61" x2="567.47" y2="468" stroke="#b45309" stroke-width="1" opacity="0.55"/>
<line x1="558.81" y1="459.83" x2="558.81" y2="468" stroke="#b45309" stroke-width="1" opacity="0.55"/>
<line x1="398.50" y1="460.10" x2="398.50" y2="468" stroke="#b45309" stroke-width="1" opacity="0.55"/>
<line x1="741.50" y1="460.23" x2="741.50" y2="468" stroke="#b45309" stroke-width="1" opacity="0.55"/>
  <text x="570" y="516" font-size="13" text-anchor="middle" fill="#334155">log-frequency gamma</text>
  <text x="15" y="255" font-size="13" text-anchor="middle" fill="#334155" transform="rotate(-90 15 255)">Hann DFT amplitude</text>
</svg>
