<?xml version="1.0" encoding="UTF-8"?>
<svg xmlns="http://www.w3.org/2000/svg" width="1100" height="520" viewBox="0 0 1100 520">
  <rect width="100%" height="100%" fill="#f8fafc"/>
  <text x="62" y="25" font-size="20" font-family="system-ui, -apple-system, sans-serif" font-weight="700" fill="#0f172a">cramer-twin-avg</text>
  <rect x="62" y="42" width="1016" height="426" fill="#ffffff" stroke="#cbd5e1"/>
  <line x1="62" y1="468" x2="62" y2="473" stroke="#475569"/>
  <text x="62" y="502" font-size="12" text-anchor="middle" fill="#334155">0</text>
  <line x1="146.68088909299092" y1="468" x2="146.68088909299092" y2="473" stroke="#475569"/>
  <text x="146.68088909299092" y="502" font-size="12" text-anchor="middle" fill="#334155">10</text>
  <line x1="231.36177818598185" y1="468" x2="231.36177818598185" y2="473" stroke="#475569"/>
  <text x="231.36177818598185" y="502" font-size="12" text-anchor="middle" fill="#334155">20</text>
  <line x1="316.0426672789728" y1="468" x2="316.0426672789728" y2="473" stroke="#475569"/>
  <text x="316.0426672789728" y="502" font-size="12" text-anchor="middle" fill="#334155">30</text>
  <line x1="400.7235563719637" y1="468" x2="400.7235563719637" y2="473" stroke="#475569"/>
  <text x="400.7235563719637" y="502" font-size="12" text-anchor="middle" fill="#334155">40</text>
  <line x1="485.4044454649547" y1="468" x2="485.4044454649547" y2="473" stroke="#475569"/>
  <text x="485.4044454649547" y="502" font-size="12" text-anchor="middle" fill="#334155">50</text>
  <line x1="570.0853345579455" y1="468" x2="570.0853345579455" y2="473" stroke="#475569"/>
  <text x="570.0853345579455" y="502" font-size="12" text-anchor="middle" fill="#334155">60</text>
  <line x1="654.7662236509365" y1="468" x2="654.7662236509365" y2="473" stroke="#475569"/>
  <text x="654.7662236509365" y="502" font-size="12" text-anchor="middle" fill="#334155">70</text>
  <line x1="739.4471127439274" y1="468" x2="739.4471127439274" y2="473" stroke="#475569"/>
  <text x="739.4471127439274" y="502" font-size="12" text-anchor="middle" fill="#334155">80</text>
  <line x1="824.1280018369184" y1="468" x2="824.1280018369184" y2="473" stroke="#475569"/>
  <text x="824.1280018369184" y="502" font-size="12" text-anchor="middle" fill="#334155">90</text>
  <line x1="908.8088909299094" y1="468" x2="908.8088909299094" y2="473" stroke="#475569"/>
  <text x="908.8088909299094" y="502" font-size="12" text-anchor="middle" fill="#334155">100</text>
  <line x1="993.4897800229003" y1="468" x2="993.4897800229003" y2="473" stroke="#475569"/>
  <text x="993.4897800229003" y="502" font-size="12" text-anchor="middle" fill="#334155">110</text>
  <line x1="57" y1="468" x2="62" y2="468" stroke="#475569"/>
  <text x="52" y="472" font-size="12" text-anchor="end" fill="#334155">0.000</text>
  <line x1="57" y1="361.5" x2="62" y2="361.5" stroke="#475569"/>
  <text x="52" y="365.5" font-size="12" text-anchor="end" fill="#334155">0.079</text>
  <line x1="57" y1="255" x2="62" y2="255" stroke="#475569"/>
  <text x="52" y="259" font-size="12" text-anchor="end" fill="#334155">0.158</text>
  <line x1="57" y1="148.5" x2="62" y2="148.5" stroke="#475569"/>
  <text x="52" y="152.5" font-size="12" text-anchor="end" fill="#334155">0.237</text>
  <line x1="57" y1="42" x2="62" y2="42" stroke="#475569"/>
  <text x="52" y="46" font-size="12" text-anchor="end" fill="#334155">0.316</text>
  <line x1="181.69" y1="42" x2="181.69" y2="468" stroke="#2563eb" stroke-width="1" opacity="0.28"><title>zero 1</title></line>
<line x1="240.02" y1="42" x2="240.02" y2="468" stroke="#2563eb" stroke-width="1" opacity="0.28"><title>zero 2</title></line>
<line x1="273.79" y1="42" x2="273.79" y2="468" stroke="#2563eb" stroke-width="1" opacity="0.28"><title>zero 3</title></line>
<line x1="319.64" y1="42" x2="319.64" y2="468" stroke="#2563eb" stroke-width="1" opacity="0.28"><title>zero 4</title></line>
<line x1="340.90" y1="42" x2="340.90" y2="468" stroke="#2563eb" stroke-width="1" opacity="0.28"><title>zero 5</title></line>
<line x1="380.28" y1="42" x2="380.28" y2="468" stroke="#2563eb" stroke-width="1" opacity="0.28"><title>zero 6</title></line>
<line x1="408.50" y1="42" x2="408.50" y2="468" stroke="#2563eb" stroke-width="1" opacity="0.28"><title>zero 7</title></line>
<line x1="428.90" y1="42" x2="428.90" y2="468" stroke="#2563eb" stroke-width="1" opacity="0.28"><title>zero 8</title></line>
<line x1="468.51" y1="42" x2="468.51" y2="468" stroke="#2563eb" stroke-width="1" opacity="0.28"><title>zero 9</title></line>
<line x1="483.49" y1="42" x2="483.49" y2="468" stroke="#2563eb" stroke-width="1" opacity="0.28"><title>zero 10</title></line>
<line x1="510.56" y1="42" x2="510.56" y2="468" stroke="#2563eb" stroke-width="1" opacity="0.28"><title>zero 11</title></line>
<line x1="539.99" y1="42" x2="539.99" y2="468" stroke="#2563eb" stroke-width="1" opacity="0.28"><title>zero 12</title></line>
<line x1="564.56" y1="42" x2="564.56" y2="468" stroke="#2563eb" stroke-width="1" opacity="0.28"><title>zero 13</title></line>
<line x1="577.13" y1="42" x2="577.13" y2="468" stroke="#2563eb" stroke-width="1" opacity="0.28"><title>zero 14</title></line>
<line x1="613.38" y1="42" x2="613.38" y2="468" stroke="#2563eb" stroke-width="1" opacity="0.28"><title>zero 15</title></line>
<line x1="630.04" y1="42" x2="630.04" y2="468" stroke="#2563eb" stroke-width="1" opacity="0.28"><title>zero 16</title></line>
<line x1="650.92" y1="42" x2="650.92" y2="468" stroke="#2563eb" stroke-width="1" opacity="0.28"><title>zero 17</title></line>
<line x1="672.27" y1="42" x2="672.27" y2="468" stroke="#2563eb" stroke-width="1" opacity="0.28"><title>zero 18</title></line>
<line x1="703.07" y1="42" x2="703.07" y2="468" stroke="#2563eb" stroke-width="1" opacity="0.28"><title>zero 19</title></line>
<line x1="715.27" y1="42" x2="715.27" y2="468" stroke="#2563eb" stroke-width="1" opacity="0.28"><title>zero 20</title></line>
<line x1="733.84" y1="42" x2="733.84" y2="468" stroke="#2563eb" stroke-width="1" opacity="0.28"><title>zero 21</title></line>
<line x1="764.09" y1="42" x2="764.09" y2="468" stroke="#2563eb" stroke-width="1" opacity="0.28"><title>zero 22</title></line>
<line x1="779.55" y1="42" x2="779.55" y2="468" stroke="#2563eb" stroke-width="1" opacity="0.28"><title>zero 23</title></line>
<line x1="802.32" y1="42" x2="802.32" y2="468" stroke="#2563eb" stroke-width="1" opacity="0.28"><title>zero 24</title></line>
<line x1="814.04" y1="42" x2="814.04" y2="468" stroke="#2563eb" stroke-width="1" opacity="0.28"><title>zero 25</title></line>
<line x1="845.23" y1="42" x2="845.23" y2="468" stroke="#2563eb" stroke-width="1" opacity="0.28"><title>zero 26</title></line>
<line x1="863.52" y1="42" x2="863.52" y2="468" stroke="#2563eb" stroke-width="1" opacity="0.28"><title>zero 27</title></line>
<line x1="873.84" y1="42" x2="873.84" y2="468" stroke="#2563eb" stroke-width="1" opacity="0.28"><title>zero 28</title></line>
<line x1="898.91" y1="42" x2="898.91" y2="468" stroke="#2563eb" stroke-width="1" opacity="0.28"><title>zero 29</title></line>
<line x1="919.97" y1="42" x2="919.97" y2="468" stroke="#2563eb" stroke-width="1" opacity="0.28"><title>zero 30</title></line>
<line x1="940.36" y1="42" x2="940.36" y2="468" stroke="#2563eb" stroke-width="1" opacity="0.28"><title>zero 31</title></line>
<line x1="954.93" y1="42" x2="954.93" y2="468" stroke="#2563eb" stroke-width="1" opacity="0.28"><title>zero 32</title></line>
<line x1="969.51" y1="42" x2="969.51" y2="468" stroke="#2563eb" stroke-width="1" opacity="0.28"><title>zero 33</title></line>
<line x1="1002.21" y1="42" x2="1002.21" y2="468" stroke="#2563eb" stroke-width="1" opacity="0.28"><title>zero 34</title></line>
<line x1="1009.36" y1="42" x2="1009.36" y2="468" stroke="#2563eb" stroke-width="1" opacity="0.28"><title>zero 35</title></line>
  <polyline fill="none" stroke="#0f766e" stroke-width="1.4" points="63.44,42.00 64.17,48.61 64.89,58.34 65.61,71.51 66.33,88.43 67.05,109.25 67.78,133.95 68.50,162.26 69.22,193.70 69.94,227.53 70.67,262.79 71.39,298.41 72.11,333.16 72.83,365.81 73.55,395.06 74.28,419.45 75.00,436.67 75.72,442.86 76.44,438.46 77.16,429.72 77.89,419.00 78.61,405.85 79.33,389.52 80.05,369.93 80.77,347.63 81.50,323.58 82.22,298.92 82.94,274.77 83.66,252.22 84.39,232.19 85.11,215.45 85.83,202.57 86.55,193.95 87.27,189.76 88.00,190.03 88.72,194.57 89.44,203.09 90.16,215.14 90.88,230.16 91.61,247.54 92.33,266.57 93.05,286.50 93.77,306.57 94.49,325.93 95.22,343.74 95.94,359.10 96.66,371.13 97.38,379.18 98.11,383.04 98.83,383.16 99.55,380.52 100.27,376.19 100.99,371.08 101.72,365.83 102.44,360.83 103.16,356.31 103.88,352.38 104.60,349.09 105.33,346.44 106.05,344.46 106.77,343.13 107.49,342.47 108.21,342.50 108.94,343.23 109.66,344.68 110.38,346.88 111.10,349.83 111.83,353.52 112.55,357.94 113.27,363.04 113.99,368.79 114.71,375.10 115.44,381.89 116.16,389.03 116.88,396.39 117.60,403.78 118.32,411.02 119.05,417.86 119.77,424.05 120.49,429.33 121.21,433.48 121.93,436.39 122.66,438.08 123.38,438.72 124.10,438.57 124.82,437.84 125.55,436.69 126.27,435.20 126.99,433.47 127.71,431.62 128.43,429.83 129.16,428.33 129.88,427.38 130.60,427.25 131.32,428.14 132.04,430.23 132.77,433.59 133.49,438.21 134.21,444.02 134.93,450.82 135.65,458.32 136.38,465.40 137.10,460.68 137.82,452.77 138.54,445.20 139.27,438.37 139.99,432.53 140.71,427.82 141.43,424.35 142.15,422.10 142.88,420.99 143.60,420.89 144.32,421.59 145.04,422.86 145.76,424.46 146.49,426.16 147.21,427.76 147.93,429.14 148.65,430.21 149.37,430.93 150.10,431.32 150.82,431.43 151.54,431.32 152.26,431.11 152.99,430.92 153.71,430.92 154.43,431.27 155.15,432.15 155.87,433.69 156.60,436.03 157.32,439.22 158.04,443.28 158.76,448.14 159.48,453.65 160.21,459.35 160.93,462.80 161.65,459.00 162.37,452.32 163.09,445.22 163.82,438.22 164.54,431.59 165.26,425.52 165.98,420.17 166.71,415.65 167.43,412.06 168.15,409.46 168.87,407.87 169.59,407.29 170.32,407.68 171.04,408.97 171.76,411.06 172.48,413.82 173.20,417.13 173.93,420.84 174.65,424.80 175.37,428.88 176.09,432.95 176.81,436.89 177.54,440.60 178.26,443.95 178.98,446.82 179.70,449.03 180.43,450.42 181.15,450.90 181.87,450.54 182.59,449.54 183.31,448.18 184.04,446.70 184.76,445.30 185.48,444.12 186.20,443.25 186.92,442.73 187.65,442.61 188.37,442.86 189.09,443.49 189.81,444.45 190.53,445.70 191.26,447.20 191.98,448.87 192.70,450.63 193.42,452.37 194.14,453.96 194.87,455.23 195.59,456.02 196.31,456.25 197.03,455.97 197.76,455.36 198.48,454.64 199.20,453.99 199.92,453.57 200.64,453.46 201.37,453.69 202.09,454.25 202.81,455.07 203.53,456.07 204.25,457.14 204.98,458.18 205.70,459.09 206.42,459.83 207.14,460.41 207.86,460.86 208.59,461.23 209.31,461.49 210.03,461.56 210.75,461.33 211.48,460.74 212.20,459.82 212.92,458.65 213.64,457.37 214.36,456.09 215.09,454.87 215.81,453.77 216.53,452.82 217.25,452.00 217.97,451.30 218.70,450.69 219.42,450.15 220.14,449.66 220.86,449.19 221.58,448.76 222.31,448.35 223.03,448.02 223.75,447.80 224.47,447.75 225.20,447.95 225.92,448.48 226.64,449.40 227.36,450.76 228.08,452.59 228.81,454.88 229.53,457.54 230.25,460.46 230.97,463.30 231.69,464.83 232.42,463.33 233.14,460.61 233.86,457.92 234.58,455.60 235.30,453.79 236.03,452.57 236.75,451.98 237.47,452.00 238.19,452.57 238.92,453.58 239.64,454.94 240.36,456.49 241.08,458.10 241.80,459.61 242.53,460.85 243.25,461.63 243.97,461.78 244.69,461.26 245.41,460.16 246.14,458.65 246.86,456.85 247.58,454.86 248.30,452.76 249.02,450.63 249.75,448.54 250.47,446.57 251.19,444.77 251.91,443.19 252.64,441.83 253.36,440.72 254.08,439.85 254.80,439.20 255.52,438.75 256.25,438.47 256.97,438.33 257.69,438.31 258.41,438.38 259.13,438.53 259.86,438.76 260.58,439.07 261.30,439.47 262.02,439.97 262.74,440.58 263.47,441.33 264.19,442.22 264.91,443.25 265.63,444.45 266.36,445.79 267.08,447.27 267.80,448.88 268.52,450.59 269.24,452.38 269.97,454.20 270.69,456.04 271.41,457.85 272.13,459.61 272.85,461.28 273.58,462.84 274.30,464.24 275.02,465.41 275.74,466.18 276.46,466.31 277.19,465.95 277.91,465.49 278.63,465.13 279.35,464.95 280.08,465.00 280.80,465.29 281.52,465.82 282.24,466.59 282.96,467.56 283.69,467.29 284.41,466.03 285.13,464.71 285.85,463.41 286.57,462.19 287.30,461.14 288.02,460.30 288.74,459.75 289.46,459.51 290.18,459.61 290.91,460.05 291.63,460.79 292.35,461.76 293.07,462.84 293.80,463.81 294.52,464.30 295.24,464.01 295.96,463.10 296.68,461.96 297.41,460.85 298.13,459.91 298.85,459.23 299.57,458.83 300.29,458.74 301.02,458.92 301.74,459.34 302.46,459.96 303.18,460.70 303.90,461.50 304.63,462.29 305.35,463.01 306.07,463.57 306.79,463.93 307.52,464.01 308.24,463.81 308.96,463.37 309.68,462.77 310.40,462.10 311.13,461.43 311.85,460.82 312.57,460.31 313.29,459.93 314.01,459.66 314.74,459.44 315.46,459.18 316.18,458.75 316.90,458.04 317.62,456.98 318.35,455.58 319.07,453.91 319.79,452.06 320.51,450.14 321.24,448.23 321.96,446.42 322.68,444.77 323.40,443.30 324.12,442.06 324.85,441.05 325.57,440.27 326.29,439.71 327.01,439.37 327.73,439.22 328.46,439.25 329.18,439.43 329.90,439.75 330.62,440.17 331.34,440.68 332.07,441.24 332.79,441.84 333.51,442.45 334.23,443.07 334.96,443.70 335.68,444.32 336.40,444.96 337.12,445.61 337.84,446.30 338.57,447.03 339.29,447.81 340.01,448.62 340.73,449.45 341.45,450.27 342.18,451.03 342.90,451.66 343.62,452.11 344.34,452.30 345.06,452.20 345.79,451.80 346.51,451.15 347.23,450.32 347.95,449.41 348.68,448.51 349.40,447.72 350.12,447.10 350.84,446.72 351.56,446.64 352.29,446.87 353.01,447.44 353.73,448.33 354.45,449.55 355.17,451.06 355.90,452.82 356.62,454.80 357.34,456.96 358.06,459.22 358.78,461.54 359.51,463.80 360.23,465.72 360.95,465.98 361.67,464.38 362.40,462.50 363.12,460.72 363.84,459.15 364.56,457.83 365.28,456.79 366.01,456.05 366.73,455.63 367.45,455.51 368.17,455.69 368.89,456.14 369.62,456.82 370.34,457.71 371.06,458.75 371.78,459.91 372.50,461.16 373.23,462.45 373.95,463.76 374.67,465.07 375.39,466.32 376.12,467.23 376.84,466.65 377.56,465.50 378.28,464.32 379.00,463.19 379.73,462.14 380.45,461.20 381.17,460.42 381.89,459.80 382.61,459.37 383.34,459.15 384.06,459.12 384.78,459.29 385.50,459.61 386.22,460.05 386.95,460.56 387.67,461.08 388.39,461.55 389.11,461.93 389.84,462.21 390.56,462.41 391.28,462.58 392.00,462.78 392.72,463.04 393.45,463.43 394.17,463.93 394.89,464.54 395.61,465.21 396.33,465.82 397.06,466.15 397.78,465.94 398.50,465.34 399.22,464.58 399.94,463.84 400.67,463.17 401.39,462.64 402.11,462.27 402.83,462.07 403.56,462.04 404.28,462.17 405.00,462.45 405.72,462.85 406.44,463.33 407.17,463.84 407.89,464.31 408.61,464.66 409.33,464.83 410.05,464.78 410.78,464.59 411.50,464.34 412.22,464.13 412.94,464.01 413.66,464.04 414.39,464.20 415.11,464.47 415.83,464.71 416.55,464.68 417.28,464.16 418.00,463.10 418.72,461.64 419.44,459.94 420.16,458.12 420.89,456.27 421.61,454.49 422.33,452.87 423.05,451.47 423.77,450.37 424.50,449.60 425.22,449.21 425.94,449.21 426.66,449.60 427.38,450.36 428.11,451.45 428.83,452.82 429.55,454.41 430.27,456.14 431.00,457.94 431.72,459.71 432.44,461.38 433.16,462.86 433.88,464.06 434.61,464.90 435.33,465.35 436.05,465.46 436.77,465.39 437.49,465.22 438.22,464.95 438.94,464.53 439.66,463.92 440.38,463.11 441.10,462.13 441.83,461.06 442.55,459.94 443.27,458.86 443.99,457.85 444.71,456.99 445.44,456.31 446.16,455.86 446.88,455.66 447.60,455.73 448.33,456.07 449.05,456.68 449.77,457.52 450.49,458.56 451.21,459.73 451.94,460.96 452.66,462.16 453.38,463.19 454.10,463.91 454.82,464.22 455.55,464.16 456.27,463.89 456.99,463.57 457.71,463.30 458.43,463.07 459.16,462.85 459.88,462.56 460.60,462.11 461.32,461.46 462.05,460.62 462.77,459.64 463.49,458.59 464.21,457.54 464.93,456.54 465.66,455.64 466.38,454.87 467.10,454.25 467.82,453.81 468.54,453.54 469.27,453.45 469.99,453.54 470.71,453.82 471.43,454.28 472.15,454.91 472.88,455.73 473.60,456.72 474.32,457.86 475.04,459.13 475.77,460.51 476.49,461.96 477.21,463.43 477.93,464.87 478.65,466.22 479.38,467.26 480.10,467.00 480.82,466.16 481.54,465.46 482.26,464.95 482.99,464.67 483.71,464.58 484.43,464.64 485.15,464.76 485.87,464.81 486.60,464.63 487.32,464.14 488.04,463.38 488.76,462.43 489.49,461.41 490.21,460.39 490.93,459.44 491.65,458.61 492.37,457.95 493.10,457.48 493.82,457.22 494.54,457.16 495.26,457.29 495.98,457.58 496.71,458.00 497.43,458.50 498.15,459.01 498.87,459.49 499.59,459.88 500.32,460.15 501.04,460.30 501.76,460.35 502.48,460.34 503.21,460.32 503.93,460.33 504.65,460.41 505.37,460.57 506.09,460.81 506.82,461.14 507.54,461.52 508.26,461.94 508.98,462.38 509.70,462.81 510.43,463.20 511.15,463.56 511.87,463.88 512.59,464.17 513.31,464.45 514.04,464.73 514.76,465.04 515.48,465.38 516.20,465.75 516.93,466.14 517.65,466.52 518.37,466.80 519.09,466.83 519.81,466.58 520.54,466.15 521.26,465.66 521.98,465.16 522.70,464.70 523.42,464.31 524.15,464.00 524.87,463.80 525.59,463.74 526.31,463.82 527.03,464.05 527.76,464.46 528.48,465.03 529.20,465.76 529.92,466.64 530.65,467.60 531.37,467.13 532.09,465.94 532.81,464.70 533.53,463.45 534.26,462.26 534.98,461.15 535.70,460.16 536.42,459.35 537.14,458.72 537.87,458.31 538.59,458.12 539.31,458.14 540.03,458.38 540.75,458.82 541.48,459.43 542.20,460.19 542.92,461.07 543.64,462.05 544.37,463.08 545.09,464.13 545.81,465.13 546.53,465.94 547.25,466.30 547.98,465.99 548.70,465.33 549.42,464.62 550.14,464.00 550.86,463.53 551.59,463.28 552.31,463.25 553.03,463.47 553.75,463.94 554.47,464.64 555.20,465.55 555.92,466.61 556.64,467.39 557.36,466.49 558.09,465.15 558.81,463.77 559.53,462.44 560.25,461.20 560.97,460.09 561.70,459.13 562.42,458.35 563.14,457.75 563.86,457.34 564.58,457.10 565.31,457.02 566.03,457.09 566.75,457.30 567.47,457.63 568.19,458.08 568.92,458.63 569.64,459.27 570.36,460.00 571.08,460.80 571.81,461.68 572.53,462.59 573.25,463.55 573.97,464.50 574.69,465.45 575.42,466.34 576.14,467.16 576.86,467.80 577.58,467.48 578.30,467.04 579.03,466.74 579.75,466.58 580.47,466.50 581.19,466.41 581.91,466.17 582.64,465.70 583.36,465.01 584.08,464.18 584.80,463.28 585.53,462.37 586.25,461.52 586.97,460.78 587.69,460.21 588.41,459.85 589.14,459.71 589.86,459.81 590.58,460.15 591.30,460.71 592.02,461.46 592.75,462.36 593.47,463.36 594.19,464.40 594.91,465.44 595.63,466.40 596.36,467.25 597.08,467.93 597.80,467.57 598.52,467.27 599.25,467.19 599.97,467.29 600.69,467.57 601.41,467.87 602.13,467.45 602.86,466.88 603.58,466.30 604.30,465.75 605.02,465.26 605.74,464.86 606.47,464.55 607.19,464.34 607.91,464.19 608.63,464.08 609.35,463.95 610.08,463.78 610.80,463.54 611.52,463.24 612.24,462.91 612.97,462.57 613.69,462.26 614.41,462.02 615.13,461.86 615.85,461.80 616.58,461.84 617.30,461.96 618.02,462.17 618.74,462.44 619.46,462.75 620.19,463.07 620.91,463.40 621.63,463.72 622.35,464.01 623.07,464.27 623.80,464.50 624.52,464.69 625.24,464.85 625.96,464.97 626.69,465.05 627.41,465.09 628.13,465.09 628.85,465.05 629.57,464.96 630.30,464.83 631.02,464.66 631.74,464.45 632.46,464.19 633.18,463.88 633.91,463.53 634.63,463.15 635.35,462.73 636.07,462.29 636.79,461.83 637.52,461.36 638.24,460.89 638.96,460.41 639.68,459.94 640.41,459.47 641.13,459.01 641.85,458.56 642.57,458.13 643.29,457.71 644.02,457.32 644.74,456.97 645.46,456.66 646.18,456.41 646.90,456.24 647.63,456.13 648.35,456.12 649.07,456.18 649.79,456.34 650.51,456.57 651.24,456.88 651.96,457.25 652.68,457.68 653.40,458.15 654.13,458.66 654.85,459.20 655.57,459.76 656.29,460.34 657.01,460.94 657.74,461.56 658.46,462.19 659.18,462.84 659.90,463.48 660.62,464.12 661.35,464.74 662.07,465.31 662.79,465.81 663.51,466.16 664.23,466.30 664.96,466.21 665.68,465.95 666.40,465.61 667.12,465.27 667.85,464.96 668.57,464.72 669.29,464.55 670.01,464.46 670.73,464.47 671.46,464.56 672.18,464.72 672.90,464.95 673.62,465.23 674.34,465.52 675.07,465.81 675.79,466.07 676.51,466.28 677.23,466.45 677.95,466.58 678.68,466.70 679.40,466.82 680.12,466.93 680.84,466.99 681.57,466.92 682.29,466.66 683.01,466.25 683.73,465.76 684.45,465.24 685.18,464.72 685.90,464.24 686.62,463.83 687.34,463.50 688.06,463.28 688.79,463.16 689.51,463.14 690.23,463.22 690.95,463.39 691.67,463.62 692.40,463.90 693.12,464.20 693.84,464.52 694.56,464.85 695.29,465.19 696.01,465.54 696.73,465.91 697.45,466.28 698.17,466.65 698.90,466.98 699.62,467.16 700.34,467.08 701.06,466.81 701.78,466.46 702.51,466.10 703.23,465.77 703.95,465.48 704.67,465.22 705.39,464.98 706.12,464.75 706.84,464.51 707.56,464.24 708.28,463.94 709.00,463.60 709.73,463.24 710.45,462.87 711.17,462.52 711.89,462.21 712.62,461.96 713.34,461.79 714.06,461.71 714.78,461.72 715.50,461.85 716.23,462.07 716.95,462.40 717.67,462.81 718.39,463.31 719.11,463.86 719.84,464.46 720.56,465.07 721.28,465.68 722.00,466.27 722.72,466.81 723.45,467.29 724.17,467.68 724.89,467.93 725.61,467.78 726.34,467.67 727.06,467.63 727.78,467.62 728.50,467.56 729.22,467.39 729.95,467.14 730.67,466.83 731.39,466.51 732.11,466.21 732.83,465.93 733.56,465.71 734.28,465.56 735.00,465.48 735.72,465.48 736.44,465.56 737.17,465.71 737.89,465.93 738.61,466.19 739.33,466.47 740.06,466.75 740.78,466.95 741.50,467.01 742.22,466.90 742.94,466.66 743.67,466.38 744.39,466.08 745.11,465.80 745.83,465.54 746.55,465.32 747.28,465.14 748.00,465.02 748.72,464.95 749.44,464.94 750.16,464.99 750.89,465.12 751.61,465.31 752.33,465.58 753.05,465.91 753.78,466.30 754.50,466.73 755.22,467.16 755.94,467.46 756.66,467.33 757.39,466.93 758.11,466.48 758.83,466.06 759.55,465.70 760.27,465.40 761.00,465.20 761.72,465.09 762.44,465.08 763.16,465.15 763.88,465.32 764.61,465.55 765.33,465.84 766.05,466.15 766.77,466.45 767.50,466.70 768.22,466.83 768.94,466.84 769.66,466.76 770.38,466.63 771.11,466.52 771.83,466.45 772.55,466.44 773.27,466.50 773.99,466.62 774.72,466.80 775.44,467.02 776.16,467.28 776.88,467.55 777.60,467.71 778.33,467.58 779.05,467.29 779.77,466.97 780.49,466.64 781.22,466.31 781.94,465.97 782.66,465.63 783.38,465.27 784.10,464.92 784.83,464.55 785.55,464.20 786.27,463.86 786.99,463.55 787.71,463.29 788.44,463.09 789.16,462.96 789.88,462.92 790.60,462.97 791.32,463.12 792.05,463.38 792.77,463.74 793.49,464.18 794.21,464.71 794.94,465.30 795.66,465.93 796.38,466.56 797.10,467.15 797.82,467.48 798.55,467.21 799.27,466.74 799.99,466.30 800.71,465.92 801.43,465.64 802.16,465.45 802.88,465.36 803.60,465.36 804.32,465.45 805.04,465.61 805.77,465.82 806.49,466.08 807.21,466.36 807.93,466.65 808.66,466.92 809.38,467.15 810.10,467.31 810.82,467.42 811.54,467.47 812.27,467.51 812.99,467.58 813.71,467.70 814.43,467.85 815.15,467.81 815.88,467.53 816.60,467.18 817.32,466.79 818.04,466.37 818.76,465.93 819.49,465.49 820.21,465.06 820.93,464.66 821.65,464.29 822.38,463.96 823.10,463.69 823.82,463.46 824.54,463.30 825.26,463.18 825.99,463.13 826.71,463.13 827.43,463.19 828.15,463.29 828.87,463.44 829.60,463.63 830.32,463.84 831.04,464.06 831.76,464.27 832.48,464.45 833.21,464.59 833.93,464.68 834.65,464.71 835.37,464.71 836.10,464.68 836.82,464.65 837.54,464.64 838.26,464.67 838.98,464.75 839.71,464.89 840.43,465.10 841.15,465.36 841.87,465.68 842.59,466.02 843.32,466.36 844.04,466.62 844.76,466.70 845.48,466.53 846.20,466.16 846.93,465.67 847.65,465.13 848.37,464.57 849.09,464.02 849.82,463.48 850.54,462.99 851.26,462.54 851.98,462.16 852.70,461.85 853.43,461.63 854.15,461.50 854.87,461.47 855.59,461.53 856.31,461.70 857.04,461.96 857.76,462.31 858.48,462.72 859.20,463.18 859.92,463.67 860.65,464.15 861.37,464.61 862.09,465.03 862.81,465.39 863.54,465.68 864.26,465.91 864.98,466.09 865.70,466.26 866.42,466.41 867.15,466.56 867.87,466.68 868.59,466.77 869.31,466.79 870.03,466.74 870.76,466.65 871.48,466.55 872.20,466.47 872.92,466.41 873.64,466.40 874.37,466.43 875.09,466.46 875.81,466.46 876.53,466.39 877.26,466.23 877.98,465.97 878.70,465.65 879.42,465.31 880.14,464.98 880.87,464.68 881.59,464.44 882.31,464.27 883.03,464.19 883.75,464.21 884.48,464.31 885.20,464.49 885.92,464.75 886.64,465.07 887.36,465.43 888.09,465.80 888.81,466.13 889.53,466.38 890.25,466.48 890.98,466.38 891.70,466.12 892.42,465.77 893.14,465.37 893.86,464.96 894.59,464.55 895.31,464.15 896.03,463.78 896.75,463.45 897.47,463.15 898.20,462.91 898.92,462.73 899.64,462.60 900.36,462.54 901.08,462.55 901.81,462.62 902.53,462.73 903.25,462.89 903.97,463.08 904.70,463.27 905.42,463.45 906.14,463.61 906.86,463.73 907.58,463.80 908.31,463.82 909.03,463.80 909.75,463.74 910.47,463.67 911.19,463.58 911.92,463.50 912.64,463.43 913.36,463.38 914.08,463.37 914.80,463.39 915.53,463.45 916.25,463.57 916.97,463.75 917.69,464.00 918.42,464.32 919.14,464.70 919.86,465.14 920.58,465.62 921.30,466.13 922.03,466.60 922.75,466.93 923.47,466.96 924.19,466.70 924.91,466.31 925.64,465.92 926.36,465.59 927.08,465.34 927.80,465.19 928.52,465.15 929.25,465.22 929.97,465.39 930.69,465.66 931.41,466.01 932.14,466.42 932.86,466.88 933.58,467.37 934.30,467.88 935.02,467.60 935.75,467.11 936.47,466.64 937.19,466.21 937.91,465.83 938.63,465.50 939.36,465.24 940.08,465.04 940.80,464.92 941.52,464.88 942.24,464.93 942.97,465.06 943.69,465.26 944.41,465.54 945.13,465.88 945.86,466.27 946.58,466.68 947.30,467.09 948.02,467.44 948.74,467.56 949.47,467.37 950.19,467.11 950.91,466.88 951.63,466.71 952.35,466.60 953.08,466.55 953.80,466.54 954.52,466.55 955.24,466.56 955.96,466.52 956.69,466.43 957.41,466.28 958.13,466.07 958.85,465.84 959.57,465.60 960.30,465.34 961.02,465.09 961.74,464.83 962.46,464.58 963.19,464.33 963.91,464.09 964.63,463.86 965.35,463.66 966.07,463.50 966.80,463.39 967.52,463.33 968.24,463.33 968.96,463.40 969.68,463.53 970.41,463.71 971.13,463.94 971.85,464.21 972.57,464.49 973.29,464.79 974.02,465.08 974.74,465.36 975.46,465.61 976.18,465.83 976.91,466.02 977.63,466.17 978.35,466.27 979.07,466.33 979.79,466.32 980.52,466.26 981.24,466.15 981.96,465.99 982.68,465.80 983.40,465.59 984.13,465.38 984.85,465.19 985.57,465.03 986.29,464.91 987.01,464.84 987.74,464.84 988.46,464.89 989.18,465.00 989.90,465.18 990.63,465.40 991.35,465.65 992.07,465.94 992.79,466.23 993.51,466.53 994.24,466.80 994.96,467.05 995.68,467.25 996.40,467.41 997.12,467.50 997.85,467.54 998.57,467.52 999.29,467.47 1000.01,467.39 1000.73,467.27 1001.46,467.12 1002.18,466.94 1002.90,466.73 1003.62,466.48 1004.35,466.20 1005.07,465.88 1005.79,465.55 1006.51,465.20 1007.23,464.85 1007.96,464.52 1008.68,464.22 1009.40,463.97 1010.12,463.79 1010.84,463.69 1011.57,463.68 1012.29,463.76 1013.01,463.94 1013.73,464.20 1014.45,464.52 1015.18,464.89 1015.90,465.26 1016.62,465.58 1017.34,465.80 1018.07,465.89 1018.79,465.84 1019.51,465.70 1020.23,465.54 1020.95,465.41 1021.68,465.34 1022.40,465.36 1023.12,465.45 1023.84,465.63 1024.56,465.86 1025.29,466.12 1026.01,466.35 1026.73,466.47 1027.45,466.44 1028.17,466.23 1028.90,465.92 1029.62,465.55 1030.34,465.17 1031.06,464.80 1031.79,464.44 1032.51,464.11 1033.23,463.80 1033.95,463.52 1034.67,463.26 1035.40,463.05 1036.12,462.88 1036.84,462.76 1037.56,462.69 1038.28,462.70 1039.01,462.77 1039.73,462.92 1040.45,463.14 1041.17,463.42 1041.89,463.75 1042.62,464.12 1043.34,464.51 1044.06,464.89 1044.78,465.23 1045.51,465.52 1046.23,465.73 1046.95,465.85 1047.67,465.88 1048.39,465.83 1049.12,465.75 1049.84,465.65 1050.56,465.55 1051.28,465.47 1052.00,465.41 1052.73,465.39 1053.45,465.39 1054.17,465.43 1054.89,465.48 1055.61,465.55 1056.34,465.61 1057.06,465.64 1057.78,465.64 1058.50,465.60 1059.23,465.50 1059.95,465.38 1060.67,465.24 1061.39,465.10 1062.11,464.98 1062.84,464.88 1063.56,464.80 1064.28,464.74 1065.00,464.68 1065.72,464.63 1066.45,464.56 1067.17,464.47 1067.89,464.37 1068.61,464.26 1069.33,464.14 1070.06,464.04 1070.78,463.95 1071.50,463.90 1072.22,463.89 1072.95,463.91 1073.67,463.96 1074.39,464.04 1075.11,464.14 1075.83,464.26 1076.56,464.39 1077.28,464.52 1078.00,464.65"/>
  <line x1="87.27" y1="189.76" x2="87.27" y2="468" stroke="#b45309" stroke-width="1" opacity="0.55"/>
<line x1="107.49" y1="342.47" x2="107.49" y2="468" stroke="#b45309" stroke-width="1" opacity="0.55"/>
<line x1="169.59" y1="407.29" x2="169.59" y2="468" stroke="#b45309" stroke-width="1" opacity="0.55"/>
<line x1="143.60" y1="420.89" x2="143.60" y2="468" stroke="#b45309" stroke-width="1" opacity="0.55"/>
<line x1="130.60" y1="427.25" x2="130.60" y2="468" stroke="#b45309" stroke-width="1" opacity="0.55"/>
<line x1="153.71" y1="430.92" x2="153.71" y2="468" stroke="#b45309" stroke-width="1" opacity="0.55"/>
<line x1="257.69" y1="438.31" x2="257.69" y2="468" stroke="#b45309" stroke-width="1" opacity="0.55"/>
<line x1="327.73" y1="439.22" x2="327.73" y2="468" stroke="#b45309" stroke-width="1" opacity="0.55"/>
<line x1="187.65" y1="442.61" x2="187.65" y2="468" stroke="#b45309" stroke-width="1" opacity="0.55"/>
<line x1="351.56" y1="446.64" x2="351.56" y2="468" stroke="#b45309" stroke-width="1" opacity="0.55"/>
<line x1="224.47" y1="447.75" x2="224.47" y2="468" stroke="#b45309" stroke-width="1" opacity="0.55"/>
<line x1="425.94" y1="449.21" x2="425.94" y2="468" stroke="#b45309" stroke-width="1" opacity="0.55"/>
<line x1="236.75" y1="451.98" x2="236.75" y2="468" stroke="#b45309" stroke-width="1" opacity="0.55"/>
<line x1="469.27" y1="453.45" x2="469.27" y2="468" stroke="#b45309" stroke-width="1" opacity="0.55"/>
<line x1="200.64" y1="453.46" x2="200.64" y2="468" stroke="#b45309" stroke-width="1" opacity="0.55"/>
<line x1="367.45" y1="455.51" x2="367.45" y2="468" stroke="#b45309" stroke-width="1" opacity="0.55"/>
<line x1="446.88" y1="455.66" x2="446.88" y2="468" stroke="#b45309" stroke-width="1" opacity="0.55"/>
<line x1="648.35" y1="456.12" x2="648.35" y2="468" stroke="#b45309" stroke-width="1" opacity="0.55"/>
<line x1="565.31" y1="457.02" x2="565.31" y2="468" stroke="#b45309" stroke-width="1" opacity="0.55"/>
<line x1="494.54" y1="457.16" x2="494.54" y2="468" stroke="#b45309" stroke-width="1" opacity="0.55"/>
<line x1="538.59" y1="458.12" x2="538.59" y2="468" stroke="#b45309" stroke-width="1" opacity="0.55"/>
<line x1="300.29" y1="458.74" x2="300.29" y2="468" stroke="#b45309" stroke-width="1" opacity="0.55"/>
<line x1="384.06" y1="459.12" x2="384.06" y2="468" stroke="#b45309" stroke-width="1" opacity="0.55"/>
<line x1="289.46" y1="459.51" x2="289.46" y2="468" stroke="#b45309" stroke-width="1" opacity="0.55"/>
<line x1="589.14" y1="459.71" x2="589.14" y2="468" stroke="#b45309" stroke-width="1" opacity="0.55"/>
<line x1="503.21" y1="460.32" x2="503.21" y2="468" stroke="#b45309" stroke-width="1" opacity="0.55"/>
<line x1="854.87" y1="461.47" x2="854.87" y2="468" stroke="#b45309" stroke-width="1" opacity="0.55"/>
<line x1="714.06" y1="461.71" x2="714.06" y2="468" stroke="#b45309" stroke-width="1" opacity="0.55"/>
<line x1="615.85" y1="461.80" x2="615.85" y2="468" stroke="#b45309" stroke-width="1" opacity="0.55"/>
<line x1="403.56" y1="462.04" x2="403.56" y2="468" stroke="#b45309" stroke-width="1" opacity="0.55"/>
  <text x="570" y="516" font-size="13" text-anchor="middle" fill="#334155">log-frequency gamma</text>
  <text x="15" y="255" font-size="13" text-anchor="middle" fill="#334155" transform="rotate(-90 15 255)">Hann DFT amplitude</text>
</svg>
