<?xml version="1.0" encoding="UTF-8"?>
<svg xmlns="http://www.w3.org/2000/svg" width="1100" height="520" viewBox="0 0 1100 520">
  <rect width="100%" height="100%" fill="#f8fafc"/>
  <text x="62" y="25" font-size="20" font-family="system-ui, -apple-system, sans-serif" font-weight="700" fill="#0f172a">n2plus1-full</text>
  <rect x="62" y="42" width="1016" height="426" fill="#ffffff" stroke="#cbd5e1"/>
  <line x1="62" y1="468" x2="62" y2="473" stroke="#475569"/>
  <text x="62" y="502" font-size="12" text-anchor="middle" fill="#334155">0</text>
  <line x1="146.66666666666666" y1="468" x2="146.66666666666666" y2="473" stroke="#475569"/>
  <text x="146.66666666666666" y="502" font-size="12" text-anchor="middle" fill="#334155">10</text>
  <line x1="231.33333333333331" y1="468" x2="231.33333333333331" y2="473" stroke="#475569"/>
  <text x="231.33333333333331" y="502" font-size="12" text-anchor="middle" fill="#334155">20</text>
  <line x1="316" y1="468" x2="316" y2="473" stroke="#475569"/>
  <text x="316" y="502" font-size="12" text-anchor="middle" fill="#334155">30</text>
  <line x1="400.66666666666663" y1="468" x2="400.66666666666663" y2="473" stroke="#475569"/>
  <text x="400.66666666666663" y="502" font-size="12" text-anchor="middle" fill="#334155">40</text>
  <line x1="485.33333333333337" y1="468" x2="485.33333333333337" y2="473" stroke="#475569"/>
  <text x="485.33333333333337" y="502" font-size="12" text-anchor="middle" fill="#334155">50</text>
  <line x1="570" y1="468" x2="570" y2="473" stroke="#475569"/>
  <text x="570" y="502" font-size="12" text-anchor="middle" fill="#334155">60</text>
  <line x1="654.6666666666667" y1="468" x2="654.6666666666667" y2="473" stroke="#475569"/>
  <text x="654.6666666666667" y="502" font-size="12" text-anchor="middle" fill="#334155">70</text>
  <line x1="739.3333333333333" y1="468" x2="739.3333333333333" y2="473" stroke="#475569"/>
  <text x="739.3333333333333" y="502" font-size="12" text-anchor="middle" fill="#334155">80</text>
  <line x1="824" y1="468" x2="824" y2="473" stroke="#475569"/>
  <text x="824" y="502" font-size="12" text-anchor="middle" fill="#334155">90</text>
  <line x1="908.6666666666667" y1="468" x2="908.6666666666667" y2="473" stroke="#475569"/>
  <text x="908.6666666666667" y="502" font-size="12" text-anchor="middle" fill="#334155">100</text>
  <line x1="993.3333333333333" y1="468" x2="993.3333333333333" y2="473" stroke="#475569"/>
  <text x="993.3333333333333" y="502" font-size="12" text-anchor="middle" fill="#334155">110</text>
  <line x1="1078" y1="468" x2="1078" y2="473" stroke="#475569"/>
  <text x="1078" y="502" font-size="12" text-anchor="middle" fill="#334155">120</text>
  <line x1="57" y1="468" x2="62" y2="468" stroke="#475569"/>
  <text x="52" y="472" font-size="12" text-anchor="end" fill="#334155">0.000</text>
  <line x1="57" y1="361.5" x2="62" y2="361.5" stroke="#475569"/>
  <text x="52" y="365.5" font-size="12" text-anchor="end" fill="#334155">0.472</text>
  <line x1="57" y1="255" x2="62" y2="255" stroke="#475569"/>
  <text x="52" y="259" font-size="12" text-anchor="end" fill="#334155">0.944</text>
  <line x1="57" y1="148.50000000000006" x2="62" y2="148.50000000000006" stroke="#475569"/>
  <text x="52" y="152.50000000000006" font-size="12" text-anchor="end" fill="#334155">1.416</text>
  <line x1="57" y1="42" x2="62" y2="42" stroke="#475569"/>
  <text x="52" y="46" font-size="12" text-anchor="end" fill="#334155">1.889</text>
  <line x1="181.67" y1="42" x2="181.67" y2="468" stroke="#2563eb" stroke-width="1" opacity="0.28"><title>zero 1</title></line>
<line x1="239.99" y1="42" x2="239.99" y2="468" stroke="#2563eb" stroke-width="1" opacity="0.28"><title>zero 2</title></line>
<line x1="273.76" y1="42" x2="273.76" y2="468" stroke="#2563eb" stroke-width="1" opacity="0.28"><title>zero 3</title></line>
<line x1="319.60" y1="42" x2="319.60" y2="468" stroke="#2563eb" stroke-width="1" opacity="0.28"><title>zero 4</title></line>
<line x1="340.85" y1="42" x2="340.85" y2="468" stroke="#2563eb" stroke-width="1" opacity="0.28"><title>zero 5</title></line>
<line x1="380.23" y1="42" x2="380.23" y2="468" stroke="#2563eb" stroke-width="1" opacity="0.28"><title>zero 6</title></line>
<line x1="408.45" y1="42" x2="408.45" y2="468" stroke="#2563eb" stroke-width="1" opacity="0.28"><title>zero 7</title></line>
<line x1="428.84" y1="42" x2="428.84" y2="468" stroke="#2563eb" stroke-width="1" opacity="0.28"><title>zero 8</title></line>
<line x1="468.44" y1="42" x2="468.44" y2="468" stroke="#2563eb" stroke-width="1" opacity="0.28"><title>zero 9</title></line>
<line x1="483.42" y1="42" x2="483.42" y2="468" stroke="#2563eb" stroke-width="1" opacity="0.28"><title>zero 10</title></line>
<line x1="510.48" y1="42" x2="510.48" y2="468" stroke="#2563eb" stroke-width="1" opacity="0.28"><title>zero 11</title></line>
<line x1="539.91" y1="42" x2="539.91" y2="468" stroke="#2563eb" stroke-width="1" opacity="0.28"><title>zero 12</title></line>
<line x1="564.47" y1="42" x2="564.47" y2="468" stroke="#2563eb" stroke-width="1" opacity="0.28"><title>zero 13</title></line>
<line x1="577.04" y1="42" x2="577.04" y2="468" stroke="#2563eb" stroke-width="1" opacity="0.28"><title>zero 14</title></line>
<line x1="613.29" y1="42" x2="613.29" y2="468" stroke="#2563eb" stroke-width="1" opacity="0.28"><title>zero 15</title></line>
<line x1="629.94" y1="42" x2="629.94" y2="468" stroke="#2563eb" stroke-width="1" opacity="0.28"><title>zero 16</title></line>
<line x1="650.83" y1="42" x2="650.83" y2="468" stroke="#2563eb" stroke-width="1" opacity="0.28"><title>zero 17</title></line>
<line x1="672.17" y1="42" x2="672.17" y2="468" stroke="#2563eb" stroke-width="1" opacity="0.28"><title>zero 18</title></line>
<line x1="702.97" y1="42" x2="702.97" y2="468" stroke="#2563eb" stroke-width="1" opacity="0.28"><title>zero 19</title></line>
<line x1="715.16" y1="42" x2="715.16" y2="468" stroke="#2563eb" stroke-width="1" opacity="0.28"><title>zero 20</title></line>
<line x1="733.72" y1="42" x2="733.72" y2="468" stroke="#2563eb" stroke-width="1" opacity="0.28"><title>zero 21</title></line>
<line x1="763.97" y1="42" x2="763.97" y2="468" stroke="#2563eb" stroke-width="1" opacity="0.28"><title>zero 22</title></line>
<line x1="779.43" y1="42" x2="779.43" y2="468" stroke="#2563eb" stroke-width="1" opacity="0.28"><title>zero 23</title></line>
<line x1="802.20" y1="42" x2="802.20" y2="468" stroke="#2563eb" stroke-width="1" opacity="0.28"><title>zero 24</title></line>
<line x1="813.92" y1="42" x2="813.92" y2="468" stroke="#2563eb" stroke-width="1" opacity="0.28"><title>zero 25</title></line>
<line x1="845.10" y1="42" x2="845.10" y2="468" stroke="#2563eb" stroke-width="1" opacity="0.28"><title>zero 26</title></line>
<line x1="863.38" y1="42" x2="863.38" y2="468" stroke="#2563eb" stroke-width="1" opacity="0.28"><title>zero 27</title></line>
<line x1="873.70" y1="42" x2="873.70" y2="468" stroke="#2563eb" stroke-width="1" opacity="0.28"><title>zero 28</title></line>
<line x1="898.77" y1="42" x2="898.77" y2="468" stroke="#2563eb" stroke-width="1" opacity="0.28"><title>zero 29</title></line>
<line x1="919.82" y1="42" x2="919.82" y2="468" stroke="#2563eb" stroke-width="1" opacity="0.28"><title>zero 30</title></line>
<line x1="940.21" y1="42" x2="940.21" y2="468" stroke="#2563eb" stroke-width="1" opacity="0.28"><title>zero 31</title></line>
<line x1="954.78" y1="42" x2="954.78" y2="468" stroke="#2563eb" stroke-width="1" opacity="0.28"><title>zero 32</title></line>
<line x1="969.36" y1="42" x2="969.36" y2="468" stroke="#2563eb" stroke-width="1" opacity="0.28"><title>zero 33</title></line>
<line x1="1002.05" y1="42" x2="1002.05" y2="468" stroke="#2563eb" stroke-width="1" opacity="0.28"><title>zero 34</title></line>
<line x1="1009.21" y1="42" x2="1009.21" y2="468" stroke="#2563eb" stroke-width="1" opacity="0.28"><title>zero 35</title></line>
  <polyline fill="none" stroke="#0f766e" stroke-width="1.4" points="62.96,193.22 63.44,186.85 63.93,178.23 64.41,167.65 64.89,155.44 65.37,142.02 65.85,127.83 66.33,113.35 66.81,99.06 67.29,85.46 67.78,73.02 68.26,62.18 68.74,53.34 69.22,46.86 69.70,43.01 70.18,42.00 70.66,43.97 71.15,48.98 71.63,56.99 72.11,67.91 72.59,81.54 73.07,97.66 73.55,115.94 74.03,136.03 74.51,157.56 75.00,180.09 75.48,203.20 75.96,226.47 76.44,249.48 76.92,271.86 77.40,293.24 77.88,313.35 78.36,331.93 78.85,348.80 79.33,363.86 79.81,377.06 80.29,388.41 80.77,397.97 81.25,405.81 81.73,412.01 82.22,416.62 82.70,419.70 83.18,421.29 83.66,421.50 84.14,420.49 84.62,418.52 85.10,415.88 85.58,412.85 86.07,409.70 86.55,406.66 87.03,403.92 87.51,401.62 87.99,399.85 88.47,398.69 88.95,398.17 89.44,398.27 89.92,398.98 90.40,400.23 90.88,401.96 91.36,404.06 91.84,406.45 92.32,409.00 92.80,411.63 93.29,414.23 93.77,416.72 94.25,419.03 94.73,421.15 95.21,423.04 95.69,424.73 96.17,426.24 96.66,427.61 97.14,428.86 97.62,430.02 98.10,431.06 98.58,431.95 99.06,432.62 99.54,432.99 100.02,432.97 100.51,432.50 100.99,431.55 101.47,430.14 101.95,428.36 102.43,426.33 102.91,424.17 103.39,422.03 103.87,420.05 104.36,418.34 104.84,417.01 105.32,416.14 105.80,415.77 106.28,415.93 106.76,416.61 107.24,417.77 107.73,419.33 108.21,421.18 108.69,423.16 109.17,425.08 109.65,426.71 110.13,427.81 110.61,428.19 111.09,427.70 111.58,426.33 112.06,424.16 112.54,421.37 113.02,418.16 113.50,414.72 113.98,411.25 114.46,407.89 114.95,404.76 115.43,401.96 115.91,399.56 116.39,397.62 116.87,396.18 117.35,395.26 117.83,394.86 118.31,394.98 118.80,395.61 119.28,396.72 119.76,398.28 120.24,400.25 120.72,402.58 121.20,405.20 121.68,408.05 122.17,411.04 122.65,414.08 123.13,417.08 123.61,419.90 124.09,422.44 124.57,424.57 125.05,426.18 125.53,427.20 126.02,427.57 126.50,427.34 126.98,426.55 127.46,425.32 127.94,423.78 128.42,422.03 128.90,420.19 129.39,418.37 129.87,416.63 130.35,415.04 130.83,413.64 131.31,412.47 131.79,411.55 132.27,410.91 132.75,410.54 133.24,410.45 133.72,410.66 134.20,411.15 134.68,411.92 135.16,412.97 135.64,414.29 136.12,415.88 136.60,417.71 137.09,419.78 137.57,422.07 138.05,424.56 138.53,427.22 139.01,430.02 139.49,432.93 139.97,435.91 140.46,438.91 140.94,441.90 141.42,444.83 141.90,447.66 142.38,450.33 142.86,452.80 143.34,455.04 143.82,457.02 144.31,458.72 144.79,460.15 145.27,461.34 145.75,462.33 146.23,463.21 146.71,464.05 147.19,464.92 147.68,465.85 148.16,466.85 148.64,467.40 149.12,466.42 149.60,465.08 150.08,463.64 150.56,462.16 151.04,460.67 151.53,459.21 152.01,457.81 152.49,456.50 152.97,455.31 153.45,454.25 153.93,453.35 154.41,452.59 154.90,452.00 155.38,451.55 155.86,451.25 156.34,451.06 156.82,450.96 157.30,450.93 157.78,450.93 158.26,450.93 158.75,450.89 159.23,450.81 159.71,450.64 160.19,450.39 160.67,450.06 161.15,449.66 161.63,449.19 162.11,448.70 162.60,448.20 163.08,447.73 163.56,447.32 164.04,446.99 164.52,446.78 165.00,446.70 165.48,446.78 165.97,447.02 166.45,447.45 166.93,448.05 167.41,448.85 167.89,449.81 168.37,450.94 168.85,452.20 169.33,453.57 169.82,455.00 170.30,456.42 170.78,457.76 171.26,458.89 171.74,459.66 172.22,459.93 172.70,459.63 173.19,458.84 173.67,457.69 174.15,456.32 174.63,454.86 175.11,453.35 175.59,451.86 176.07,450.41 176.55,449.02 177.04,447.70 177.52,446.44 178.00,445.24 178.48,444.10 178.96,443.01 179.44,441.96 179.92,440.94 180.41,439.94 180.89,438.96 181.37,437.99 181.85,437.04 182.33,436.10 182.81,435.17 183.29,434.27 183.77,433.40 184.26,432.56 184.74,431.78 185.22,431.07 185.70,430.42 186.18,429.87 186.66,429.41 187.14,429.06 187.62,428.83 188.11,428.74 188.59,428.78 189.07,428.96 189.55,429.28 190.03,429.76 190.51,430.39 190.99,431.16 191.48,432.07 191.96,433.13 192.44,434.30 192.92,435.60 193.40,437.00 193.88,438.49 194.36,440.06 194.84,441.69 195.33,443.36 195.81,445.05 196.29,446.74 196.77,448.40 197.25,449.99 197.73,451.46 198.21,452.76 198.70,453.80 199.18,454.51 199.66,454.79 200.14,454.59 200.62,453.91 201.10,452.80 201.58,451.34 202.06,449.62 202.55,447.71 203.03,445.67 203.51,443.57 203.99,441.46 204.47,439.37 204.95,437.35 205.43,435.42 205.92,433.62 206.40,431.97 206.88,430.49 207.36,429.19 207.84,428.09 208.32,427.19 208.80,426.50 209.28,426.03 209.77,425.76 210.25,425.69 210.73,425.81 211.21,426.12 211.69,426.61 212.17,427.26 212.65,428.07 213.14,429.02 213.62,430.12 214.10,431.34 214.58,432.70 215.06,434.18 215.54,435.78 216.02,437.48 216.50,439.28 216.99,441.17 217.47,443.11 217.95,445.09 218.43,447.07 218.91,448.99 219.39,450.80 219.87,452.40 220.35,453.70 220.84,454.60 221.32,455.01 221.80,454.93 222.28,454.41 222.76,453.57 223.24,452.54 223.72,451.44 224.21,450.35 224.69,449.35 225.17,448.49 225.65,447.81 226.13,447.32 226.61,447.05 227.09,446.98 227.57,447.12 228.06,447.43 228.54,447.90 229.02,448.49 229.50,449.16 229.98,449.87 230.46,450.58 230.94,451.23 231.43,451.80 231.91,452.26 232.39,452.60 232.87,452.82 233.35,452.95 233.83,453.01 234.31,453.03 234.79,453.06 235.28,453.11 235.76,453.21 236.24,453.35 236.72,453.54 237.20,453.75 237.68,453.97 238.16,454.16 238.65,454.29 239.13,454.33 239.61,454.28 240.09,454.11 240.57,453.86 241.05,453.54 241.53,453.18 242.01,452.84 242.50,452.54 242.98,452.32 243.46,452.22 243.94,452.25 244.42,452.43 244.90,452.76 245.38,453.24 245.86,453.87 246.35,454.61 246.83,455.46 247.31,456.35 247.79,457.26 248.27,458.11 248.75,458.84 249.23,459.37 249.72,459.65 250.20,459.64 250.68,459.37 251.16,458.89 251.64,458.26 252.12,457.57 252.60,456.88 253.08,456.23 253.57,455.67 254.05,455.21 254.53,454.89 255.01,454.72 255.49,454.70 255.97,454.84 256.45,455.15 256.94,455.62 257.42,456.24 257.90,457.00 258.38,457.88 258.86,458.87 259.34,459.94 259.82,461.04 260.30,462.14 260.79,463.16 261.27,463.98 261.75,464.43 262.23,464.39 262.71,463.92 263.19,463.18 263.67,462.35 264.16,461.50 264.64,460.70 265.12,459.96 265.60,459.31 266.08,458.75 266.56,458.26 267.04,457.85 267.52,457.51 268.01,457.23 268.49,456.99 268.97,456.80 269.45,456.66 269.93,456.56 270.41,456.53 270.89,456.57 271.37,456.70 271.86,456.94 272.34,457.30 272.82,457.80 273.30,458.45 273.78,459.26 274.26,460.23 274.74,461.35 275.23,462.61 275.71,463.99 276.19,465.42 276.67,466.65 277.15,466.41 277.63,464.94 278.11,463.25 278.59,461.54 279.08,459.86 279.56,458.25 280.04,456.74 280.52,455.37 281.00,454.14 281.48,453.09 281.96,452.22 282.45,451.54 282.93,451.05 283.41,450.74 283.89,450.62 284.37,450.67 284.85,450.86 285.33,451.18 285.81,451.62 286.30,452.13 286.78,452.70 287.26,453.31 287.74,453.94 288.22,454.56 288.70,455.17 289.18,455.75 289.67,456.30 290.15,456.83 290.63,457.32 291.11,457.78 291.59,458.22 292.07,458.62 292.55,458.98 293.03,459.29 293.52,459.53 294.00,459.69 294.48,459.73 294.96,459.66 295.44,459.47 295.92,459.15 296.40,458.72 296.88,458.22 297.37,457.65 297.85,457.06 298.33,456.46 298.81,455.88 299.29,455.34 299.77,454.87 300.25,454.48 300.74,454.19 301.22,454.00 301.70,453.94 302.18,454.01 302.66,454.21 303.14,454.54 303.62,455.00 304.10,455.58 304.59,456.27 305.07,457.06 305.55,457.93 306.03,458.86 306.51,459.81 306.99,460.76 307.47,461.65 307.96,462.46 308.44,463.11 308.92,463.58 309.40,463.83 309.88,463.88 310.36,463.80 310.84,463.67 311.32,463.55 311.81,463.49 312.29,463.52 312.77,463.68 313.25,463.95 313.73,464.35 314.21,464.86 314.69,465.44 315.18,466.03 315.66,466.45 316.14,466.39 316.62,465.79 317.10,464.90 317.58,463.89 318.06,462.83 318.54,461.74 319.03,460.65 319.51,459.57 319.99,458.51 320.47,457.48 320.95,456.46 321.43,455.47 321.91,454.49 322.40,453.53 322.88,452.57 323.36,451.62 323.84,450.68 324.32,449.74 324.80,448.82 325.28,447.90 325.76,447.02 326.25,446.17 326.73,445.36 327.21,444.62 327.69,443.95 328.17,443.37 328.65,442.88 329.13,442.50 329.61,442.23 330.10,442.09 330.58,442.07 331.06,442.17 331.54,442.41 332.02,442.77 332.50,443.25 332.98,443.84 333.47,444.55 333.95,445.35 334.43,446.24 334.91,447.22 335.39,448.27 335.87,449.38 336.35,450.54 336.83,451.75 337.32,452.99 337.80,454.27 338.28,455.56 338.76,456.86 339.24,458.17 339.72,459.47 340.20,460.76 340.69,462.03 341.17,463.27 341.65,464.48 342.13,465.65 342.61,466.75 343.09,467.64 343.57,467.06 344.05,466.15 344.54,465.28 345.02,464.47 345.50,463.73 345.98,463.05 346.46,462.43 346.94,461.86 347.42,461.33 347.91,460.83 348.39,460.35 348.87,459.88 349.35,459.41 349.83,458.93 350.31,458.44 350.79,457.94 351.27,457.42 351.76,456.90 352.24,456.37 352.72,455.86 353.20,455.36 353.68,454.89 354.16,454.46 354.64,454.07 355.12,453.74 355.61,453.46 356.09,453.24 356.57,453.09 357.05,453.01 357.53,453.00 358.01,453.05 358.49,453.18 358.98,453.36 359.46,453.61 359.94,453.92 360.42,454.28 360.90,454.69 361.38,455.15 361.86,455.65 362.34,456.18 362.83,456.75 363.31,457.33 363.79,457.93 364.27,458.52 364.75,459.10 365.23,459.64 365.71,460.12 366.20,460.54 366.68,460.85 367.16,461.05 367.64,461.12 368.12,461.07 368.60,460.90 369.08,460.63 369.56,460.28 370.05,459.88 370.53,459.43 371.01,458.96 371.49,458.48 371.97,458.00 372.45,457.52 372.93,457.05 373.42,456.60 373.90,456.17 374.38,455.76 374.86,455.39 375.34,455.05 375.82,454.77 376.30,454.55 376.78,454.40 377.27,454.34 377.75,454.37 378.23,454.50 378.71,454.75 379.19,455.13 379.67,455.63 380.15,456.26 380.63,457.02 381.12,457.91 381.60,458.92 382.08,460.04 382.56,461.26 383.04,462.55 383.52,463.88 384.00,465.15 384.49,466.09 384.97,465.99 385.45,464.94 385.93,463.57 386.41,462.12 386.89,460.69 387.37,459.30 387.85,457.98 388.34,456.75 388.82,455.62 389.30,454.61 389.78,453.73 390.26,452.97 390.74,452.35 391.22,451.87 391.71,451.52 392.19,451.31 392.67,451.21 393.15,451.24 393.63,451.37 394.11,451.60 394.59,451.92 395.07,452.31 395.56,452.77 396.04,453.27 396.52,453.82 397.00,454.40 397.48,454.99 397.96,455.60 398.44,456.22 398.93,456.84 399.41,457.46 399.89,458.08 400.37,458.69 400.85,459.30 401.33,459.90 401.81,460.51 402.29,461.11 402.78,461.72 403.26,462.32 403.74,462.93 404.22,463.54 404.70,464.15 405.18,464.76 405.66,465.36 406.14,465.92 406.63,466.40 407.11,466.65 407.59,466.53 408.07,466.07 408.55,465.42 409.03,464.67 409.51,463.84 410.00,462.97 410.48,462.05 410.96,461.09 411.44,460.10 411.92,459.10 412.40,458.08 412.88,457.05 413.36,456.04 413.85,455.05 414.33,454.09 414.81,453.19 415.29,452.34 415.77,451.57 416.25,450.89 416.73,450.32 417.22,449.85 417.70,449.51 418.18,449.31 418.66,449.24 419.14,449.31 419.62,449.52 420.10,449.88 420.58,450.37 421.07,451.00 421.55,451.74 422.03,452.59 422.51,453.54 422.99,454.56 423.47,455.65 423.95,456.77 424.44,457.92 424.92,459.06 425.40,460.17 425.88,461.23 426.36,462.20 426.84,463.06 427.32,463.76 427.80,464.25 428.29,464.51 428.77,464.55 429.25,464.40 429.73,464.13 430.21,463.80 430.69,463.44 431.17,463.08 431.66,462.72 432.14,462.37 432.62,462.02 433.10,461.67 433.58,461.34 434.06,461.00 434.54,460.67 435.02,460.35 435.51,460.05 435.99,459.76 436.47,459.50 436.95,459.27 437.43,459.07 437.91,458.91 438.39,458.78 438.87,458.70 439.36,458.66 439.84,458.66 440.32,458.71 440.80,458.79 441.28,458.91 441.76,459.07 442.24,459.27 442.73,459.50 443.21,459.76 443.69,460.06 444.17,460.39 444.65,460.76 445.13,461.16 445.61,461.58 446.09,462.04 446.58,462.52 447.06,463.03 447.54,463.55 448.02,464.09 448.50,464.62 448.98,465.14 449.46,465.62 449.95,466.03 450.43,466.31 450.91,466.39 451.39,466.28 451.87,466.02 452.35,465.70 452.83,465.35 453.31,465.02 453.80,464.73 454.28,464.47 454.76,464.27 455.24,464.13 455.72,464.05 456.20,464.03 456.68,464.07 457.17,464.17 457.65,464.33 458.13,464.53 458.61,464.78 459.09,465.06 459.57,465.37 460.05,465.69 460.53,466.01 461.02,466.32 461.50,466.58 461.98,466.77 462.46,466.85 462.94,466.81 463.42,466.68 463.90,466.51 464.38,466.33 464.87,466.15 465.35,465.99 465.83,465.86 466.31,465.76 466.79,465.68 467.27,465.64 467.75,465.62 468.24,465.63 468.72,465.65 469.20,465.68 469.68,465.73 470.16,465.77 470.64,465.80 471.12,465.82 471.60,465.79 472.09,465.71 472.57,465.57 473.05,465.34 473.53,465.02 474.01,464.61 474.49,464.12 474.97,463.56 475.46,462.92 475.94,462.24 476.42,461.50 476.90,460.74 477.38,459.95 477.86,459.16 478.34,458.39 478.82,457.63 479.31,456.92 479.79,456.26 480.27,455.68 480.75,455.17 481.23,454.77 481.71,454.47 482.19,454.29 482.68,454.23 483.16,454.30 483.64,454.50 484.12,454.83 484.60,455.30 485.08,455.88 485.56,456.58 486.04,457.39 486.53,458.29 487.01,459.27 487.49,460.31 487.97,461.39 488.45,462.49 488.93,463.59 489.41,464.62 489.89,465.49 490.38,466.02 490.86,465.96 491.34,465.41 491.82,464.67 492.30,463.90 492.78,463.16 493.26,462.48 493.75,461.88 494.23,461.37 494.71,460.96 495.19,460.64 495.67,460.41 496.15,460.26 496.63,460.21 497.11,460.23 497.60,460.31 498.08,460.46 498.56,460.66 499.04,460.91 499.52,461.18 500.00,461.48 500.48,461.80 500.97,462.12 501.45,462.44 501.93,462.75 502.41,463.04 502.89,463.31 503.37,463.56 503.85,463.79 504.33,463.98 504.82,464.15 505.30,464.29 505.78,464.41 506.26,464.51 506.74,464.58 507.22,464.64 507.70,464.68 508.19,464.69 508.67,464.69 509.15,464.67 509.63,464.63 510.11,464.56 510.59,464.48 511.07,464.37 511.55,464.24 512.04,464.09 512.52,463.92 513.00,463.74 513.48,463.55 513.96,463.36 514.44,463.18 514.92,463.00 515.41,462.84 515.89,462.69 516.37,462.57 516.85,462.48 517.33,462.40 517.81,462.35 518.29,462.32 518.77,462.30 519.26,462.29 519.74,462.27 520.22,462.23 520.70,462.18 521.18,462.10 521.66,461.98 522.14,461.83 522.62,461.66 523.11,461.47 523.59,461.27 524.07,461.07 524.55,460.88 525.03,460.72 525.51,460.60 525.99,460.52 526.48,460.48 526.96,460.49 527.44,460.54 527.92,460.64 528.40,460.76 528.88,460.90 529.36,461.04 529.84,461.17 530.33,461.25 530.81,461.29 531.29,461.26 531.77,461.15 532.25,460.97 532.73,460.72 533.21,460.42 533.70,460.08 534.18,459.72 534.66,459.35 535.14,458.99 535.62,458.66 536.10,458.35 536.58,458.09 537.06,457.87 537.55,457.69 538.03,457.56 538.51,457.48 538.99,457.45 539.47,457.45 539.95,457.50 540.43,457.58 540.92,457.70 541.40,457.85 541.88,458.02 542.36,458.23 542.84,458.45 543.32,458.70 543.80,458.98 544.28,459.27 544.77,459.59 545.25,459.94 545.73,460.31 546.21,460.69 546.69,461.10 547.17,461.53 547.65,461.96 548.13,462.40 548.62,462.84 549.10,463.26 549.58,463.65 550.06,464.00 550.54,464.29 551.02,464.49 551.50,464.60 551.99,464.61 552.47,464.52 552.95,464.34 553.43,464.11 553.91,463.84 554.39,463.55 554.87,463.26 555.35,462.97 555.84,462.69 556.32,462.43 556.80,462.18 557.28,461.97 557.76,461.78 558.24,461.61 558.72,461.47 559.21,461.36 559.69,461.27 560.17,461.20 560.65,461.17 561.13,461.16 561.61,461.17 562.09,461.22 562.57,461.30 563.06,461.41 563.54,461.56 564.02,461.74 564.50,461.96 564.98,462.23 565.46,462.53 565.94,462.88 566.43,463.27 566.91,463.70 567.39,464.17 567.87,464.66 568.35,465.15 568.83,465.62 569.31,466.00 569.79,466.18 570.28,466.07 570.76,465.69 571.24,465.13 571.72,464.47 572.20,463.77 572.68,463.05 573.16,462.32 573.64,461.62 574.13,460.94 574.61,460.30 575.09,459.71 575.57,459.18 576.05,458.71 576.53,458.31 577.01,457.99 577.50,457.75 577.98,457.59 578.46,457.51 578.94,457.51 579.42,457.58 579.90,457.73 580.38,457.94 580.86,458.21 581.35,458.51 581.83,458.85 582.31,459.21 582.79,459.56 583.27,459.91 583.75,460.22 584.23,460.49 584.72,460.71 585.20,460.87 585.68,460.97 586.16,461.02 586.64,461.04 587.12,461.02 587.60,460.99 588.08,460.95 588.57,460.93 589.05,460.93 589.53,460.97 590.01,461.04 590.49,461.15 590.97,461.30 591.45,461.49 591.94,461.72 592.42,461.98 592.90,462.27 593.38,462.58 593.86,462.90 594.34,463.23 594.82,463.56 595.30,463.88 595.79,464.17 596.27,464.44 596.75,464.68 597.23,464.89 597.71,465.06 598.19,465.20 598.67,465.30 599.15,465.38 599.64,465.44 600.12,465.49 600.60,465.51 601.08,465.51 601.56,465.48 602.04,465.41 602.52,465.29 603.01,465.12 603.49,464.88 603.97,464.58 604.45,464.23 604.93,463.85 605.41,463.44 605.89,463.01 606.37,462.58 606.86,462.17 607.34,461.78 607.82,461.42 608.30,461.10 608.78,460.84 609.26,460.63 609.74,460.49 610.23,460.42 610.71,460.41 611.19,460.47 611.67,460.59 612.15,460.77 612.63,461.01 613.11,461.30 613.59,461.62 614.08,461.97 614.56,462.33 615.04,462.70 615.52,463.06 616.00,463.41 616.48,463.72 616.96,463.99 617.45,464.21 617.93,464.38 618.41,464.50 618.89,464.56 619.37,464.57 619.85,464.55 620.33,464.49 620.81,464.41 621.30,464.31 621.78,464.20 622.26,464.07 622.74,463.93 623.22,463.79 623.70,463.63 624.18,463.46 624.67,463.28 625.15,463.09 625.63,462.89 626.11,462.69 626.59,462.47 627.07,462.25 627.55,462.03 628.03,461.80 628.52,461.57 629.00,461.34 629.48,461.12 629.96,460.90 630.44,460.70 630.92,460.52 631.40,460.36 631.88,460.23 632.37,460.13 632.85,460.06 633.33,460.04 633.81,460.05 634.29,460.11 634.77,460.22 635.25,460.37 635.74,460.57 636.22,460.81 636.70,461.09 637.18,461.42 637.66,461.78 638.14,462.17 638.62,462.58 639.10,463.01 639.59,463.44 640.07,463.88 640.55,464.31 641.03,464.72 641.51,465.11 641.99,465.47 642.47,465.78 642.96,466.05 643.44,466.27 643.92,466.43 644.40,466.53 644.88,466.57 645.36,466.54 645.84,466.45 646.32,466.30 646.81,466.10 647.29,465.86 647.77,465.57 648.25,465.24 648.73,464.88 649.21,464.51 649.69,464.12 650.18,463.73 650.66,463.34 651.14,462.97 651.62,462.61 652.10,462.29 652.58,462.00 653.06,461.75 653.54,461.55 654.03,461.39 654.51,461.28 654.99,461.23 655.47,461.22 655.95,461.26 656.43,461.34 656.91,461.47 657.39,461.62 657.88,461.80 658.36,461.99 658.84,462.18 659.32,462.36 659.80,462.52 660.28,462.65 660.76,462.73 661.25,462.75 661.73,462.72 662.21,462.64 662.69,462.51 663.17,462.35 663.65,462.16 664.13,461.97 664.61,461.78 665.10,461.60 665.58,461.46 666.06,461.34 666.54,461.27 667.02,461.24 667.50,461.26 667.98,461.34 668.47,461.46 668.95,461.64 669.43,461.86 669.91,462.13 670.39,462.44 670.87,462.79 671.35,463.16 671.83,463.56 672.32,463.98 672.80,464.41 673.28,464.84 673.76,465.26 674.24,465.67 674.72,466.07 675.20,466.44 675.69,466.78 676.17,467.08 676.65,467.33 677.13,467.50 677.61,467.56 678.09,467.52 678.57,467.41 679.05,467.29 679.54,467.16 680.02,467.02 680.50,466.86 680.98,466.68 681.46,466.48 681.94,466.27 682.42,466.03 682.90,465.77 683.39,465.51 683.87,465.24 684.35,464.98 684.83,464.72 685.31,464.47 685.79,464.25 686.27,464.04 686.76,463.86 687.24,463.71 687.72,463.58 688.20,463.49 688.68,463.41 689.16,463.37 689.64,463.34 690.12,463.33 690.61,463.33 691.09,463.34 691.57,463.34 692.05,463.35 692.53,463.35 693.01,463.35 693.49,463.33 693.98,463.31 694.46,463.29 694.94,463.26 695.42,463.24 695.90,463.22 696.38,463.21 696.86,463.22 697.34,463.25 697.83,463.30 698.31,463.38 698.79,463.49 699.27,463.62 699.75,463.78 700.23,463.97 700.71,464.18 701.20,464.42 701.68,464.67 702.16,464.94 702.64,465.22 703.12,465.50 703.60,465.78 704.08,466.03 704.56,466.25 705.05,466.43 705.53,466.54 706.01,466.58 706.49,466.56 706.97,466.48 707.45,466.37 707.93,466.25 708.41,466.13 708.90,466.03 709.38,465.95 709.86,465.89 710.34,465.86 710.82,465.87 711.30,465.90 711.78,465.97 712.27,466.07 712.75,466.20 713.23,466.35 713.71,466.52 714.19,466.70 714.67,466.87 715.15,467.00 715.63,467.06 716.12,467.02 716.60,466.88 717.08,466.67 717.56,466.41 718.04,466.13 718.52,465.84 719.00,465.55 719.49,465.26 719.97,464.99 720.45,464.73 720.93,464.50 721.41,464.28 721.89,464.09 722.37,463.93 722.85,463.79 723.34,463.68 723.82,463.59 724.30,463.53 724.78,463.50 725.26,463.49 725.74,463.50 726.22,463.53 726.71,463.58 727.19,463.65 727.67,463.73 728.15,463.84 728.63,463.95 729.11,464.09 729.59,464.23 730.07,464.40 730.56,464.57 731.04,464.76 731.52,464.96 732.00,465.18 732.48,465.41 732.96,465.64 733.44,465.89 733.93,466.15 734.41,466.40 734.89,466.67 735.37,466.93 735.85,467.18 736.33,467.43 736.81,467.63 737.29,467.70 737.78,467.59 738.26,467.39 738.74,467.16 739.22,466.93 739.70,466.70 740.18,466.47 740.66,466.24 741.14,466.00 741.63,465.76 742.11,465.53 742.59,465.29 743.07,465.06 743.55,464.85 744.03,464.64 744.51,464.46 745.00,464.31 745.48,464.20 745.96,464.12 746.44,464.09 746.92,464.12 747.40,464.20 747.88,464.34 748.36,464.53 748.85,464.77 749.33,465.06 749.81,465.38 750.29,465.72 750.77,466.03 751.25,466.27 751.73,466.36 752.22,466.28 752.70,466.02 753.18,465.66 753.66,465.25 754.14,464.83 754.62,464.43 755.10,464.06 755.58,463.74 756.07,463.49 756.55,463.30 757.03,463.19 757.51,463.15 757.99,463.19 758.47,463.30 758.95,463.48 759.44,463.73 759.92,464.03 760.40,464.38 760.88,464.78 761.36,465.20 761.84,465.64 762.32,466.09 762.80,466.52 763.29,466.90 763.77,467.19 764.25,467.28 764.73,467.14 765.21,466.89 765.69,466.62 766.17,466.37 766.65,466.14 767.14,465.95 767.62,465.80 768.10,465.69 768.58,465.62 769.06,465.59 769.54,465.60 770.02,465.64 770.51,465.71 770.99,465.82 771.47,465.95 771.95,466.11 772.43,466.29 772.91,466.48 773.39,466.68 773.87,466.87 774.36,467.05 774.84,467.17 775.32,467.21 775.80,467.14 776.28,466.99 776.76,466.79 777.24,466.56 777.73,466.34 778.21,466.12 778.69,465.91 779.17,465.73 779.65,465.57 780.13,465.45 780.61,465.36 781.09,465.30 781.58,465.28 782.06,465.30 782.54,465.35 783.02,465.43 783.50,465.53 783.98,465.67 784.46,465.81 784.95,465.97 785.43,466.14 785.91,466.30 786.39,466.44 786.87,466.57 787.35,466.68 787.83,466.75 788.31,466.79 788.80,466.80 789.28,466.79 789.76,466.75 790.24,466.70 790.72,466.63 791.20,466.54 791.68,466.44 792.16,466.33 792.65,466.20 793.13,466.05 793.61,465.90 794.09,465.74 794.57,465.58 795.05,465.42 795.53,465.26 796.02,465.12 796.50,464.98 796.98,464.87 797.46,464.78 797.94,464.71 798.42,464.67 798.90,464.65 799.38,464.65 799.87,464.68 800.35,464.74 800.83,464.82 801.31,464.92 801.79,465.03 802.27,465.15 802.75,465.29 803.24,465.42 803.72,465.54 804.20,465.64 804.68,465.72 805.16,465.76 805.64,465.77 806.12,465.73 806.60,465.66 807.09,465.56 807.57,465.45 808.05,465.33 808.53,465.20 809.01,465.09 809.49,465.00 809.97,464.93 810.46,464.89 810.94,464.87 811.42,464.88 811.90,464.92 812.38,464.98 812.86,465.05 813.34,465.13 813.82,465.20 814.31,465.24 814.79,465.25 815.27,465.21 815.75,465.12 816.23,464.97 816.71,464.77 817.19,464.53 817.68,464.27 818.16,463.99 818.64,463.72 819.12,463.45 819.60,463.20 820.08,462.97 820.56,462.77 821.04,462.60 821.53,462.48 822.01,462.39 822.49,462.34 822.97,462.33 823.45,462.35 823.93,462.42 824.41,462.51 824.89,462.64 825.38,462.80 825.86,462.98 826.34,463.19 826.82,463.41 827.30,463.65 827.78,463.90 828.26,464.16 828.75,464.42 829.23,464.68 829.71,464.93 830.19,465.16 830.67,465.37 831.15,465.56 831.63,465.71 832.11,465.82 832.60,465.90 833.08,465.93 833.56,465.93 834.04,465.89 834.52,465.83 835.00,465.75 835.48,465.66 835.97,465.55 836.45,465.43 836.93,465.29 837.41,465.13 837.89,464.96 838.37,464.76 838.85,464.55 839.33,464.33 839.82,464.09 840.30,463.86 840.78,463.62 841.26,463.39 841.74,463.18 842.22,462.99 842.70,462.83 843.19,462.70 843.67,462.61 844.15,462.57 844.63,462.57 845.11,462.63 845.59,462.74 846.07,462.89 846.55,463.10 847.04,463.35 847.52,463.65 848.00,463.98 848.48,464.34 848.96,464.73 849.44,465.11 849.92,465.49 850.40,465.83 850.89,466.09 851.37,466.25 851.85,466.26 852.33,466.14 852.81,465.92 853.29,465.66 853.77,465.38 854.26,465.11 854.74,464.87 855.22,464.66 855.70,464.50 856.18,464.38 856.66,464.32 857.14,464.30 857.62,464.34 858.11,464.42 858.59,464.55 859.07,464.71 859.55,464.91 860.03,465.13 860.51,465.36 860.99,465.61 861.48,465.85 861.96,466.09 862.44,466.30 862.92,466.48 863.40,466.63 863.88,466.74 864.36,466.81 864.84,466.84 865.33,466.86 865.81,466.87 866.29,466.88 866.77,466.91 867.25,466.96 867.73,467.03 868.21,467.13 868.70,467.25 869.18,467.39 869.66,467.55 870.14,467.69 870.62,467.71 871.10,467.55 871.58,467.30 872.06,467.00 872.55,466.69 873.03,466.35 873.51,466.01 873.99,465.66 874.47,465.32 874.95,464.99 875.43,464.67 875.91,464.37 876.40,464.10 876.88,463.87 877.36,463.68 877.84,463.53 878.32,463.43 878.80,463.38 879.28,463.39 879.77,463.45 880.25,463.57 880.73,463.73 881.21,463.95 881.69,464.20 882.17,464.50 882.65,464.82 883.13,465.17 883.62,465.53 884.10,465.89 884.58,466.26 885.06,466.61 885.54,466.95 886.02,467.26 886.50,467.54 886.99,467.77 887.47,467.88 887.95,467.79 888.43,467.68 888.91,467.62 889.39,467.59 889.87,467.61 890.35,467.66 890.84,467.74 891.32,467.82 891.80,467.82 892.28,467.69 892.76,467.51 893.24,467.30 893.72,467.09 894.21,466.88 894.69,466.67 895.17,466.47 895.65,466.30 896.13,466.14 896.61,466.01 897.09,465.91 897.57,465.84 898.06,465.81 898.54,465.82 899.02,465.87 899.50,465.96 899.98,466.08 900.46,466.24 900.94,466.44 901.42,466.66 901.91,466.90 902.39,467.12 902.87,467.29 903.35,467.30 903.83,467.13 904.31,466.84 904.79,466.49 905.28,466.11 905.76,465.73 906.24,465.34 906.72,464.97 907.20,464.61 907.68,464.27 908.16,463.97 908.64,463.69 909.13,463.45 909.61,463.26 910.09,463.10 910.57,462.98 911.05,462.91 911.53,462.87 912.01,462.88 912.50,462.91 912.98,462.96 913.46,463.03 913.94,463.10 914.42,463.17 914.90,463.21 915.38,463.23 915.86,463.21 916.35,463.16 916.83,463.06 917.31,462.93 917.79,462.77 918.27,462.58 918.75,462.39 919.23,462.19 919.72,462.00 920.20,461.82 920.68,461.66 921.16,461.52 921.64,461.41 922.12,461.31 922.60,461.24 923.08,461.19 923.57,461.16 924.05,461.14 924.53,461.14 925.01,461.16 925.49,461.18 925.97,461.23 926.45,461.29 926.94,461.36 927.42,461.46 927.90,461.58 928.38,461.73 928.86,461.90 929.34,462.10 929.82,462.34 930.30,462.60 930.79,462.88 931.27,463.20 931.75,463.53 932.23,463.88 932.71,464.24 933.19,464.60 933.67,464.96 934.15,465.32 934.64,465.65 935.12,465.97 935.60,466.26 936.08,466.51 936.56,466.72 937.04,466.90 937.52,467.04 938.01,467.15 938.49,467.24 938.97,467.30 939.45,467.33 939.93,467.33 940.41,467.28 940.89,467.18 941.37,467.02 941.86,466.83 942.34,466.60 942.82,466.36 943.30,466.10 943.78,465.85 944.26,465.60 944.74,465.37 945.23,465.16 945.71,464.97 946.19,464.83 946.67,464.72 947.15,464.66 947.63,464.64 948.11,464.67 948.59,464.74 949.08,464.87 949.56,465.03 950.04,465.24 950.52,465.48 951.00,465.75 951.48,466.04 951.96,466.34 952.45,466.65 952.93,466.96 953.41,467.27 953.89,467.55 954.37,467.81 954.85,467.87 955.33,467.69 955.81,467.51 956.30,467.36 956.78,467.24 957.26,467.15 957.74,467.09 958.22,467.04 958.70,467.01 959.18,466.99 959.66,466.98 960.15,466.96 960.63,466.94 961.11,466.91 961.59,466.88 962.07,466.84 962.55,466.80 963.03,466.74 963.52,466.66 964.00,466.57 964.48,466.44 964.96,466.29 965.44,466.11 965.92,465.90 966.40,465.66 966.88,465.40 967.37,465.14 967.85,464.88 968.33,464.62 968.81,464.39 969.29,464.17 969.77,464.00 970.25,463.86 970.74,463.76 971.22,463.71 971.70,463.71 972.18,463.75 972.66,463.85 973.14,463.98 973.62,464.14 974.10,464.33 974.59,464.54 975.07,464.76 975.55,464.97 976.03,465.16 976.51,465.34 976.99,465.48 977.47,465.59 977.96,465.66 978.44,465.72 978.92,465.75 979.40,465.78 979.88,465.81 980.36,465.85 980.84,465.89 981.32,465.95 981.81,466.00 982.29,466.05 982.77,466.07 983.25,466.06 983.73,466.00 984.21,465.88 984.69,465.71 985.17,465.48 985.66,465.22 986.14,464.93 986.62,464.63 987.10,464.32 987.58,464.02 988.06,463.73 988.54,463.47 989.03,463.25 989.51,463.06 989.99,462.91 990.47,462.82 990.95,462.78 991.43,462.79 991.91,462.86 992.39,462.99 992.88,463.18 993.36,463.42 993.84,463.71 994.32,464.04 994.80,464.42 995.28,464.83 995.76,465.26 996.25,465.72 996.73,466.18 997.21,466.64 997.69,467.08 998.17,467.47 998.65,467.64 999.13,467.42 999.61,467.08 1000.10,466.74 1000.58,466.43 1001.06,466.15 1001.54,465.90 1002.02,465.68 1002.50,465.50 1002.98,465.35 1003.47,465.23 1003.95,465.14 1004.43,465.08 1004.91,465.04 1005.39,465.03 1005.87,465.04 1006.35,465.07 1006.83,465.12 1007.32,465.18 1007.80,465.27 1008.28,465.37 1008.76,465.49 1009.24,465.62 1009.72,465.75 1010.20,465.89 1010.68,466.04 1011.17,466.18 1011.65,466.31 1012.13,466.44 1012.61,466.55 1013.09,466.66 1013.57,466.76 1014.05,466.85 1014.54,466.94 1015.02,467.04 1015.50,467.14 1015.98,467.25 1016.46,467.37 1016.94,467.49 1017.42,467.58 1017.90,467.62 1018.39,467.55 1018.87,467.40 1019.35,467.21 1019.83,466.99 1020.31,466.76 1020.79,466.53 1021.27,466.31 1021.76,466.10 1022.24,465.90 1022.72,465.73 1023.20,465.59 1023.68,465.47 1024.16,465.40 1024.64,465.36 1025.12,465.36 1025.61,465.39 1026.09,465.47 1026.57,465.57 1027.05,465.71 1027.53,465.86 1028.01,466.01 1028.49,466.15 1028.98,466.23 1029.46,466.25 1029.94,466.17 1030.42,466.00 1030.90,465.75 1031.38,465.44 1031.86,465.10 1032.34,464.75 1032.83,464.40 1033.31,464.06 1033.79,463.74 1034.27,463.45 1034.75,463.20 1035.23,462.99 1035.71,462.83 1036.20,462.71 1036.68,462.65 1037.16,462.65 1037.64,462.70 1038.12,462.79 1038.60,462.94 1039.08,463.13 1039.56,463.36 1040.05,463.63 1040.53,463.93 1041.01,464.24 1041.49,464.58 1041.97,464.92 1042.45,465.25 1042.93,465.57 1043.41,465.86 1043.90,466.11 1044.38,466.30 1044.86,466.41 1045.34,466.44 1045.82,466.39 1046.30,466.30 1046.78,466.16 1047.27,466.02 1047.75,465.87 1048.23,465.73 1048.71,465.60 1049.19,465.49 1049.67,465.40 1050.15,465.33 1050.63,465.29 1051.12,465.26 1051.60,465.26 1052.08,465.27 1052.56,465.31 1053.04,465.36 1053.52,465.42 1054.00,465.49 1054.49,465.56 1054.97,465.64 1055.45,465.70 1055.93,465.76 1056.41,465.80 1056.89,465.82 1057.37,465.81 1057.85,465.79 1058.34,465.74 1058.82,465.68 1059.30,465.60 1059.78,465.52 1060.26,465.44 1060.74,465.35 1061.22,465.27 1061.71,465.19 1062.19,465.11 1062.67,465.03 1063.15,464.95 1063.63,464.87 1064.11,464.79 1064.59,464.70 1065.07,464.61 1065.56,464.51 1066.04,464.41 1066.52,464.32 1067.00,464.22 1067.48,464.12 1067.96,464.04 1068.44,463.96 1068.92,463.90 1069.41,463.86 1069.89,463.83 1070.37,463.81 1070.85,463.82 1071.33,463.83 1071.81,463.87 1072.29,463.91 1072.78,463.95 1073.26,463.99 1073.74,464.02 1074.22,464.04 1074.70,464.04 1075.18,464.02 1075.66,463.96 1076.14,463.88 1076.63,463.77 1077.11,463.64 1077.59,463.49"/>
  <line x1="70.18" y1="42.00" x2="70.18" y2="468" stroke="#b45309" stroke-width="1" opacity="0.55"/>
<line x1="117.83" y1="394.86" x2="117.83" y2="468" stroke="#b45309" stroke-width="1" opacity="0.55"/>
<line x1="88.95" y1="398.17" x2="88.95" y2="468" stroke="#b45309" stroke-width="1" opacity="0.55"/>
<line x1="133.24" y1="410.45" x2="133.24" y2="468" stroke="#b45309" stroke-width="1" opacity="0.55"/>
<line x1="105.80" y1="415.77" x2="105.80" y2="468" stroke="#b45309" stroke-width="1" opacity="0.55"/>
<line x1="210.25" y1="425.69" x2="210.25" y2="468" stroke="#b45309" stroke-width="1" opacity="0.55"/>
<line x1="188.11" y1="428.74" x2="188.11" y2="468" stroke="#b45309" stroke-width="1" opacity="0.55"/>
<line x1="330.58" y1="442.07" x2="330.58" y2="468" stroke="#b45309" stroke-width="1" opacity="0.55"/>
<line x1="165.00" y1="446.70" x2="165.00" y2="468" stroke="#b45309" stroke-width="1" opacity="0.55"/>
<line x1="227.09" y1="446.98" x2="227.09" y2="468" stroke="#b45309" stroke-width="1" opacity="0.55"/>
<line x1="418.66" y1="449.24" x2="418.66" y2="468" stroke="#b45309" stroke-width="1" opacity="0.55"/>
<line x1="283.89" y1="450.62" x2="283.89" y2="468" stroke="#b45309" stroke-width="1" opacity="0.55"/>
<line x1="392.67" y1="451.21" x2="392.67" y2="468" stroke="#b45309" stroke-width="1" opacity="0.55"/>
<line x1="243.46" y1="452.22" x2="243.46" y2="468" stroke="#b45309" stroke-width="1" opacity="0.55"/>
<line x1="357.53" y1="453.00" x2="357.53" y2="468" stroke="#b45309" stroke-width="1" opacity="0.55"/>
<line x1="301.70" y1="453.94" x2="301.70" y2="468" stroke="#b45309" stroke-width="1" opacity="0.55"/>
<line x1="482.68" y1="454.23" x2="482.68" y2="468" stroke="#b45309" stroke-width="1" opacity="0.55"/>
<line x1="377.27" y1="454.34" x2="377.27" y2="468" stroke="#b45309" stroke-width="1" opacity="0.55"/>
<line x1="255.49" y1="454.70" x2="255.49" y2="468" stroke="#b45309" stroke-width="1" opacity="0.55"/>
<line x1="270.41" y1="456.53" x2="270.41" y2="468" stroke="#b45309" stroke-width="1" opacity="0.55"/>
<line x1="538.99" y1="457.45" x2="538.99" y2="468" stroke="#b45309" stroke-width="1" opacity="0.55"/>
<line x1="578.94" y1="457.51" x2="578.94" y2="468" stroke="#b45309" stroke-width="1" opacity="0.55"/>
<line x1="439.36" y1="458.66" x2="439.36" y2="468" stroke="#b45309" stroke-width="1" opacity="0.55"/>
<line x1="633.33" y1="460.04" x2="633.33" y2="468" stroke="#b45309" stroke-width="1" opacity="0.55"/>
<line x1="496.63" y1="460.21" x2="496.63" y2="468" stroke="#b45309" stroke-width="1" opacity="0.55"/>
<line x1="610.71" y1="460.41" x2="610.71" y2="468" stroke="#b45309" stroke-width="1" opacity="0.55"/>
<line x1="526.48" y1="460.48" x2="526.48" y2="468" stroke="#b45309" stroke-width="1" opacity="0.55"/>
<line x1="588.57" y1="460.93" x2="588.57" y2="468" stroke="#b45309" stroke-width="1" opacity="0.55"/>
<line x1="924.53" y1="461.14" x2="924.53" y2="468" stroke="#b45309" stroke-width="1" opacity="0.55"/>
<line x1="561.13" y1="461.16" x2="561.13" y2="468" stroke="#b45309" stroke-width="1" opacity="0.55"/>
  <text x="570" y="516" font-size="13" text-anchor="middle" fill="#334155">log-frequency gamma</text>
  <text x="15" y="255" font-size="13" text-anchor="middle" fill="#334155" transform="rotate(-90 15 255)">Hann DFT amplitude</text>
</svg>
