<?xml version="1.0" encoding="UTF-8"?>
<svg xmlns="http://www.w3.org/2000/svg" width="1100" height="520" viewBox="0 0 1100 520">
  <rect width="100%" height="100%" fill="#f8fafc"/>
  <text x="62" y="25" font-size="20" font-family="system-ui, -apple-system, sans-serif" font-weight="700" fill="#0f172a">phase-a</text>
  <rect x="62" y="42" width="1016" height="426" fill="#ffffff" stroke="#cbd5e1"/>
  <line x1="62" y1="468" x2="62" y2="473" stroke="#475569"/>
  <text x="62" y="502" font-size="12" text-anchor="middle" fill="#334155">0</text>
  <line x1="146.66666666666666" y1="468" x2="146.66666666666666" y2="473" stroke="#475569"/>
  <text x="146.66666666666666" y="502" font-size="12" text-anchor="middle" fill="#334155">10</text>
  <line x1="231.33333333333331" y1="468" x2="231.33333333333331" y2="473" stroke="#475569"/>
  <text x="231.33333333333331" y="502" font-size="12" text-anchor="middle" fill="#334155">20</text>
  <line x1="316" y1="468" x2="316" y2="473" stroke="#475569"/>
  <text x="316" y="502" font-size="12" text-anchor="middle" fill="#334155">30</text>
  <line x1="400.66666666666663" y1="468" x2="400.66666666666663" y2="473" stroke="#475569"/>
  <text x="400.66666666666663" y="502" font-size="12" text-anchor="middle" fill="#334155">40</text>
  <line x1="485.33333333333337" y1="468" x2="485.33333333333337" y2="473" stroke="#475569"/>
  <text x="485.33333333333337" y="502" font-size="12" text-anchor="middle" fill="#334155">50</text>
  <line x1="570" y1="468" x2="570" y2="473" stroke="#475569"/>
  <text x="570" y="502" font-size="12" text-anchor="middle" fill="#334155">60</text>
  <line x1="654.6666666666667" y1="468" x2="654.6666666666667" y2="473" stroke="#475569"/>
  <text x="654.6666666666667" y="502" font-size="12" text-anchor="middle" fill="#334155">70</text>
  <line x1="739.3333333333333" y1="468" x2="739.3333333333333" y2="473" stroke="#475569"/>
  <text x="739.3333333333333" y="502" font-size="12" text-anchor="middle" fill="#334155">80</text>
  <line x1="824" y1="468" x2="824" y2="473" stroke="#475569"/>
  <text x="824" y="502" font-size="12" text-anchor="middle" fill="#334155">90</text>
  <line x1="908.6666666666667" y1="468" x2="908.6666666666667" y2="473" stroke="#475569"/>
  <text x="908.6666666666667" y="502" font-size="12" text-anchor="middle" fill="#334155">100</text>
  <line x1="993.3333333333333" y1="468" x2="993.3333333333333" y2="473" stroke="#475569"/>
  <text x="993.3333333333333" y="502" font-size="12" text-anchor="middle" fill="#334155">110</text>
  <line x1="1078" y1="468" x2="1078" y2="473" stroke="#475569"/>
  <text x="1078" y="502" font-size="12" text-anchor="middle" fill="#334155">120</text>
  <line x1="57" y1="468" x2="62" y2="468" stroke="#475569"/>
  <text x="52" y="472" font-size="12" text-anchor="end" fill="#334155">0.000</text>
  <line x1="57" y1="361.5" x2="62" y2="361.5" stroke="#475569"/>
  <text x="52" y="365.5" font-size="12" text-anchor="end" fill="#334155">0.035</text>
  <line x1="57" y1="255" x2="62" y2="255" stroke="#475569"/>
  <text x="52" y="259" font-size="12" text-anchor="end" fill="#334155">0.071</text>
  <line x1="57" y1="148.5" x2="62" y2="148.5" stroke="#475569"/>
  <text x="52" y="152.5" font-size="12" text-anchor="end" fill="#334155">0.106</text>
  <line x1="57" y1="42" x2="62" y2="42" stroke="#475569"/>
  <text x="52" y="46" font-size="12" text-anchor="end" fill="#334155">0.142</text>
  <line x1="181.67" y1="42" x2="181.67" y2="468" stroke="#2563eb" stroke-width="1" opacity="0.28"><title>zero 1</title></line>
<line x1="239.99" y1="42" x2="239.99" y2="468" stroke="#2563eb" stroke-width="1" opacity="0.28"><title>zero 2</title></line>
<line x1="273.76" y1="42" x2="273.76" y2="468" stroke="#2563eb" stroke-width="1" opacity="0.28"><title>zero 3</title></line>
<line x1="319.60" y1="42" x2="319.60" y2="468" stroke="#2563eb" stroke-width="1" opacity="0.28"><title>zero 4</title></line>
<line x1="340.85" y1="42" x2="340.85" y2="468" stroke="#2563eb" stroke-width="1" opacity="0.28"><title>zero 5</title></line>
<line x1="380.23" y1="42" x2="380.23" y2="468" stroke="#2563eb" stroke-width="1" opacity="0.28"><title>zero 6</title></line>
<line x1="408.45" y1="42" x2="408.45" y2="468" stroke="#2563eb" stroke-width="1" opacity="0.28"><title>zero 7</title></line>
<line x1="428.84" y1="42" x2="428.84" y2="468" stroke="#2563eb" stroke-width="1" opacity="0.28"><title>zero 8</title></line>
<line x1="468.44" y1="42" x2="468.44" y2="468" stroke="#2563eb" stroke-width="1" opacity="0.28"><title>zero 9</title></line>
<line x1="483.42" y1="42" x2="483.42" y2="468" stroke="#2563eb" stroke-width="1" opacity="0.28"><title>zero 10</title></line>
<line x1="510.48" y1="42" x2="510.48" y2="468" stroke="#2563eb" stroke-width="1" opacity="0.28"><title>zero 11</title></line>
<line x1="539.91" y1="42" x2="539.91" y2="468" stroke="#2563eb" stroke-width="1" opacity="0.28"><title>zero 12</title></line>
<line x1="564.47" y1="42" x2="564.47" y2="468" stroke="#2563eb" stroke-width="1" opacity="0.28"><title>zero 13</title></line>
<line x1="577.04" y1="42" x2="577.04" y2="468" stroke="#2563eb" stroke-width="1" opacity="0.28"><title>zero 14</title></line>
<line x1="613.29" y1="42" x2="613.29" y2="468" stroke="#2563eb" stroke-width="1" opacity="0.28"><title>zero 15</title></line>
<line x1="629.94" y1="42" x2="629.94" y2="468" stroke="#2563eb" stroke-width="1" opacity="0.28"><title>zero 16</title></line>
<line x1="650.83" y1="42" x2="650.83" y2="468" stroke="#2563eb" stroke-width="1" opacity="0.28"><title>zero 17</title></line>
<line x1="672.17" y1="42" x2="672.17" y2="468" stroke="#2563eb" stroke-width="1" opacity="0.28"><title>zero 18</title></line>
<line x1="702.97" y1="42" x2="702.97" y2="468" stroke="#2563eb" stroke-width="1" opacity="0.28"><title>zero 19</title></line>
<line x1="715.16" y1="42" x2="715.16" y2="468" stroke="#2563eb" stroke-width="1" opacity="0.28"><title>zero 20</title></line>
<line x1="733.72" y1="42" x2="733.72" y2="468" stroke="#2563eb" stroke-width="1" opacity="0.28"><title>zero 21</title></line>
<line x1="763.97" y1="42" x2="763.97" y2="468" stroke="#2563eb" stroke-width="1" opacity="0.28"><title>zero 22</title></line>
<line x1="779.43" y1="42" x2="779.43" y2="468" stroke="#2563eb" stroke-width="1" opacity="0.28"><title>zero 23</title></line>
<line x1="802.20" y1="42" x2="802.20" y2="468" stroke="#2563eb" stroke-width="1" opacity="0.28"><title>zero 24</title></line>
<line x1="813.92" y1="42" x2="813.92" y2="468" stroke="#2563eb" stroke-width="1" opacity="0.28"><title>zero 25</title></line>
<line x1="845.10" y1="42" x2="845.10" y2="468" stroke="#2563eb" stroke-width="1" opacity="0.28"><title>zero 26</title></line>
<line x1="863.38" y1="42" x2="863.38" y2="468" stroke="#2563eb" stroke-width="1" opacity="0.28"><title>zero 27</title></line>
<line x1="873.70" y1="42" x2="873.70" y2="468" stroke="#2563eb" stroke-width="1" opacity="0.28"><title>zero 28</title></line>
<line x1="898.77" y1="42" x2="898.77" y2="468" stroke="#2563eb" stroke-width="1" opacity="0.28"><title>zero 29</title></line>
<line x1="919.82" y1="42" x2="919.82" y2="468" stroke="#2563eb" stroke-width="1" opacity="0.28"><title>zero 30</title></line>
<line x1="940.21" y1="42" x2="940.21" y2="468" stroke="#2563eb" stroke-width="1" opacity="0.28"><title>zero 31</title></line>
<line x1="954.78" y1="42" x2="954.78" y2="468" stroke="#2563eb" stroke-width="1" opacity="0.28"><title>zero 32</title></line>
<line x1="969.36" y1="42" x2="969.36" y2="468" stroke="#2563eb" stroke-width="1" opacity="0.28"><title>zero 33</title></line>
<line x1="1002.05" y1="42" x2="1002.05" y2="468" stroke="#2563eb" stroke-width="1" opacity="0.28"><title>zero 34</title></line>
<line x1="1009.21" y1="42" x2="1009.21" y2="468" stroke="#2563eb" stroke-width="1" opacity="0.28"><title>zero 35</title></line>
  <polyline fill="none" stroke="#0f766e" stroke-width="1.4" points="62.96,453.50 63.44,453.53 63.93,453.58 64.41,453.67 64.89,453.82 65.37,454.04 65.85,454.33 66.33,454.71 66.81,455.18 67.29,455.75 67.78,456.40 68.26,457.13 68.74,457.94 69.22,458.79 69.70,459.69 70.18,460.60 70.66,461.50 71.15,462.36 71.63,463.16 72.11,463.85 72.59,464.41 73.07,464.80 73.55,465.02 74.03,465.07 74.51,465.02 75.00,464.91 75.48,464.79 75.96,464.70 76.44,464.64 76.92,464.63 77.40,464.68 77.88,464.77 78.36,464.90 78.85,465.06 79.33,465.26 79.81,465.47 80.29,465.69 80.77,465.91 81.25,466.13 81.73,466.34 82.22,466.53 82.70,466.70 83.18,466.84 83.66,466.95 84.14,467.04 84.62,467.10 85.10,467.13 85.58,467.14 86.07,467.13 86.55,467.12 87.03,467.10 87.51,467.08 87.99,467.06 88.47,467.04 88.95,467.03 89.44,467.02 89.92,467.02 90.40,467.02 90.88,467.03 91.36,467.03 91.84,467.05 92.32,467.07 92.80,467.08 93.29,467.11 93.77,467.13 94.25,467.15 94.73,467.16 95.21,467.18 95.69,467.19 96.17,467.20 96.66,467.20 97.14,467.21 97.62,467.20 98.10,467.20 98.58,467.20 99.06,467.20 99.54,467.21 100.02,467.21 100.51,467.22 100.99,467.24 101.47,467.25 101.95,467.25 102.43,467.25 102.91,467.23 103.39,467.19 103.87,467.13 104.36,467.04 104.84,466.94 105.32,466.82 105.80,466.68 106.28,466.55 106.76,466.41 107.24,466.27 107.73,466.14 108.21,466.02 108.69,465.91 109.17,465.82 109.65,465.74 110.13,465.67 110.61,465.63 111.09,465.60 111.58,465.58 112.06,465.59 112.54,465.60 113.02,465.64 113.50,465.68 113.98,465.74 114.46,465.81 114.95,465.89 115.43,465.98 115.91,466.07 116.39,466.17 116.87,466.27 117.35,466.38 117.83,466.49 118.31,466.60 118.80,466.72 119.28,466.83 119.76,466.93 120.24,467.03 120.72,467.13 121.20,467.20 121.68,467.27 122.17,467.31 122.65,467.35 123.13,467.37 123.61,467.39 124.09,467.41 124.57,467.45 125.05,467.50 125.53,467.57 126.02,467.67 126.50,467.79 126.98,467.87 127.46,467.77 127.94,467.57 128.42,467.34 128.90,467.08 129.39,466.81 129.87,466.53 130.35,466.26 130.83,465.99 131.31,465.74 131.79,465.51 132.27,465.32 132.75,465.15 133.24,465.03 133.72,464.95 134.20,464.91 134.68,464.91 135.16,464.96 135.64,465.03 136.12,465.13 136.60,465.26 137.09,465.40 137.57,465.55 138.05,465.69 138.53,465.83 139.01,465.96 139.49,466.06 139.97,466.14 140.46,466.19 140.94,466.22 141.42,466.22 141.90,466.20 142.38,466.16 142.86,466.10 143.34,466.04 143.82,465.96 144.31,465.88 144.79,465.80 145.27,465.70 145.75,465.60 146.23,465.48 146.71,465.34 147.19,465.19 147.68,465.04 148.16,464.88 148.64,464.73 149.12,464.60 149.60,464.49 150.08,464.43 150.56,464.41 151.04,464.43 151.53,464.50 152.01,464.61 152.49,464.74 152.97,464.90 153.45,465.05 153.93,465.20 154.41,465.33 154.90,465.46 155.38,465.61 155.86,465.78 156.34,466.02 156.82,466.35 157.30,466.76 157.78,467.28 158.26,467.83 158.75,467.36 159.23,466.60 159.71,465.82 160.19,465.04 160.67,464.33 161.15,463.74 161.63,463.32 162.11,463.10 162.60,463.14 163.08,463.45 163.56,464.01 164.04,464.77 164.52,465.49 165.00,465.62 165.48,464.76 165.97,463.35 166.45,461.81 166.93,460.42 167.41,459.39 167.89,458.94 168.37,459.28 168.85,460.65 169.33,463.27 169.82,467.34 170.30,462.90 170.78,455.30 171.26,445.72 171.74,434.03 172.22,420.19 172.70,404.19 173.19,386.07 173.67,365.95 174.15,344.00 174.63,320.46 175.11,295.61 175.59,269.81 176.07,243.43 176.55,216.92 177.04,190.72 177.52,165.31 178.00,141.16 178.48,118.74 178.96,98.50 179.44,80.84 179.92,66.14 180.41,54.70 180.89,46.76 181.37,42.50 181.85,42.00 182.33,45.28 182.81,52.28 183.29,62.84 183.77,76.74 184.26,93.69 184.74,113.34 185.22,135.29 185.70,159.11 186.18,184.33 186.66,210.47 187.14,237.07 187.62,263.65 188.11,289.78 188.59,315.05 189.07,339.10 189.55,361.63 190.03,382.38 190.51,401.15 190.99,417.83 191.48,432.32 191.96,444.60 192.44,454.66 192.92,462.28 193.40,464.46 193.88,461.11 194.36,458.32 194.84,456.69 195.33,456.11 195.81,456.38 196.29,457.29 196.77,458.65 197.25,460.27 197.73,462.01 198.21,463.72 198.70,465.30 199.18,466.67 199.66,467.78 200.14,467.38 200.62,466.83 201.10,466.53 201.58,466.46 202.06,466.55 202.55,466.70 203.03,466.79 203.51,466.71 203.99,466.46 204.47,466.14 204.95,465.82 205.43,465.56 205.92,465.38 206.40,465.28 206.88,465.26 207.36,465.31 207.84,465.41 208.32,465.51 208.80,465.61 209.28,465.67 209.77,465.70 210.25,465.71 210.73,465.72 211.21,465.73 211.69,465.77 212.17,465.84 212.65,465.93 213.14,466.04 213.62,466.14 214.10,466.23 214.58,466.28 215.06,466.28 215.54,466.20 216.02,466.05 216.50,465.83 216.99,465.55 217.47,465.23 217.95,464.88 218.43,464.54 218.91,464.22 219.39,463.97 219.87,463.83 220.35,463.82 220.84,463.99 221.32,464.36 221.80,464.94 222.28,465.74 222.76,466.75 223.24,467.73 223.72,466.67 224.21,465.28 224.69,463.90 225.17,462.65 225.65,461.63 226.13,461.00 226.61,460.89 227.09,461.46 227.57,462.87 228.06,465.26 228.54,467.20 229.02,462.44 229.50,456.31 229.98,448.75 230.46,439.72 230.94,429.20 231.43,417.22 231.91,403.86 232.39,389.23 232.87,373.48 233.35,356.82 233.83,339.47 234.31,321.70 234.79,303.79 235.28,286.06 235.76,268.83 236.24,252.41 236.72,237.12 237.20,223.28 237.68,211.16 238.16,201.01 238.65,193.04 239.13,187.43 239.61,184.29 240.09,183.69 240.57,185.64 241.05,190.11 241.53,197.00 242.01,206.16 242.50,217.41 242.98,230.50 243.46,245.18 243.94,261.15 244.42,278.10 244.90,295.71 245.38,313.65 245.86,331.61 246.35,349.29 246.83,366.41 247.31,382.73 247.79,398.02 248.27,412.12 248.75,424.89 249.23,436.23 249.72,446.10 250.20,454.48 250.68,461.38 251.16,466.64 251.64,464.67 252.12,461.69 252.60,459.71 253.08,458.64 253.57,458.32 254.05,458.61 254.53,459.38 255.01,460.49 255.49,461.83 255.97,463.29 256.45,464.76 256.94,466.00 257.42,466.34 257.90,465.48 258.38,464.29 258.86,463.15 259.34,462.22 259.82,461.59 260.30,461.38 260.79,461.70 261.27,462.68 261.75,464.43 262.23,466.98 262.71,465.15 263.19,460.39 263.67,454.43 264.16,447.23 264.64,438.77 265.12,429.06 265.60,418.16 266.08,406.15 266.56,393.14 267.04,379.30 267.52,364.81 268.01,349.89 268.49,334.78 268.97,319.73 269.45,305.01 269.93,290.90 270.41,277.66 270.89,265.56 271.37,254.85 271.86,245.73 272.34,238.40 272.82,233.01 273.30,229.67 273.78,228.46 274.26,229.40 274.74,232.46 275.23,237.58 275.71,244.66 276.19,253.52 276.67,264.01 277.15,275.88 277.63,288.91 278.11,302.84 278.59,317.40 279.08,332.32 279.56,347.33 280.04,362.17 280.52,376.61 281.00,390.44 281.48,403.46 281.96,415.51 282.45,426.48 282.93,436.27 283.41,444.84 283.89,452.14 284.37,458.18 284.85,462.92 285.33,465.87 285.81,465.25 286.30,463.70 286.78,462.69 287.26,462.27 287.74,462.35 288.22,462.80 288.70,463.49 289.18,464.29 289.67,465.06 290.15,465.64 290.63,465.87 291.11,465.77 291.59,465.49 292.07,465.22 292.55,465.04 293.03,464.98 293.52,465.02 294.00,465.17 294.48,465.39 294.96,465.64 295.44,465.91 295.92,466.16 296.40,466.37 296.88,466.52 297.37,466.60 297.85,466.62 298.33,466.60 298.81,466.55 299.29,466.50 299.77,466.48 300.25,466.52 300.74,466.64 301.22,466.87 301.70,467.21 302.18,467.63 302.66,467.59 303.14,466.94 303.62,466.16 304.10,465.36 304.59,464.58 305.07,463.92 305.55,463.45 306.03,463.29 306.51,463.53 306.99,464.28 307.47,465.64 307.96,467.34 308.44,465.09 308.92,461.24 309.40,456.38 309.88,450.47 310.36,443.52 310.84,435.52 311.32,426.52 311.81,416.60 312.29,405.84 312.77,394.39 313.25,382.41 313.73,370.08 314.21,357.60 314.69,345.19 315.18,333.08 315.66,321.51 316.14,310.68 316.62,300.83 317.10,292.15 317.58,284.81 318.06,278.96 318.54,274.72 319.03,272.16 319.51,271.31 319.99,272.19 320.47,274.76 320.95,278.93 321.43,284.60 321.91,291.63 322.40,299.87 322.88,309.12 323.36,319.21 323.84,329.92 324.32,341.08 324.80,352.50 325.28,364.00 325.76,375.43 326.25,386.68 326.73,397.63 327.21,408.24 327.69,418.45 328.17,428.27 328.65,437.72 329.13,446.83 329.61,455.68 330.10,464.33 330.58,463.01 331.06,454.44 331.54,445.76 332.02,436.91 332.50,427.81 332.98,418.43 333.47,408.75 333.95,398.77 334.43,388.53 334.91,378.10 335.39,367.57 335.87,357.06 336.35,346.70 336.83,336.67 337.32,327.12 337.80,318.25 338.28,310.22 338.76,303.21 339.24,297.37 339.72,292.84 340.20,289.75 340.69,288.16 341.17,288.14 341.65,289.70 342.13,292.83 342.61,297.47 343.09,303.52 343.57,310.88 344.05,319.39 344.54,328.87 345.02,339.14 345.50,349.99 345.98,361.22 346.46,372.60 346.94,383.95 347.42,395.06 347.91,405.75 348.39,415.88 348.87,425.30 349.35,433.91 349.83,441.64 350.31,448.42 350.79,454.25 351.27,459.10 351.76,463.00 352.24,465.89 352.72,466.77 353.20,465.67 353.68,464.85 354.16,464.50 354.64,464.56 355.12,464.95 355.61,465.56 356.09,466.28 356.57,466.94 357.05,467.10 357.53,466.60 358.01,465.97 358.49,465.41 358.98,464.98 359.46,464.71 359.94,464.60 360.42,464.66 360.90,464.88 361.38,465.23 361.86,465.68 362.34,466.13 362.83,466.39 363.31,466.21 363.79,465.61 364.27,464.81 364.75,463.96 365.23,463.15 365.71,462.48 366.20,462.02 366.68,461.85 367.16,462.05 367.64,462.70 368.12,463.89 368.60,465.69 369.08,467.56 369.56,464.53 370.05,460.52 370.53,455.68 371.01,450.00 371.49,443.50 371.97,436.21 372.45,428.18 372.93,419.49 373.42,410.23 373.90,400.54 374.38,390.54 374.86,380.40 375.34,370.28 375.82,360.37 376.30,350.83 376.78,341.86 377.27,333.62 377.75,326.29 378.23,320.02 378.71,314.93 379.19,311.14 379.67,308.72 380.15,307.73 380.63,308.20 381.12,310.11 381.60,313.43 382.08,318.08 382.56,323.98 383.04,330.98 383.52,338.96 384.00,347.75 384.49,357.17 384.97,367.03 385.45,377.16 385.93,387.35 386.41,397.43 386.89,407.23 387.37,416.59 387.85,425.38 388.34,433.49 388.82,440.81 389.30,447.30 389.78,452.90 390.26,457.61 390.74,461.44 391.22,464.39 391.71,466.35 392.19,466.66 392.67,465.96 393.15,465.40 393.63,465.08 394.11,464.94 394.59,464.93 395.07,465.07 395.56,465.41 396.04,466.05 396.52,467.02 397.00,466.91 397.48,464.77 397.96,461.81 398.44,458.05 398.93,453.47 399.41,448.07 399.89,441.87 400.37,434.90 400.85,427.24 401.33,418.98 401.81,410.23 402.29,401.12 402.78,391.79 403.26,382.41 403.74,373.14 404.22,364.15 404.70,355.61 405.18,347.69 405.66,340.54 406.14,334.30 406.63,329.10 407.11,325.04 407.59,322.21 408.07,320.65 408.55,320.40 409.03,321.44 409.51,323.76 410.00,327.30 410.48,331.97 410.96,337.69 411.44,344.31 411.92,351.72 412.40,359.77 412.88,368.29 413.36,377.14 413.85,386.17 414.33,395.23 414.81,404.19 415.29,412.94 415.77,421.37 416.25,429.43 416.73,437.03 417.22,444.11 417.70,450.52 418.18,455.80 418.66,458.48 419.14,456.79 419.62,452.06 420.10,446.05 420.58,439.37 421.07,432.23 421.55,424.68 422.03,416.79 422.51,408.62 422.99,400.26 423.47,391.81 423.95,383.39 424.44,375.14 424.92,367.20 425.40,359.72 425.88,352.84 426.36,346.69 426.84,341.42 427.32,337.13 427.80,333.92 428.29,331.86 428.77,331.01 429.25,331.37 429.73,332.97 430.21,335.75 430.69,339.68 431.17,344.66 431.66,350.61 432.14,357.40 432.62,364.89 433.10,372.93 433.58,381.38 434.06,390.06 434.54,398.84 435.02,407.54 435.51,416.04 435.99,424.20 436.47,431.91 436.95,439.07 437.43,445.61 437.91,451.46 438.39,456.60 438.87,461.00 439.36,464.64 439.84,467.10 440.32,465.74 440.80,464.09 441.28,462.93 441.76,462.25 442.24,461.97 442.73,462.02 443.21,462.34 443.69,462.84 444.17,463.48 444.65,464.19 445.13,464.92 445.61,465.63 446.09,466.26 446.58,466.77 447.06,467.06 447.54,467.07 448.02,466.92 448.50,466.75 448.98,466.62 449.46,466.58 449.95,466.61 450.43,466.71 450.91,466.85 451.39,466.95 451.87,466.87 452.35,466.58 452.83,466.14 453.31,465.63 453.80,465.13 454.28,464.70 454.76,464.43 455.24,464.36 455.72,464.58 456.20,465.15 456.68,466.10 457.17,467.05 457.65,465.80 458.13,463.21 458.61,459.88 459.09,455.87 459.57,451.17 460.05,445.82 460.53,439.84 461.02,433.29 461.50,426.26 461.98,418.84 462.46,411.15 462.94,403.31 463.42,395.46 463.90,387.75 464.38,380.33 464.87,373.36 465.35,366.97 465.83,361.29 466.31,356.44 466.79,352.52 467.27,349.60 467.75,347.73 468.24,346.93 468.72,347.18 469.20,348.45 469.68,350.67 470.16,353.74 470.64,357.55 471.12,361.96 471.60,366.81 472.09,371.93 472.57,377.14 473.05,382.24 473.53,387.03 474.01,391.32 474.49,394.91 474.97,397.63 475.46,399.32 475.94,399.88 476.42,399.29 476.90,397.58 477.38,394.84 477.86,391.24 478.34,386.95 478.82,382.17 479.31,377.09 479.79,371.92 480.27,366.84 480.75,362.04 481.23,357.68 481.71,353.91 482.19,350.86 482.68,348.66 483.16,347.38 483.64,347.08 484.12,347.81 484.60,349.56 485.08,352.31 485.56,356.02 486.04,360.61 486.53,366.00 487.01,372.08 487.49,378.71 487.97,385.78 488.45,393.15 488.93,400.69 489.41,408.26 489.89,415.74 490.38,423.03 490.86,430.01 491.34,436.62 491.82,442.77 492.30,448.40 492.78,453.49 493.26,457.98 493.75,461.83 494.23,464.89 494.71,466.11 495.19,464.84 495.67,463.37 496.15,462.31 496.63,461.72 497.11,461.62 497.60,462.02 498.08,462.90 498.56,464.25 499.04,466.02 499.52,466.93 500.00,464.41 500.48,461.10 500.97,457.25 501.45,452.90 501.93,448.06 502.41,442.78 502.89,437.09 503.37,431.02 503.85,424.66 504.33,418.06 504.82,411.31 505.30,404.52 505.78,397.79 506.26,391.22 506.74,384.94 507.22,379.06 507.70,373.70 508.19,368.96 508.67,364.96 509.15,361.77 509.63,359.47 510.11,358.12 510.59,357.75 511.07,358.38 511.55,360.00 512.04,362.58 512.52,366.08 513.00,370.43 513.48,375.54 513.96,381.31 514.44,387.62 514.92,394.36 515.41,401.39 515.89,408.58 516.37,415.81 516.85,422.93 517.33,429.85 517.81,436.44 518.29,442.61 518.77,448.28 519.26,453.39 519.74,457.89 520.22,461.73 520.70,464.87 521.18,466.92 521.66,466.11 522.14,464.85 522.62,464.02 523.11,463.63 523.59,463.62 524.07,463.90 524.55,464.38 525.03,464.95 525.51,465.52 525.99,466.00 526.48,466.33 526.96,466.61 527.44,466.98 527.92,467.58 528.40,467.37 528.88,465.91 529.36,463.92 529.84,461.36 530.33,458.20 530.81,454.44 531.29,450.10 531.77,445.20 532.25,439.79 532.73,433.92 533.21,427.68 533.70,421.15 534.18,414.43 534.66,407.64 535.14,400.89 535.62,394.31 536.10,388.01 536.58,382.13 537.06,376.77 537.55,372.06 538.03,368.08 538.51,364.93 538.99,362.67 539.47,361.35 539.95,361.00 540.43,361.62 540.92,363.21 541.40,365.73 541.88,369.11 542.36,373.29 542.84,378.17 543.32,383.64 543.80,389.60 544.28,395.90 544.77,402.43 545.25,409.05 545.73,415.65 546.21,422.10 546.69,428.30 547.17,434.17 547.65,439.62 548.13,444.61 548.62,449.09 549.10,453.07 549.58,456.54 550.06,459.52 550.54,462.06 551.02,464.17 551.50,465.80 551.99,466.33 552.47,465.36 552.95,463.80 553.43,461.96 553.91,459.83 554.39,457.34 554.87,454.44 555.35,451.08 555.84,447.24 556.32,442.91 556.80,438.11 557.28,432.86 557.76,427.22 558.24,421.27 558.72,415.08 559.21,408.76 559.69,402.42 560.17,396.19 560.65,390.19 561.13,384.55 561.61,379.38 562.09,374.82 562.57,370.95 563.06,367.88 563.54,365.68 564.02,364.40 564.50,364.08 564.98,364.73 565.46,366.34 565.94,368.85 566.43,372.20 566.91,376.29 567.39,380.96 567.87,386.05 568.35,391.31 568.83,396.47 569.31,401.19 569.79,405.09 570.28,407.78 570.76,408.97 571.24,408.52 571.72,406.52 572.20,403.24 572.68,399.06 573.16,394.36 573.64,389.49 574.13,384.76 574.61,380.40 575.09,376.59 575.57,373.48 576.05,371.17 576.53,369.74 577.01,369.21 577.50,369.62 577.98,370.94 578.46,373.15 578.94,376.18 579.42,379.98 579.90,384.45 580.38,389.50 580.86,395.01 581.35,400.88 581.83,406.99 582.31,413.23 582.79,419.48 583.27,425.63 583.75,431.59 584.23,437.27 584.72,442.61 585.20,447.53 585.68,451.99 586.16,455.96 586.64,459.43 587.12,462.39 587.60,464.85 588.08,466.78 588.57,467.33 589.05,466.32 589.53,465.54 590.01,465.06 590.49,464.83 590.97,464.82 591.45,464.99 591.94,465.28 592.42,465.67 592.90,466.12 593.38,466.61 593.86,467.12 594.34,467.59 594.82,467.63 595.30,467.18 595.79,466.68 596.27,466.20 596.75,465.73 597.23,465.31 597.71,464.94 598.19,464.65 598.67,464.45 599.15,464.38 599.64,464.46 600.12,464.73 600.60,465.21 601.08,465.88 601.56,466.50 602.04,466.19 602.52,464.66 603.01,462.47 603.49,459.75 603.97,456.56 604.45,452.90 604.93,448.79 605.41,444.25 605.89,439.34 606.37,434.10 606.86,428.59 607.34,422.88 607.82,417.07 608.30,411.25 608.78,405.51 609.26,399.95 609.74,394.68 610.23,389.80 610.71,385.39 611.19,381.56 611.67,378.37 612.15,375.90 612.63,374.18 613.11,373.28 613.59,373.19 614.08,373.94 614.56,375.51 615.04,377.88 615.52,381.01 616.00,384.85 616.48,389.33 616.96,394.40 617.45,399.97 617.93,405.97 618.41,412.29 618.89,418.84 619.37,425.49 619.85,432.10 620.33,438.40 620.81,443.98 621.30,448.07 621.78,449.57 622.26,447.88 622.74,443.72 623.22,438.19 623.70,432.04 624.18,425.67 624.67,419.32 625.15,413.15 625.63,407.28 626.11,401.80 626.59,396.80 627.07,392.35 627.55,388.53 628.03,385.38 628.52,382.95 629.00,381.28 629.48,380.38 629.96,380.25 630.44,380.89 630.92,382.26 631.40,384.33 631.88,387.04 632.37,390.33 632.85,394.12 633.33,398.34 633.81,402.90 634.29,407.71 634.77,412.70 635.25,417.79 635.74,422.90 636.22,427.98 636.70,432.98 637.18,437.85 637.66,442.59 638.14,447.17 638.62,451.61 639.10,455.91 639.59,460.08 640.07,464.07 640.55,466.23 641.03,462.93 641.51,458.81 641.99,454.49 642.47,450.02 642.96,445.38 643.44,440.59 643.92,435.64 644.40,430.57 644.88,425.41 645.36,420.21 645.84,415.04 646.32,409.97 646.81,405.07 647.29,400.44 647.77,396.15 648.25,392.30 648.73,388.95 649.21,386.18 649.69,384.05 650.18,382.60 650.66,381.87 651.14,381.88 651.62,382.61 652.10,384.07 652.58,386.20 653.06,388.96 653.54,392.29 654.03,396.12 654.51,400.37 654.99,404.94 655.47,409.76 655.95,414.74 656.43,419.79 656.91,424.85 657.39,429.85 657.88,434.74 658.36,439.48 658.84,444.05 659.32,448.45 659.80,452.68 660.28,456.75 660.76,460.70 661.25,464.55 661.73,467.36 662.21,463.73 662.69,459.86 663.17,455.89 663.65,451.79 664.13,447.53 664.61,443.11 665.10,438.51 665.58,433.77 666.06,428.90 666.54,423.94 667.02,418.96 667.50,414.01 667.98,409.19 668.47,404.56 668.95,400.22 669.43,396.26 669.91,392.77 670.39,389.82 670.87,387.49 671.35,385.84 671.83,384.91 672.32,384.74 672.80,385.33 673.28,386.68 673.76,388.77 674.24,391.55 674.72,394.96 675.20,398.95 675.69,403.41 676.17,408.26 676.65,413.39 677.13,418.70 677.61,424.09 678.09,429.46 678.57,434.71 679.05,439.76 679.54,444.54 680.02,448.99 680.50,453.05 680.98,456.70 681.46,459.92 681.94,462.71 682.42,465.07 682.90,466.97 683.39,467.13 683.87,465.93 684.35,464.95 684.83,464.20 685.31,463.63 685.79,463.22 686.27,462.93 686.76,462.73 687.24,462.60 687.72,462.53 688.20,462.52 688.68,462.57 689.16,462.71 689.64,462.97 690.12,463.37 690.61,463.97 691.09,464.79 691.57,465.88 692.05,467.22 692.53,466.82 693.01,464.71 693.49,462.17 693.98,459.21 694.46,455.84 694.94,452.08 695.42,447.95 695.90,443.50 696.38,438.79 696.86,433.88 697.34,428.84 697.83,423.77 698.31,418.74 698.79,413.85 699.27,409.19 699.75,404.84 700.23,400.88 700.71,397.39 701.20,394.42 701.68,392.02 702.16,390.23 702.64,389.04 703.12,388.48 703.60,388.50 704.08,389.07 704.56,390.13 705.05,391.61 705.53,393.42 706.01,395.43 706.49,397.52 706.97,399.56 707.45,401.42 707.93,402.95 708.41,404.05 708.90,404.62 709.38,404.62 709.86,404.07 710.34,402.99 710.82,401.50 711.30,399.70 711.78,397.73 712.27,395.73 712.75,393.81 713.23,392.10 713.71,390.71 714.19,389.73 714.67,389.22 715.15,389.25 715.63,389.85 716.12,391.04 716.60,392.83 717.08,395.21 717.56,398.13 718.04,401.56 718.52,405.43 719.00,409.68 719.49,414.21 719.97,418.94 720.45,423.77 720.93,428.62 721.41,433.37 721.89,437.94 722.37,442.23 722.85,446.14 723.34,449.51 723.82,452.15 724.30,453.79 724.78,454.17 725.26,453.23 725.74,451.15 726.22,448.24 726.71,444.71 727.19,440.74 727.67,436.45 728.15,431.92 728.63,427.27 729.11,422.59 729.59,417.97 730.07,413.52 730.56,409.34 731.04,405.52 731.52,402.15 732.00,399.32 732.48,397.08 732.96,395.50 733.44,394.60 733.93,394.40 734.41,394.91 734.89,396.11 735.37,397.96 735.85,400.41 736.33,403.41 736.81,406.89 737.29,410.75 737.78,414.92 738.26,419.31 738.74,423.82 739.22,428.37 739.70,432.88 740.18,437.25 740.66,441.44 741.14,445.38 741.63,449.02 742.11,452.33 742.59,455.28 743.07,457.87 743.55,460.09 744.03,461.95 744.51,463.48 745.00,464.71 745.48,465.66 745.96,466.39 746.44,466.95 746.92,467.40 747.40,467.77 747.88,467.82 748.36,467.48 748.85,467.13 749.33,466.81 749.81,466.52 750.29,466.31 750.77,466.19 751.25,466.19 751.73,466.32 752.22,466.48 752.70,466.40 753.18,465.74 753.66,464.46 754.14,462.68 754.62,460.43 755.10,457.75 755.58,454.64 756.07,451.13 756.55,447.26 757.03,443.07 757.51,438.62 757.99,433.99 758.47,429.25 758.95,424.49 759.44,419.80 759.92,415.28 760.40,411.03 760.88,407.13 761.36,403.68 761.84,400.74 762.32,398.37 762.80,396.64 763.29,395.55 763.77,395.14 764.25,395.39 764.73,396.27 765.21,397.74 765.69,399.74 766.17,402.19 766.65,405.00 767.14,408.07 767.62,411.30 768.10,414.57 768.58,417.77 769.06,420.80 769.54,423.55 770.02,425.93 770.51,427.87 770.99,429.30 771.47,430.18 771.95,430.49 772.43,430.22 772.91,429.38 773.39,428.02 773.87,426.18 774.36,423.93 774.84,421.36 775.32,418.56 775.80,415.62 776.28,412.65 776.76,409.77 777.24,407.06 777.73,404.62 778.21,402.56 778.69,400.93 779.17,399.82 779.65,399.26 780.13,399.30 780.61,399.95 781.09,401.21 781.58,403.08 782.06,405.51 782.54,408.48 783.02,411.91 783.50,415.74 783.98,419.89 784.46,424.28 784.95,428.82 785.43,433.41 785.91,437.97 786.39,442.39 786.87,446.60 787.35,450.52 787.83,454.06 788.31,457.16 788.80,459.77 789.28,461.86 789.76,463.40 790.24,464.44 790.72,465.01 791.20,465.05 791.68,464.43 792.16,463.13 792.65,461.20 793.13,458.75 793.61,455.84 794.09,452.54 794.57,448.90 795.05,445.01 795.53,440.94 796.02,436.75 796.50,432.52 796.98,428.32 797.46,424.23 797.94,420.30 798.42,416.60 798.90,413.17 799.38,410.05 799.87,407.29 800.35,404.89 800.83,402.88 801.31,401.25 801.79,399.98 802.27,399.07 802.75,398.48 803.24,398.16 803.72,398.09 804.20,398.21 804.68,398.46 805.16,398.79 805.64,399.16 806.12,399.52 806.60,399.82 807.09,400.04 807.57,400.14 808.05,400.12 808.53,399.97 809.01,399.71 809.49,399.35 809.97,398.93 810.46,398.48 810.94,398.06 811.42,397.70 811.90,397.46 812.38,397.40 812.86,397.55 813.34,397.97 813.82,398.70 814.31,399.76 814.79,401.18 815.27,402.96 815.75,405.12 816.23,407.64 816.71,410.49 817.19,413.65 817.68,417.08 818.16,420.72 818.64,424.53 819.12,428.44 819.60,432.39 820.08,436.32 820.56,440.17 821.04,443.88 821.53,447.40 822.01,450.69 822.49,453.71 822.97,456.43 823.45,458.83 823.93,460.90 824.41,462.65 824.89,464.06 825.38,465.15 825.86,465.91 826.34,466.34 826.82,466.48 827.30,466.45 827.78,466.34 828.26,466.19 828.75,466.04 829.23,465.88 829.71,465.73 830.19,465.59 830.67,465.48 831.15,465.42 831.63,465.42 832.11,465.50 832.60,465.64 833.08,465.79 833.56,465.82 834.04,465.50 834.52,464.69 835.00,463.41 835.48,461.71 835.97,459.63 836.45,457.19 836.93,454.42 837.41,451.33 837.89,447.97 838.37,444.36 838.85,440.56 839.33,436.63 839.82,432.62 840.30,428.61 840.78,424.68 841.26,420.88 841.74,417.31 842.22,414.03 842.70,411.11 843.19,408.61 843.67,406.58 844.15,405.08 844.63,404.12 845.11,403.74 845.59,403.93 846.07,404.71 846.55,406.04 847.04,407.89 847.52,410.24 848.00,413.03 848.48,416.19 848.96,419.67 849.44,423.40 849.92,427.31 850.40,431.32 850.89,435.36 851.37,439.37 851.85,443.26 852.33,446.95 852.81,450.32 853.29,453.17 853.77,455.20 854.26,456.01 854.74,455.37 855.22,453.46 855.70,450.67 856.18,447.31 856.66,443.59 857.14,439.65 857.62,435.58 858.11,431.47 858.59,427.40 859.07,423.44 859.55,419.68 860.03,416.21 860.51,413.11 860.99,410.46 861.48,408.33 861.96,406.78 862.44,405.85 862.92,405.59 863.40,406.01 863.88,407.09 864.36,408.80 864.84,411.07 865.33,413.81 865.81,416.89 866.29,420.11 866.77,423.25 867.25,426.03 867.73,428.14 868.21,429.30 868.70,429.33 869.18,428.21 869.66,426.12 870.14,423.32 870.62,420.11 871.10,416.80 871.58,413.60 872.06,410.73 872.55,408.31 873.03,406.45 873.51,405.24 873.99,404.70 874.47,404.86 874.95,405.70 875.43,407.21 875.91,409.32 876.40,411.99 876.88,415.13 877.36,418.66 877.84,422.50 878.32,426.55 878.80,430.71 879.28,434.89 879.77,439.01 880.25,442.98 880.73,446.74 881.21,450.22 881.69,453.39 882.17,456.22 882.65,458.67 883.13,460.77 883.62,462.51 884.10,463.92 884.58,465.04 885.06,465.92 885.54,466.57 886.02,466.95 886.50,466.90 886.99,466.44 887.47,465.72 887.95,464.78 888.43,463.61 888.91,462.18 889.39,460.45 889.87,458.41 890.35,456.05 890.84,453.37 891.32,450.38 891.80,447.10 892.28,443.60 892.76,439.90 893.24,436.08 893.72,432.21 894.21,428.36 894.69,424.61 895.17,421.03 895.65,417.70 896.13,414.70 896.61,412.08 897.09,409.90 897.57,408.21 898.06,407.03 898.54,406.39 899.02,406.29 899.50,406.72 899.98,407.67 900.46,409.11 900.94,410.99 901.42,413.27 901.91,415.89 902.39,418.79 902.87,421.92 903.35,425.21 903.83,428.61 904.31,432.07 904.79,435.53 905.28,438.95 905.76,442.32 906.24,445.60 906.72,448.79 907.20,451.87 907.68,454.86 908.16,457.76 908.64,460.57 909.13,463.23 909.61,465.36 910.09,465.18 910.57,462.84 911.05,459.98 911.53,456.90 912.01,453.68 912.50,450.32 912.98,446.84 913.46,443.27 913.94,439.63 914.42,435.95 914.90,432.29 915.38,428.70 915.86,425.21 916.35,421.90 916.83,418.82 917.31,416.04 917.79,413.59 918.27,411.54 918.75,409.93 919.23,408.79 919.72,408.15 920.20,408.03 920.68,408.42 921.16,409.33 921.64,410.73 922.12,412.60 922.60,414.90 923.08,417.58 923.57,420.58 924.05,423.86 924.53,427.34 925.01,430.97 925.49,434.68 925.97,438.41 926.45,442.12 926.94,445.75 927.42,449.27 927.90,452.66 928.38,455.89 928.86,458.95 929.34,461.76 929.82,464.06 930.30,464.75 930.79,463.13 931.27,460.54 931.75,457.62 932.23,454.51 932.71,451.25 933.19,447.87 933.67,444.39 934.15,440.85 934.64,437.29 935.12,433.76 935.60,430.31 936.08,427.00 936.56,423.88 937.04,421.02 937.52,418.46 938.01,416.26 938.49,414.45 938.97,413.07 939.45,412.16 939.93,411.72 940.41,411.76 940.89,412.28 941.37,413.27 941.86,414.70 942.34,416.53 942.82,418.72 943.30,421.21 943.78,423.93 944.26,426.79 944.74,429.69 945.23,432.50 945.71,435.07 946.19,437.23 946.67,438.80 947.15,439.61 947.63,439.59 948.11,438.73 948.59,437.14 949.08,434.99 949.56,432.45 950.04,429.69 950.52,426.86 951.00,424.08 951.48,421.43 951.96,419.01 952.45,416.87 952.93,415.08 953.41,413.66 953.89,412.66 954.37,412.10 954.85,411.97 955.33,412.30 955.81,413.07 956.30,414.25 956.78,415.84 957.26,417.78 957.74,420.04 958.22,422.55 958.70,425.26 959.18,428.06 959.66,430.88 960.15,433.58 960.63,436.02 961.11,438.03 961.59,439.46 962.07,440.15 962.55,440.01 963.03,439.08 963.52,437.45 964.00,435.29 964.48,432.76 964.96,430.03 965.44,427.25 965.92,424.52 966.40,421.96 966.88,419.63 967.37,417.61 967.85,415.96 968.33,414.71 968.81,413.91 969.29,413.57 969.77,413.70 970.25,414.30 970.74,415.37 971.22,416.89 971.70,418.82 972.18,421.12 972.66,423.75 973.14,426.66 973.62,429.80 974.10,433.09 974.59,436.49 975.07,439.92 975.55,443.34 976.03,446.68 976.51,449.88 976.99,452.91 977.47,455.71 977.96,458.25 978.44,460.48 978.92,462.35 979.40,463.80 979.88,464.76 980.36,465.17 980.84,465.19 981.32,465.04 981.81,464.91 982.29,464.89 982.77,464.99 983.25,465.21 983.73,465.54 984.21,465.96 984.69,466.41 985.17,466.86 985.66,467.18 986.14,467.20 986.62,466.93 987.10,466.59 987.58,466.29 988.06,466.08 988.54,465.98 989.03,466.03 989.51,466.22 989.99,466.55 990.47,466.91 990.95,466.89 991.43,466.13 991.91,464.90 992.39,463.35 992.88,461.50 993.36,459.38 993.84,456.99 994.32,454.35 994.80,451.47 995.28,448.37 995.76,445.07 996.25,441.61 996.73,438.01 997.21,434.31 997.69,430.56 998.17,426.78 998.65,423.03 999.13,419.34 999.61,415.75 1000.10,412.31 1000.58,409.04 1001.06,405.99 1001.54,403.18 1002.02,400.63 1002.50,398.36 1002.98,396.40 1003.47,394.75 1003.95,393.43 1004.43,392.45 1004.91,391.80 1005.39,391.49 1005.87,391.52 1006.35,391.89 1006.83,392.60 1007.32,393.63 1007.80,394.99 1008.28,396.66 1008.76,398.62 1009.24,400.87 1009.72,403.37 1010.20,406.11 1010.68,409.05 1011.17,412.17 1011.65,415.43 1012.13,418.79 1012.61,422.22 1013.09,425.68 1013.57,429.14 1014.05,432.56 1014.54,435.91 1015.02,439.18 1015.50,442.35 1015.98,445.39 1016.46,448.32 1016.94,451.13 1017.42,453.84 1017.90,456.46 1018.39,459.02 1018.87,461.54 1019.35,464.04 1019.83,466.53 1020.31,466.70 1020.79,464.10 1021.27,461.36 1021.76,458.52 1022.24,455.56 1022.72,452.50 1023.20,449.36 1023.68,446.15 1024.16,442.90 1024.64,439.65 1025.12,436.45 1025.61,433.34 1026.09,430.37 1026.57,427.60 1027.05,425.07 1027.53,422.84 1028.01,420.95 1028.49,419.44 1028.98,418.34 1029.46,417.68 1029.94,417.48 1030.42,417.73 1030.90,418.42 1031.38,419.55 1031.86,421.07 1032.34,422.95 1032.83,425.14 1033.31,427.58 1033.79,430.21 1034.27,432.95 1034.75,435.71 1035.23,438.40 1035.71,440.89 1036.20,443.06 1036.68,444.75 1037.16,445.82 1037.64,446.15 1038.12,445.70 1038.60,444.52 1039.08,442.72 1039.56,440.43 1040.05,437.81 1040.53,434.97 1041.01,432.03 1041.49,429.06 1041.97,426.16 1042.45,423.40 1042.93,420.85 1043.41,418.56 1043.90,416.61 1044.38,415.03 1044.86,413.86 1045.34,413.15 1045.82,412.90 1046.30,413.13 1046.78,413.84 1047.27,415.01 1047.75,416.62 1048.23,418.64 1048.71,421.02 1049.19,423.71 1049.67,426.65 1050.15,429.80 1050.63,433.08 1051.12,436.43 1051.60,439.81 1052.08,443.14 1052.56,446.39 1053.04,449.51 1053.52,452.48 1054.00,455.26 1054.49,457.85 1054.97,460.25 1055.45,462.48 1055.93,464.56 1056.41,466.51 1056.89,467.45 1057.37,465.65 1057.85,463.74 1058.34,461.75 1058.82,459.65 1059.30,457.40 1059.78,455.00 1060.26,452.44 1060.74,449.73 1061.22,446.90 1061.71,443.96 1062.19,440.96 1062.67,437.94 1063.15,434.95 1063.63,432.04 1064.11,429.26 1064.59,426.68 1065.07,424.35 1065.56,422.31 1066.04,420.61 1066.52,419.29 1067.00,418.39 1067.48,417.91 1067.96,417.89 1068.44,418.31 1068.92,419.18 1069.41,420.47 1069.89,422.17 1070.37,424.22 1070.85,426.59 1071.33,429.24 1071.81,432.09 1072.29,435.11 1072.78,438.23 1073.26,441.39 1073.74,444.54 1074.22,447.62 1074.70,450.59 1075.18,453.41 1075.66,456.06 1076.14,458.50 1076.63,460.73 1077.11,462.75 1077.59,464.58"/>
  <line x1="181.85" y1="42.00" x2="181.85" y2="468" stroke="#b45309" stroke-width="1" opacity="0.55"/>
<line x1="240.09" y1="183.69" x2="240.09" y2="468" stroke="#b45309" stroke-width="1" opacity="0.55"/>
<line x1="273.78" y1="228.46" x2="273.78" y2="468" stroke="#b45309" stroke-width="1" opacity="0.55"/>
<line x1="319.51" y1="271.31" x2="319.51" y2="468" stroke="#b45309" stroke-width="1" opacity="0.55"/>
<line x1="341.17" y1="288.14" x2="341.17" y2="468" stroke="#b45309" stroke-width="1" opacity="0.55"/>
<line x1="380.15" y1="307.73" x2="380.15" y2="468" stroke="#b45309" stroke-width="1" opacity="0.55"/>
<line x1="408.55" y1="320.40" x2="408.55" y2="468" stroke="#b45309" stroke-width="1" opacity="0.55"/>
<line x1="428.77" y1="331.01" x2="428.77" y2="468" stroke="#b45309" stroke-width="1" opacity="0.55"/>
<line x1="468.24" y1="346.93" x2="468.24" y2="468" stroke="#b45309" stroke-width="1" opacity="0.55"/>
<line x1="483.64" y1="347.08" x2="483.64" y2="468" stroke="#b45309" stroke-width="1" opacity="0.55"/>
<line x1="510.59" y1="357.75" x2="510.59" y2="468" stroke="#b45309" stroke-width="1" opacity="0.55"/>
<line x1="539.95" y1="361.00" x2="539.95" y2="468" stroke="#b45309" stroke-width="1" opacity="0.55"/>
<line x1="564.50" y1="364.08" x2="564.50" y2="468" stroke="#b45309" stroke-width="1" opacity="0.55"/>
<line x1="577.01" y1="369.21" x2="577.01" y2="468" stroke="#b45309" stroke-width="1" opacity="0.55"/>
<line x1="613.59" y1="373.19" x2="613.59" y2="468" stroke="#b45309" stroke-width="1" opacity="0.55"/>
<line x1="629.96" y1="380.25" x2="629.96" y2="468" stroke="#b45309" stroke-width="1" opacity="0.55"/>
<line x1="650.66" y1="381.87" x2="650.66" y2="468" stroke="#b45309" stroke-width="1" opacity="0.55"/>
<line x1="672.32" y1="384.74" x2="672.32" y2="468" stroke="#b45309" stroke-width="1" opacity="0.55"/>
<line x1="703.12" y1="388.48" x2="703.12" y2="468" stroke="#b45309" stroke-width="1" opacity="0.55"/>
<line x1="714.67" y1="389.22" x2="714.67" y2="468" stroke="#b45309" stroke-width="1" opacity="0.55"/>
<line x1="1005.39" y1="391.49" x2="1005.39" y2="468" stroke="#b45309" stroke-width="1" opacity="0.55"/>
<line x1="733.93" y1="394.40" x2="733.93" y2="468" stroke="#b45309" stroke-width="1" opacity="0.55"/>
<line x1="763.77" y1="395.14" x2="763.77" y2="468" stroke="#b45309" stroke-width="1" opacity="0.55"/>
<line x1="812.38" y1="397.40" x2="812.38" y2="468" stroke="#b45309" stroke-width="1" opacity="0.55"/>
<line x1="803.72" y1="398.09" x2="803.72" y2="468" stroke="#b45309" stroke-width="1" opacity="0.55"/>
<line x1="779.65" y1="399.26" x2="779.65" y2="468" stroke="#b45309" stroke-width="1" opacity="0.55"/>
<line x1="845.11" y1="403.74" x2="845.11" y2="468" stroke="#b45309" stroke-width="1" opacity="0.55"/>
<line x1="873.99" y1="404.70" x2="873.99" y2="468" stroke="#b45309" stroke-width="1" opacity="0.55"/>
<line x1="862.92" y1="405.59" x2="862.92" y2="468" stroke="#b45309" stroke-width="1" opacity="0.55"/>
<line x1="899.02" y1="406.29" x2="899.02" y2="468" stroke="#b45309" stroke-width="1" opacity="0.55"/>
  <text x="570" y="516" font-size="13" text-anchor="middle" fill="#334155">log-frequency gamma</text>
  <text x="15" y="255" font-size="13" text-anchor="middle" fill="#334155" transform="rotate(-90 15 255)">Hann DFT amplitude</text>
</svg>
