<?xml version="1.0" encoding="UTF-8"?>
<svg xmlns="http://www.w3.org/2000/svg" width="1100" height="520" viewBox="0 0 1100 520">
  <rect width="100%" height="100%" fill="#f8fafc"/>
  <text x="62" y="25" font-size="20" font-family="system-ui, -apple-system, sans-serif" font-weight="700" fill="#0f172a">twin-full</text>
  <rect x="62" y="42" width="1016" height="426" fill="#ffffff" stroke="#cbd5e1"/>
  <line x1="62" y1="468" x2="62" y2="473" stroke="#475569"/>
  <text x="62" y="502" font-size="12" text-anchor="middle" fill="#334155">0</text>
  <line x1="146.66666666666666" y1="468" x2="146.66666666666666" y2="473" stroke="#475569"/>
  <text x="146.66666666666666" y="502" font-size="12" text-anchor="middle" fill="#334155">10</text>
  <line x1="231.33333333333331" y1="468" x2="231.33333333333331" y2="473" stroke="#475569"/>
  <text x="231.33333333333331" y="502" font-size="12" text-anchor="middle" fill="#334155">20</text>
  <line x1="316" y1="468" x2="316" y2="473" stroke="#475569"/>
  <text x="316" y="502" font-size="12" text-anchor="middle" fill="#334155">30</text>
  <line x1="400.66666666666663" y1="468" x2="400.66666666666663" y2="473" stroke="#475569"/>
  <text x="400.66666666666663" y="502" font-size="12" text-anchor="middle" fill="#334155">40</text>
  <line x1="485.33333333333337" y1="468" x2="485.33333333333337" y2="473" stroke="#475569"/>
  <text x="485.33333333333337" y="502" font-size="12" text-anchor="middle" fill="#334155">50</text>
  <line x1="570" y1="468" x2="570" y2="473" stroke="#475569"/>
  <text x="570" y="502" font-size="12" text-anchor="middle" fill="#334155">60</text>
  <line x1="654.6666666666667" y1="468" x2="654.6666666666667" y2="473" stroke="#475569"/>
  <text x="654.6666666666667" y="502" font-size="12" text-anchor="middle" fill="#334155">70</text>
  <line x1="739.3333333333333" y1="468" x2="739.3333333333333" y2="473" stroke="#475569"/>
  <text x="739.3333333333333" y="502" font-size="12" text-anchor="middle" fill="#334155">80</text>
  <line x1="824" y1="468" x2="824" y2="473" stroke="#475569"/>
  <text x="824" y="502" font-size="12" text-anchor="middle" fill="#334155">90</text>
  <line x1="908.6666666666667" y1="468" x2="908.6666666666667" y2="473" stroke="#475569"/>
  <text x="908.6666666666667" y="502" font-size="12" text-anchor="middle" fill="#334155">100</text>
  <line x1="993.3333333333333" y1="468" x2="993.3333333333333" y2="473" stroke="#475569"/>
  <text x="993.3333333333333" y="502" font-size="12" text-anchor="middle" fill="#334155">110</text>
  <line x1="1078" y1="468" x2="1078" y2="473" stroke="#475569"/>
  <text x="1078" y="502" font-size="12" text-anchor="middle" fill="#334155">120</text>
  <line x1="57" y1="468" x2="62" y2="468" stroke="#475569"/>
  <text x="52" y="472" font-size="12" text-anchor="end" fill="#334155">0.000</text>
  <line x1="57" y1="361.5" x2="62" y2="361.5" stroke="#475569"/>
  <text x="52" y="365.5" font-size="12" text-anchor="end" fill="#334155">0.011</text>
  <line x1="57" y1="255" x2="62" y2="255" stroke="#475569"/>
  <text x="52" y="259" font-size="12" text-anchor="end" fill="#334155">0.022</text>
  <line x1="57" y1="148.5" x2="62" y2="148.5" stroke="#475569"/>
  <text x="52" y="152.5" font-size="12" text-anchor="end" fill="#334155">0.034</text>
  <line x1="57" y1="42" x2="62" y2="42" stroke="#475569"/>
  <text x="52" y="46" font-size="12" text-anchor="end" fill="#334155">0.045</text>
  <line x1="181.67" y1="42" x2="181.67" y2="468" stroke="#2563eb" stroke-width="1" opacity="0.28"><title>zero 1</title></line>
<line x1="239.99" y1="42" x2="239.99" y2="468" stroke="#2563eb" stroke-width="1" opacity="0.28"><title>zero 2</title></line>
<line x1="273.76" y1="42" x2="273.76" y2="468" stroke="#2563eb" stroke-width="1" opacity="0.28"><title>zero 3</title></line>
<line x1="319.60" y1="42" x2="319.60" y2="468" stroke="#2563eb" stroke-width="1" opacity="0.28"><title>zero 4</title></line>
<line x1="340.85" y1="42" x2="340.85" y2="468" stroke="#2563eb" stroke-width="1" opacity="0.28"><title>zero 5</title></line>
<line x1="380.23" y1="42" x2="380.23" y2="468" stroke="#2563eb" stroke-width="1" opacity="0.28"><title>zero 6</title></line>
<line x1="408.45" y1="42" x2="408.45" y2="468" stroke="#2563eb" stroke-width="1" opacity="0.28"><title>zero 7</title></line>
<line x1="428.84" y1="42" x2="428.84" y2="468" stroke="#2563eb" stroke-width="1" opacity="0.28"><title>zero 8</title></line>
<line x1="468.44" y1="42" x2="468.44" y2="468" stroke="#2563eb" stroke-width="1" opacity="0.28"><title>zero 9</title></line>
<line x1="483.42" y1="42" x2="483.42" y2="468" stroke="#2563eb" stroke-width="1" opacity="0.28"><title>zero 10</title></line>
<line x1="510.48" y1="42" x2="510.48" y2="468" stroke="#2563eb" stroke-width="1" opacity="0.28"><title>zero 11</title></line>
<line x1="539.91" y1="42" x2="539.91" y2="468" stroke="#2563eb" stroke-width="1" opacity="0.28"><title>zero 12</title></line>
<line x1="564.47" y1="42" x2="564.47" y2="468" stroke="#2563eb" stroke-width="1" opacity="0.28"><title>zero 13</title></line>
<line x1="577.04" y1="42" x2="577.04" y2="468" stroke="#2563eb" stroke-width="1" opacity="0.28"><title>zero 14</title></line>
<line x1="613.29" y1="42" x2="613.29" y2="468" stroke="#2563eb" stroke-width="1" opacity="0.28"><title>zero 15</title></line>
<line x1="629.94" y1="42" x2="629.94" y2="468" stroke="#2563eb" stroke-width="1" opacity="0.28"><title>zero 16</title></line>
<line x1="650.83" y1="42" x2="650.83" y2="468" stroke="#2563eb" stroke-width="1" opacity="0.28"><title>zero 17</title></line>
<line x1="672.17" y1="42" x2="672.17" y2="468" stroke="#2563eb" stroke-width="1" opacity="0.28"><title>zero 18</title></line>
<line x1="702.97" y1="42" x2="702.97" y2="468" stroke="#2563eb" stroke-width="1" opacity="0.28"><title>zero 19</title></line>
<line x1="715.16" y1="42" x2="715.16" y2="468" stroke="#2563eb" stroke-width="1" opacity="0.28"><title>zero 20</title></line>
<line x1="733.72" y1="42" x2="733.72" y2="468" stroke="#2563eb" stroke-width="1" opacity="0.28"><title>zero 21</title></line>
<line x1="763.97" y1="42" x2="763.97" y2="468" stroke="#2563eb" stroke-width="1" opacity="0.28"><title>zero 22</title></line>
<line x1="779.43" y1="42" x2="779.43" y2="468" stroke="#2563eb" stroke-width="1" opacity="0.28"><title>zero 23</title></line>
<line x1="802.20" y1="42" x2="802.20" y2="468" stroke="#2563eb" stroke-width="1" opacity="0.28"><title>zero 24</title></line>
<line x1="813.92" y1="42" x2="813.92" y2="468" stroke="#2563eb" stroke-width="1" opacity="0.28"><title>zero 25</title></line>
<line x1="845.10" y1="42" x2="845.10" y2="468" stroke="#2563eb" stroke-width="1" opacity="0.28"><title>zero 26</title></line>
<line x1="863.38" y1="42" x2="863.38" y2="468" stroke="#2563eb" stroke-width="1" opacity="0.28"><title>zero 27</title></line>
<line x1="873.70" y1="42" x2="873.70" y2="468" stroke="#2563eb" stroke-width="1" opacity="0.28"><title>zero 28</title></line>
<line x1="898.77" y1="42" x2="898.77" y2="468" stroke="#2563eb" stroke-width="1" opacity="0.28"><title>zero 29</title></line>
<line x1="919.82" y1="42" x2="919.82" y2="468" stroke="#2563eb" stroke-width="1" opacity="0.28"><title>zero 30</title></line>
<line x1="940.21" y1="42" x2="940.21" y2="468" stroke="#2563eb" stroke-width="1" opacity="0.28"><title>zero 31</title></line>
<line x1="954.78" y1="42" x2="954.78" y2="468" stroke="#2563eb" stroke-width="1" opacity="0.28"><title>zero 32</title></line>
<line x1="969.36" y1="42" x2="969.36" y2="468" stroke="#2563eb" stroke-width="1" opacity="0.28"><title>zero 33</title></line>
<line x1="1002.05" y1="42" x2="1002.05" y2="468" stroke="#2563eb" stroke-width="1" opacity="0.28"><title>zero 34</title></line>
<line x1="1009.21" y1="42" x2="1009.21" y2="468" stroke="#2563eb" stroke-width="1" opacity="0.28"><title>zero 35</title></line>
  <polyline fill="none" stroke="#0f766e" stroke-width="1.4" points="62.96,42.72 63.44,42.43 63.93,42.15 64.41,42.00 64.89,42.13 65.37,42.70 65.85,43.89 66.33,45.84 66.81,48.73 67.29,52.68 67.78,57.81 68.26,64.18 68.74,71.80 69.22,80.66 69.70,90.67 70.18,101.68 70.66,113.49 71.15,125.86 71.63,138.48 72.11,151.01 72.59,163.10 73.07,174.39 73.55,184.57 74.03,193.38 74.51,200.64 75.00,206.31 75.48,210.45 75.96,213.24 76.44,214.95 76.92,215.90 77.40,216.41 77.88,216.79 78.36,217.32 78.85,218.18 79.33,219.51 79.81,221.36 80.29,223.70 80.77,226.46 81.25,229.53 81.73,232.75 82.22,235.97 82.70,239.06 83.18,241.93 83.66,244.51 84.14,246.84 84.62,248.99 85.10,251.09 85.58,253.31 86.07,255.86 86.55,258.94 87.03,262.73 87.51,267.39 87.99,273.04 88.47,279.76 88.95,287.57 89.44,296.43 89.92,306.26 90.40,316.95 90.88,328.34 91.36,340.23 91.84,352.42 92.32,364.66 92.80,376.73 93.29,388.36 93.77,399.29 94.25,409.21 94.73,417.81 95.21,424.70 95.69,429.53 96.17,432.07 96.66,432.43 97.14,431.05 97.62,428.52 98.10,425.36 98.58,421.94 99.06,418.48 99.54,415.13 100.02,411.97 100.51,409.05 100.99,406.41 101.47,404.07 101.95,402.05 102.43,400.36 102.91,398.98 103.39,397.92 103.87,397.15 104.36,396.66 104.84,396.43 105.32,396.44 105.80,396.68 106.28,397.14 106.76,397.84 107.24,398.77 107.73,399.97 108.21,401.45 108.69,403.25 109.17,405.37 109.65,407.81 110.13,410.58 110.61,413.63 111.09,416.91 111.58,420.31 112.06,423.70 112.54,426.88 113.02,429.61 113.50,431.61 113.98,432.61 114.46,432.42 114.95,431.03 115.43,428.57 115.91,425.29 116.39,421.47 116.87,417.36 117.35,413.18 117.83,409.09 118.31,405.23 118.80,401.71 119.28,398.62 119.76,396.02 120.24,393.98 120.72,392.54 121.20,391.71 121.68,391.52 122.17,391.98 122.65,393.06 123.13,394.76 123.61,397.04 124.09,399.84 124.57,403.10 125.05,406.74 125.53,410.65 126.02,414.71 126.50,418.77 126.98,422.65 127.46,426.16 127.94,429.10 128.42,431.31 128.90,432.67 129.39,433.20 129.87,433.01 130.35,432.32 130.83,431.37 131.31,430.41 131.79,429.62 132.27,429.18 132.75,429.17 133.24,429.68 133.72,430.71 134.20,432.26 134.68,434.26 135.16,436.63 135.64,439.20 136.12,441.77 136.60,444.04 137.09,445.63 137.57,446.17 138.05,445.44 138.53,443.48 139.01,440.57 139.49,437.03 139.97,433.14 140.46,429.11 140.94,425.09 141.42,421.19 141.90,417.46 142.38,413.95 142.86,410.69 143.34,407.69 143.82,404.95 144.31,402.45 144.79,400.18 145.27,398.13 145.75,396.27 146.23,394.59 146.71,393.07 147.19,391.70 147.68,390.47 148.16,389.38 148.64,388.42 149.12,387.60 149.60,386.93 150.08,386.43 150.56,386.11 151.04,385.98 151.53,386.07 152.01,386.41 152.49,387.00 152.97,387.87 153.45,389.04 153.93,390.52 154.41,392.32 154.90,394.44 155.38,396.88 155.86,399.64 156.34,402.69 156.82,406.02 157.30,409.60 157.78,413.38 158.26,417.32 158.75,421.37 159.23,425.45 159.71,429.49 160.19,433.42 160.67,437.14 161.15,440.56 161.63,443.57 162.11,446.10 162.60,448.08 163.08,449.51 163.56,450.46 164.04,451.05 164.52,451.42 165.00,451.73 165.48,452.08 165.97,452.52 166.45,453.06 166.93,453.65 167.41,454.14 167.89,454.37 168.37,454.14 168.85,453.32 169.33,451.88 169.82,449.92 170.30,447.58 170.78,445.05 171.26,442.47 171.74,439.97 172.22,437.69 172.70,435.72 173.19,434.14 173.67,433.04 174.15,432.46 174.63,432.45 175.11,433.02 175.59,434.18 176.07,435.92 176.55,438.22 177.04,441.03 177.52,444.30 178.00,447.96 178.48,451.93 178.96,456.13 179.44,460.47 179.92,464.78 180.41,466.26 180.89,462.25 181.37,458.21 181.85,454.40 182.33,450.91 182.81,447.80 183.29,445.10 183.77,442.84 184.26,441.04 184.74,439.70 185.22,438.81 185.70,438.36 186.18,438.31 186.66,438.63 187.14,439.29 187.62,440.23 188.11,441.43 188.59,442.83 189.07,444.39 189.55,446.07 190.03,447.84 190.51,449.65 190.99,451.47 191.48,453.27 191.96,455.00 192.44,456.61 192.92,458.07 193.40,459.30 193.88,460.25 194.36,460.88 194.84,461.19 195.33,461.23 195.81,461.11 196.29,460.94 196.77,460.78 197.25,460.68 197.73,460.67 198.21,460.72 198.70,460.78 199.18,460.73 199.66,460.47 200.14,459.88 200.62,458.92 201.10,457.59 201.58,455.95 202.06,454.08 202.55,452.07 203.03,449.97 203.51,447.87 203.99,445.81 204.47,443.86 204.95,442.06 205.43,440.46 205.92,439.08 206.40,437.96 206.88,437.12 207.36,436.57 207.84,436.31 208.32,436.35 208.80,436.68 209.28,437.28 209.77,438.13 210.25,439.21 210.73,440.49 211.21,441.93 211.69,443.51 212.17,445.18 212.65,446.91 213.14,448.65 213.62,450.38 214.10,452.04 214.58,453.60 215.06,455.01 215.54,456.22 216.02,457.19 216.50,457.87 216.99,458.22 217.47,458.24 217.95,457.94 218.43,457.37 218.91,456.57 219.39,455.59 219.87,454.49 220.35,453.28 220.84,451.99 221.32,450.66 221.80,449.31 222.28,447.95 222.76,446.62 223.24,445.32 223.72,444.08 224.21,442.92 224.69,441.86 225.17,440.91 225.65,440.10 226.13,439.43 226.61,438.91 227.09,438.56 227.57,438.38 228.06,438.37 228.54,438.54 229.02,438.88 229.50,439.38 229.98,440.04 230.46,440.85 230.94,441.78 231.43,442.84 231.91,443.99 232.39,445.21 232.87,446.48 233.35,447.78 233.83,449.05 234.31,450.28 234.79,451.42 235.28,452.43 235.76,453.27 236.24,453.90 236.72,454.32 237.20,454.50 237.68,454.48 238.16,454.27 238.65,453.93 239.13,453.50 239.61,453.03 240.09,452.56 240.57,452.11 241.05,451.72 241.53,451.40 242.01,451.18 242.50,451.04 242.98,451.00 243.46,451.04 243.94,451.18 244.42,451.38 244.90,451.64 245.38,451.94 245.86,452.27 246.35,452.61 246.83,452.94 247.31,453.26 247.79,453.56 248.27,453.83 248.75,454.09 249.23,454.35 249.72,454.61 250.20,454.91 250.68,455.25 251.16,455.66 251.64,456.15 252.12,456.73 252.60,457.41 253.08,458.16 253.57,458.98 254.05,459.84 254.53,460.66 255.01,461.37 255.49,461.84 255.97,461.93 256.45,461.59 256.94,460.85 257.42,459.81 257.90,458.60 258.38,457.30 258.86,455.97 259.34,454.68 259.82,453.45 260.30,452.32 260.79,451.31 261.27,450.44 261.75,449.71 262.23,449.13 262.71,448.69 263.19,448.40 263.67,448.25 264.16,448.22 264.64,448.29 265.12,448.45 265.60,448.67 266.08,448.93 266.56,449.19 267.04,449.44 267.52,449.63 268.01,449.75 268.49,449.77 268.97,449.68 269.45,449.46 269.93,449.11 270.41,448.64 270.89,448.06 271.37,447.39 271.86,446.63 272.34,445.81 272.82,444.96 273.30,444.08 273.78,443.20 274.26,442.34 274.74,441.49 275.23,440.69 275.71,439.95 276.19,439.27 276.67,438.66 277.15,438.15 277.63,437.74 278.11,437.44 278.59,437.26 279.08,437.22 279.56,437.33 280.04,437.59 280.52,438.01 281.00,438.60 281.48,439.35 281.96,440.27 282.45,441.34 282.93,442.56 283.41,443.91 283.89,445.37 284.37,446.92 284.85,448.53 285.33,450.16 285.81,451.79 286.30,453.38 286.78,454.89 287.26,456.28 287.74,457.54 288.22,458.61 288.70,459.50 289.18,460.18 289.67,460.66 290.15,460.96 290.63,461.08 291.11,461.03 291.59,460.84 292.07,460.50 292.55,460.02 293.03,459.41 293.52,458.69 294.00,457.88 294.48,457.03 294.96,456.16 295.44,455.31 295.92,454.51 296.40,453.80 296.88,453.20 297.37,452.74 297.85,452.42 298.33,452.24 298.81,452.22 299.29,452.33 299.77,452.55 300.25,452.87 300.74,453.24 301.22,453.64 301.70,454.02 302.18,454.35 302.66,454.61 303.14,454.79 303.62,454.87 304.10,454.89 304.59,454.85 305.07,454.79 305.55,454.72 306.03,454.69 306.51,454.69 306.99,454.75 307.47,454.86 307.96,455.01 308.44,455.21 308.92,455.41 309.40,455.59 309.88,455.73 310.36,455.79 310.84,455.75 311.32,455.57 311.81,455.24 312.29,454.77 312.77,454.15 313.25,453.39 313.73,452.53 314.21,451.59 314.69,450.59 315.18,449.56 315.66,448.53 316.14,447.52 316.62,446.56 317.10,445.67 317.58,444.88 318.06,444.19 318.54,443.63 319.03,443.21 319.51,442.92 319.99,442.78 320.47,442.77 320.95,442.89 321.43,443.14 321.91,443.48 322.40,443.92 322.88,444.42 323.36,444.98 323.84,445.56 324.32,446.15 324.80,446.74 325.28,447.29 325.76,447.81 326.25,448.28 326.73,448.69 327.21,449.03 327.69,449.30 328.17,449.48 328.65,449.60 329.13,449.63 329.61,449.61 330.10,449.52 330.58,449.39 331.06,449.23 331.54,449.04 332.02,448.84 332.50,448.63 332.98,448.41 333.47,448.19 333.95,447.96 334.43,447.72 334.91,447.45 335.39,447.15 335.87,446.82 336.35,446.46 336.83,446.06 337.32,445.65 337.80,445.24 338.28,444.86 338.76,444.52 339.24,444.26 339.72,444.11 340.20,444.09 340.69,444.23 341.17,444.53 341.65,445.02 342.13,445.70 342.61,446.56 343.09,447.60 343.57,448.80 344.05,450.14 344.54,451.59 345.02,453.11 345.50,454.64 345.98,456.14 346.46,457.53 346.94,458.71 347.42,459.61 347.91,460.13 348.39,460.25 348.87,460.03 349.35,459.55 349.83,458.94 350.31,458.28 350.79,457.66 351.27,457.11 351.76,456.66 352.24,456.33 352.72,456.11 353.20,456.00 353.68,456.00 354.16,456.09 354.64,456.25 355.12,456.47 355.61,456.72 356.09,456.98 356.57,457.23 357.05,457.44 357.53,457.59 358.01,457.64 358.49,457.60 358.98,457.43 359.46,457.15 359.94,456.75 360.42,456.26 360.90,455.68 361.38,455.03 361.86,454.35 362.34,453.65 362.83,452.96 363.31,452.30 363.79,451.70 364.27,451.16 364.75,450.70 365.23,450.36 365.71,450.12 366.20,450.02 366.68,450.06 367.16,450.24 367.64,450.57 368.12,451.06 368.60,451.71 369.08,452.51 369.56,453.46 370.05,454.55 370.53,455.78 371.01,457.13 371.49,458.58 371.97,460.11 372.45,461.68 372.93,463.23 373.42,464.60 373.90,465.37 374.38,464.96 374.86,463.70 375.34,462.13 375.82,460.48 376.30,458.84 376.78,457.24 377.27,455.73 377.75,454.32 378.23,453.03 378.71,451.87 379.19,450.85 379.67,449.99 380.15,449.30 380.63,448.76 381.12,448.40 381.60,448.21 382.08,448.18 382.56,448.32 383.04,448.63 383.52,449.08 384.00,449.69 384.49,450.43 384.97,451.30 385.45,452.29 385.93,453.38 386.41,454.56 386.89,455.81 387.37,457.12 387.85,458.47 388.34,459.83 388.82,461.18 389.30,462.47 389.78,463.62 390.26,464.50 390.74,464.90 391.22,464.70 391.71,464.04 392.19,463.16 392.67,462.22 393.15,461.30 393.63,460.43 394.11,459.65 394.59,458.95 395.07,458.36 395.56,457.87 396.04,457.49 396.52,457.20 397.00,457.02 397.48,456.91 397.96,456.89 398.44,456.92 398.93,457.01 399.41,457.14 399.89,457.29 400.37,457.45 400.85,457.62 401.33,457.77 401.81,457.91 402.29,458.03 402.78,458.12 403.26,458.18 403.74,458.20 404.22,458.20 404.70,458.16 405.18,458.09 405.66,457.98 406.14,457.83 406.63,457.64 407.11,457.41 407.59,457.13 408.07,456.81 408.55,456.46 409.03,456.08 409.51,455.68 410.00,455.27 410.48,454.86 410.96,454.47 411.44,454.10 411.92,453.77 412.40,453.49 412.88,453.26 413.36,453.10 413.85,453.00 414.33,452.97 414.81,453.02 415.29,453.14 415.77,453.32 416.25,453.57 416.73,453.87 417.22,454.23 417.70,454.62 418.18,455.04 418.66,455.48 419.14,455.93 419.62,456.39 420.10,456.85 420.58,457.30 421.07,457.74 421.55,458.15 422.03,458.53 422.51,458.87 422.99,459.14 423.47,459.31 423.95,459.36 424.44,459.26 424.92,458.97 425.40,458.47 425.88,457.78 426.36,456.90 426.84,455.86 427.32,454.68 427.80,453.41 428.29,452.07 428.77,450.70 429.25,449.33 429.73,447.99 430.21,446.70 430.69,445.50 431.17,444.40 431.66,443.43 432.14,442.60 432.62,441.92 433.10,441.41 433.58,441.08 434.06,440.91 434.54,440.93 435.02,441.12 435.51,441.47 435.99,441.99 436.47,442.65 436.95,443.46 437.43,444.39 437.91,445.44 438.39,446.59 438.87,447.83 439.36,449.15 439.84,450.53 440.32,451.96 440.80,453.44 441.28,454.95 441.76,456.47 442.24,458.01 442.73,459.56 443.21,461.09 443.69,462.61 444.17,464.10 444.65,465.53 445.13,466.79 445.61,466.98 446.09,465.89 446.58,464.63 447.06,463.39 447.54,462.19 448.02,461.05 448.50,459.96 448.98,458.94 449.46,457.98 449.95,457.08 450.43,456.25 450.91,455.49 451.39,454.80 451.87,454.17 452.35,453.62 452.83,453.13 453.31,452.72 453.80,452.39 454.28,452.13 454.76,451.94 455.24,451.84 455.72,451.81 456.20,451.85 456.68,451.97 457.17,452.16 457.65,452.42 458.13,452.73 458.61,453.10 459.09,453.51 459.57,453.96 460.05,454.44 460.53,454.94 461.02,455.45 461.50,455.96 461.98,456.47 462.46,456.95 462.94,457.42 463.42,457.85 463.90,458.26 464.38,458.63 464.87,458.98 465.35,459.29 465.83,459.59 466.31,459.87 466.79,460.13 467.27,460.38 467.75,460.63 468.24,460.87 468.72,461.10 469.20,461.31 469.68,461.51 470.16,461.69 470.64,461.82 471.12,461.92 471.60,461.97 472.09,461.96 472.57,461.91 473.05,461.82 473.53,461.69 474.01,461.53 474.49,461.36 474.97,461.18 475.46,461.01 475.94,460.84 476.42,460.68 476.90,460.54 477.38,460.40 477.86,460.28 478.34,460.16 478.82,460.04 479.31,459.93 479.79,459.81 480.27,459.69 480.75,459.57 481.23,459.47 481.71,459.37 482.19,459.30 482.68,459.26 483.16,459.25 483.64,459.30 484.12,459.39 484.60,459.54 485.08,459.75 485.56,460.01 486.04,460.32 486.53,460.66 487.01,461.02 487.49,461.37 487.97,461.70 488.45,461.96 488.93,462.13 489.41,462.18 489.89,462.10 490.38,461.90 490.86,461.60 491.34,461.23 491.82,460.82 492.30,460.40 492.78,459.99 493.26,459.63 493.75,459.32 494.23,459.08 494.71,458.92 495.19,458.84 495.67,458.84 496.15,458.93 496.63,459.11 497.11,459.35 497.60,459.67 498.08,460.04 498.56,460.47 499.04,460.93 499.52,461.41 500.00,461.92 500.48,462.42 500.97,462.93 501.45,463.41 501.93,463.88 502.41,464.32 502.89,464.73 503.37,465.12 503.85,465.48 504.33,465.82 504.82,466.13 505.30,466.42 505.78,466.67 506.26,466.84 506.74,466.85 507.22,466.67 507.70,466.31 508.19,465.83 508.67,465.27 509.15,464.63 509.63,463.94 510.11,463.22 510.59,462.45 511.07,461.67 511.55,460.88 512.04,460.08 512.52,459.30 513.00,458.54 513.48,457.80 513.96,457.12 514.44,456.48 514.92,455.91 515.41,455.41 515.89,455.00 516.37,454.68 516.85,454.45 517.33,454.33 517.81,454.31 518.29,454.41 518.77,454.61 519.26,454.92 519.74,455.34 520.22,455.84 520.70,456.44 521.18,457.10 521.66,457.83 522.14,458.59 522.62,459.37 523.11,460.14 523.59,460.88 524.07,461.54 524.55,462.09 525.03,462.51 525.51,462.77 525.99,462.86 526.48,462.81 526.96,462.65 527.44,462.42 527.92,462.17 528.40,461.90 528.88,461.66 529.36,461.45 529.84,461.28 530.33,461.15 530.81,461.08 531.29,461.06 531.77,461.08 532.25,461.17 532.73,461.31 533.21,461.51 533.70,461.78 534.18,462.11 534.66,462.51 535.14,462.98 535.62,463.51 536.10,464.10 536.58,464.74 537.06,465.39 537.55,466.01 538.03,466.45 538.51,466.48 538.99,466.03 539.47,465.35 539.95,464.57 540.43,463.78 540.92,463.02 541.40,462.30 541.88,461.66 542.36,461.10 542.84,460.63 543.32,460.28 543.80,460.04 544.28,459.91 544.77,459.90 545.25,460.01 545.73,460.23 546.21,460.55 546.69,460.96 547.17,461.46 547.65,462.03 548.13,462.66 548.62,463.33 549.10,464.04 549.58,464.78 550.06,465.52 550.54,466.26 551.02,466.98 551.50,467.57 551.99,467.36 552.47,466.72 552.95,466.04 553.43,465.37 553.91,464.72 554.39,464.08 554.87,463.44 555.35,462.83 555.84,462.21 556.32,461.61 556.80,461.02 557.28,460.43 557.76,459.84 558.24,459.25 558.72,458.67 559.21,458.09 559.69,457.50 560.17,456.92 560.65,456.34 561.13,455.77 561.61,455.21 562.09,454.66 562.57,454.13 563.06,453.64 563.54,453.19 564.02,452.78 564.50,452.43 564.98,452.15 565.46,451.95 565.94,451.82 566.43,451.78 566.91,451.83 567.39,451.96 567.87,452.18 568.35,452.48 568.83,452.86 569.31,453.29 569.79,453.78 570.28,454.31 570.76,454.87 571.24,455.44 571.72,456.01 572.20,456.57 572.68,457.11 573.16,457.62 573.64,458.11 574.13,458.56 574.61,459.00 575.09,459.43 575.57,459.85 576.05,460.27 576.53,460.71 577.01,461.15 577.50,461.61 577.98,462.08 578.46,462.53 578.94,462.94 579.42,463.27 579.90,463.48 580.38,463.53 580.86,463.39 581.35,463.08 581.83,462.62 582.31,462.06 582.79,461.44 583.27,460.80 583.75,460.17 584.23,459.58 584.72,459.04 585.20,458.56 585.68,458.17 586.16,457.87 586.64,457.66 587.12,457.56 587.60,457.55 588.08,457.64 588.57,457.82 589.05,458.09 589.53,458.45 590.01,458.87 590.49,459.36 590.97,459.90 591.45,460.48 591.94,461.09 592.42,461.71 592.90,462.34 593.38,462.97 593.86,463.58 594.34,464.17 594.82,464.73 595.30,465.26 595.79,465.76 596.27,466.22 596.75,466.64 597.23,467.03 597.71,467.39 598.19,467.71 598.67,467.83 599.15,467.59 599.64,467.29 600.12,466.98 600.60,466.66 601.08,466.31 601.56,465.94 602.04,465.53 602.52,465.09 603.01,464.60 603.49,464.08 603.97,463.50 604.45,462.89 604.93,462.24 605.41,461.55 605.89,460.84 606.37,460.10 606.86,459.35 607.34,458.60 607.82,457.86 608.30,457.13 608.78,456.43 609.26,455.77 609.74,455.16 610.23,454.61 610.71,454.11 611.19,453.69 611.67,453.34 612.15,453.07 612.63,452.88 613.11,452.76 613.59,452.73 614.08,452.77 614.56,452.89 615.04,453.07 615.52,453.31 616.00,453.60 616.48,453.94 616.96,454.32 617.45,454.73 617.93,455.16 618.41,455.59 618.89,456.03 619.37,456.45 619.85,456.86 620.33,457.25 620.81,457.60 621.30,457.91 621.78,458.19 622.26,458.43 622.74,458.64 623.22,458.81 623.70,458.96 624.18,459.09 624.67,459.22 625.15,459.34 625.63,459.47 626.11,459.62 626.59,459.80 627.07,459.99 627.55,460.22 628.03,460.48 628.52,460.77 629.00,461.09 629.48,461.43 629.96,461.81 630.44,462.21 630.92,462.63 631.40,463.06 631.88,463.51 632.37,463.97 632.85,464.42 633.33,464.87 633.81,465.30 634.29,465.70 634.77,466.06 635.25,466.36 635.74,466.58 636.22,466.69 636.70,466.72 637.18,466.68 637.66,466.63 638.14,466.58 638.62,466.57 639.10,466.61 639.59,466.71 640.07,466.88 640.55,467.11 641.03,467.41 641.51,467.74 641.99,467.70 642.47,467.24 642.96,466.72 643.44,466.15 643.92,465.56 644.40,464.95 644.88,464.34 645.36,463.74 645.84,463.16 646.32,462.61 646.81,462.10 647.29,461.64 647.77,461.23 648.25,460.88 648.73,460.59 649.21,460.36 649.69,460.18 650.18,460.06 650.66,459.99 651.14,459.97 651.62,459.99 652.10,460.04 652.58,460.12 653.06,460.22 653.54,460.34 654.03,460.47 654.51,460.62 654.99,460.77 655.47,460.93 655.95,461.10 656.43,461.27 656.91,461.46 657.39,461.65 657.88,461.85 658.36,462.06 658.84,462.27 659.32,462.49 659.80,462.71 660.28,462.93 660.76,463.14 661.25,463.34 661.73,463.54 662.21,463.71 662.69,463.86 663.17,463.99 663.65,464.10 664.13,464.18 664.61,464.25 665.10,464.30 665.58,464.34 666.06,464.38 666.54,464.43 667.02,464.49 667.50,464.57 667.98,464.66 668.47,464.77 668.95,464.90 669.43,465.04 669.91,465.19 670.39,465.35 670.87,465.51 671.35,465.66 671.83,465.79 672.32,465.89 672.80,465.95 673.28,465.96 673.76,465.92 674.24,465.82 674.72,465.67 675.20,465.47 675.69,465.22 676.17,464.94 676.65,464.64 677.13,464.31 677.61,463.97 678.09,463.63 678.57,463.30 679.05,462.99 679.54,462.70 680.02,462.45 680.50,462.24 680.98,462.08 681.46,461.97 681.94,461.91 682.42,461.90 682.90,461.94 683.39,462.02 683.87,462.14 684.35,462.27 684.83,462.40 685.31,462.52 685.79,462.62 686.27,462.67 686.76,462.68 687.24,462.64 687.72,462.55 688.20,462.43 688.68,462.28 689.16,462.12 689.64,461.98 690.12,461.85 690.61,461.74 691.09,461.68 691.57,461.65 692.05,461.67 692.53,461.72 693.01,461.82 693.49,461.96 693.98,462.13 694.46,462.33 694.94,462.55 695.42,462.79 695.90,463.05 696.38,463.31 696.86,463.58 697.34,463.85 697.83,464.11 698.31,464.37 698.79,464.61 699.27,464.82 699.75,465.01 700.23,465.17 700.71,465.28 701.20,465.36 701.68,465.39 702.16,465.39 702.64,465.37 703.12,465.34 703.60,465.30 704.08,465.27 704.56,465.25 705.05,465.25 705.53,465.27 706.01,465.31 706.49,465.37 706.97,465.44 707.45,465.50 707.93,465.56 708.41,465.60 708.90,465.61 709.38,465.59 709.86,465.53 710.34,465.45 710.82,465.34 711.30,465.23 711.78,465.12 712.27,465.01 712.75,464.92 713.23,464.84 713.71,464.79 714.19,464.77 714.67,464.77 715.15,464.78 715.63,464.82 716.12,464.88 716.60,464.95 717.08,465.03 717.56,465.12 718.04,465.23 718.52,465.34 719.00,465.47 719.49,465.62 719.97,465.78 720.45,465.97 720.93,466.19 721.41,466.43 721.89,466.70 722.37,467.00 722.85,467.32 723.34,467.66 723.82,467.81 724.30,467.49 724.78,467.08 725.26,466.66 725.74,466.22 726.22,465.79 726.71,465.35 727.19,464.93 727.67,464.52 728.15,464.12 728.63,463.74 729.11,463.38 729.59,463.05 730.07,462.74 730.56,462.45 731.04,462.18 731.52,461.93 732.00,461.69 732.48,461.47 732.96,461.25 733.44,461.04 733.93,460.82 734.41,460.59 734.89,460.36 735.37,460.10 735.85,459.83 736.33,459.53 736.81,459.22 737.29,458.88 737.78,458.54 738.26,458.19 738.74,457.84 739.22,457.51 739.70,457.19 740.18,456.90 740.66,456.65 741.14,456.44 741.63,456.29 742.11,456.20 742.59,456.18 743.07,456.23 743.55,456.35 744.03,456.55 744.51,456.82 745.00,457.16 745.48,457.55 745.96,458.00 746.44,458.49 746.92,459.00 747.40,459.51 747.88,460.01 748.36,460.47 748.85,460.88 749.33,461.21 749.81,461.45 750.29,461.60 750.77,461.66 751.25,461.65 751.73,461.58 752.22,461.50 752.70,461.40 753.18,461.32 753.66,461.27 754.14,461.26 754.62,461.29 755.10,461.38 755.58,461.51 756.07,461.68 756.55,461.89 757.03,462.13 757.51,462.38 757.99,462.64 758.47,462.89 758.95,463.12 759.44,463.32 759.92,463.49 760.40,463.63 760.88,463.74 761.36,463.82 761.84,463.89 762.32,463.95 762.80,464.01 763.29,464.09 763.77,464.18 764.25,464.28 764.73,464.41 765.21,464.56 765.69,464.73 766.17,464.90 766.65,465.08 767.14,465.25 767.62,465.40 768.10,465.51 768.58,465.59 769.06,465.62 769.54,465.59 770.02,465.53 770.51,465.43 770.99,465.30 771.47,465.16 771.95,465.03 772.43,464.90 772.91,464.78 773.39,464.68 773.87,464.60 774.36,464.54 774.84,464.51 775.32,464.49 775.80,464.49 776.28,464.51 776.76,464.54 777.24,464.58 777.73,464.63 778.21,464.68 778.69,464.73 779.17,464.78 779.65,464.82 780.13,464.87 780.61,464.92 781.09,464.97 781.58,465.03 782.06,465.09 782.54,465.17 783.02,465.26 783.50,465.36 783.98,465.48 784.46,465.60 784.95,465.74 785.43,465.86 785.91,465.97 786.39,466.05 786.87,466.07 787.35,466.03 787.83,465.91 788.31,465.73 788.80,465.50 789.28,465.24 789.76,464.95 790.24,464.66 790.72,464.38 791.20,464.11 791.68,463.87 792.16,463.66 792.65,463.49 793.13,463.35 793.61,463.26 794.09,463.20 794.57,463.17 795.05,463.17 795.53,463.19 796.02,463.21 796.50,463.24 796.98,463.25 797.46,463.25 797.94,463.23 798.42,463.19 798.90,463.13 799.38,463.05 799.87,462.97 800.35,462.89 800.83,462.82 801.31,462.77 801.79,462.74 802.27,462.73 802.75,462.75 803.24,462.78 803.72,462.81 804.20,462.84 804.68,462.85 805.16,462.83 805.64,462.76 806.12,462.62 806.60,462.42 807.09,462.15 807.57,461.83 808.05,461.45 808.53,461.05 809.01,460.63 809.49,460.20 809.97,459.78 810.46,459.39 810.94,459.03 811.42,458.71 811.90,458.43 812.38,458.22 812.86,458.06 813.34,457.97 813.82,457.94 814.31,457.98 814.79,458.08 815.27,458.24 815.75,458.47 816.23,458.75 816.71,459.08 817.19,459.45 817.68,459.86 818.16,460.30 818.64,460.77 819.12,461.24 819.60,461.72 820.08,462.18 820.56,462.63 821.04,463.06 821.53,463.44 822.01,463.78 822.49,464.06 822.97,464.28 823.45,464.44 823.93,464.53 824.41,464.57 824.89,464.56 825.38,464.51 825.86,464.43 826.34,464.33 826.82,464.21 827.30,464.08 827.78,463.95 828.26,463.80 828.75,463.66 829.23,463.52 829.71,463.38 830.19,463.24 830.67,463.12 831.15,463.02 831.63,462.93 832.11,462.88 832.60,462.85 833.08,462.86 833.56,462.92 834.04,463.01 834.52,463.15 835.00,463.33 835.48,463.56 835.97,463.83 836.45,464.14 836.93,464.49 837.41,464.86 837.89,465.25 838.37,465.66 838.85,466.07 839.33,466.47 839.82,466.86 840.30,467.23 840.78,467.56 841.26,467.84 841.74,467.83 842.22,467.62 842.70,467.45 843.19,467.31 843.67,467.20 844.15,467.09 844.63,466.98 845.11,466.83 845.59,466.64 846.07,466.39 846.55,466.09 847.04,465.74 847.52,465.35 848.00,464.93 848.48,464.48 848.96,464.02 849.44,463.54 849.92,463.06 850.40,462.58 850.89,462.11 851.37,461.64 851.85,461.18 852.33,460.73 852.81,460.29 853.29,459.87 853.77,459.46 854.26,459.06 854.74,458.69 855.22,458.33 855.70,457.99 856.18,457.68 856.66,457.40 857.14,457.14 857.62,456.92 858.11,456.73 858.59,456.57 859.07,456.46 859.55,456.38 860.03,456.35 860.51,456.36 860.99,456.42 861.48,456.52 861.96,456.67 862.44,456.87 862.92,457.11 863.40,457.39 863.88,457.72 864.36,458.08 864.84,458.48 865.33,458.91 865.81,459.37 866.29,459.85 866.77,460.34 867.25,460.83 867.73,461.31 868.21,461.76 868.70,462.19 869.18,462.56 869.66,462.88 870.14,463.12 870.62,463.29 871.10,463.38 871.58,463.41 872.06,463.39 872.55,463.34 873.03,463.27 873.51,463.21 873.99,463.16 874.47,463.14 874.95,463.16 875.43,463.21 875.91,463.31 876.40,463.45 876.88,463.62 877.36,463.84 877.84,464.08 878.32,464.35 878.80,464.63 879.28,464.93 879.77,465.22 880.25,465.52 880.73,465.81 881.21,466.08 881.69,466.34 882.17,466.58 882.65,466.79 883.13,466.98 883.62,467.14 884.10,467.26 884.58,467.35 885.06,467.39 885.54,467.38 886.02,467.31 886.50,467.20 886.99,467.06 887.47,466.91 887.95,466.74 888.43,466.55 888.91,466.36 889.39,466.17 889.87,465.97 890.35,465.76 890.84,465.55 891.32,465.34 891.80,465.12 892.28,464.91 892.76,464.69 893.24,464.48 893.72,464.27 894.21,464.07 894.69,463.87 895.17,463.69 895.65,463.52 896.13,463.37 896.61,463.24 897.09,463.13 897.57,463.04 898.06,462.97 898.54,462.93 899.02,462.92 899.50,462.94 899.98,462.99 900.46,463.07 900.94,463.18 901.42,463.31 901.91,463.47 902.39,463.65 902.87,463.85 903.35,464.07 903.83,464.29 904.31,464.51 904.79,464.72 905.28,464.92 905.76,465.08 906.24,465.20 906.72,465.27 907.20,465.28 907.68,465.25 908.16,465.17 908.64,465.06 909.13,464.92 909.61,464.77 910.09,464.61 910.57,464.45 911.05,464.28 911.53,464.11 912.01,463.94 912.50,463.76 912.98,463.56 913.46,463.35 913.94,463.13 914.42,462.88 914.90,462.62 915.38,462.34 915.86,462.05 916.35,461.77 916.83,461.48 917.31,461.21 917.79,460.97 918.27,460.75 918.75,460.57 919.23,460.43 919.72,460.34 920.20,460.31 920.68,460.34 921.16,460.43 921.64,460.58 922.12,460.79 922.60,461.06 923.08,461.38 923.57,461.76 924.05,462.18 924.53,462.63 925.01,463.11 925.49,463.61 925.97,464.11 926.45,464.59 926.94,465.03 927.42,465.41 927.90,465.69 928.38,465.84 928.86,465.86 929.34,465.77 929.82,465.60 930.30,465.40 930.79,465.20 931.27,465.01 931.75,464.86 932.23,464.75 932.71,464.69 933.19,464.67 933.67,464.71 934.15,464.78 934.64,464.90 935.12,465.04 935.60,465.21 936.08,465.40 936.56,465.58 937.04,465.75 937.52,465.89 938.01,466.00 938.49,466.07 938.97,466.08 939.45,466.06 939.93,466.01 940.41,465.94 940.89,465.86 941.37,465.78 941.86,465.69 942.34,465.60 942.82,465.50 943.30,465.38 943.78,465.23 944.26,465.05 944.74,464.83 945.23,464.57 945.71,464.27 946.19,463.94 946.67,463.58 947.15,463.21 947.63,462.83 948.11,462.46 948.59,462.09 949.08,461.74 949.56,461.42 950.04,461.13 950.52,460.87 951.00,460.66 951.48,460.49 951.96,460.36 952.45,460.28 952.93,460.24 953.41,460.25 953.89,460.30 954.37,460.39 954.85,460.52 955.33,460.69 955.81,460.89 956.30,461.12 956.78,461.37 957.26,461.64 957.74,461.92 958.22,462.20 958.70,462.48 959.18,462.74 959.66,462.98 960.15,463.19 960.63,463.36 961.11,463.49 961.59,463.57 962.07,463.60 962.55,463.60 963.03,463.57 963.52,463.53 964.00,463.48 964.48,463.44 964.96,463.42 965.44,463.42 965.92,463.45 966.40,463.52 966.88,463.63 967.37,463.78 967.85,463.96 968.33,464.18 968.81,464.43 969.29,464.70 969.77,464.99 970.25,465.29 970.74,465.59 971.22,465.90 971.70,466.19 972.18,466.47 972.66,466.72 973.14,466.94 973.62,467.13 974.10,467.28 974.59,467.37 975.07,467.42 975.55,467.43 976.03,467.41 976.51,467.36 976.99,467.29 977.47,467.20 977.96,467.10 978.44,466.98 978.92,466.85 979.40,466.70 979.88,466.54 980.36,466.38 980.84,466.22 981.32,466.05 981.81,465.89 982.29,465.74 982.77,465.58 983.25,465.44 983.73,465.30 984.21,465.18 984.69,465.06 985.17,464.95 985.66,464.85 986.14,464.76 986.62,464.68 987.10,464.62 987.58,464.57 988.06,464.53 988.54,464.52 989.03,464.52 989.51,464.55 989.99,464.60 990.47,464.68 990.95,464.79 991.43,464.93 991.91,465.09 992.39,465.28 992.88,465.50 993.36,465.74 993.84,466.00 994.32,466.29 994.80,466.58 995.28,466.89 995.76,467.19 996.25,467.47 996.73,467.69 997.21,467.66 997.69,467.46 998.17,467.23 998.65,467.01 999.13,466.82 999.61,466.67 1000.10,466.56 1000.58,466.48 1001.06,466.45 1001.54,466.46 1002.02,466.49 1002.50,466.54 1002.98,466.59 1003.47,466.61 1003.95,466.58 1004.43,466.47 1004.91,466.28 1005.39,466.01 1005.87,465.70 1006.35,465.36 1006.83,464.99 1007.32,464.63 1007.80,464.28 1008.28,463.94 1008.76,463.64 1009.24,463.37 1009.72,463.13 1010.20,462.94 1010.68,462.79 1011.17,462.68 1011.65,462.60 1012.13,462.54 1012.61,462.51 1013.09,462.48 1013.57,462.44 1014.05,462.38 1014.54,462.30 1015.02,462.17 1015.50,462.01 1015.98,461.82 1016.46,461.59 1016.94,461.34 1017.42,461.08 1017.90,460.83 1018.39,460.59 1018.87,460.39 1019.35,460.22 1019.83,460.10 1020.31,460.04 1020.79,460.03 1021.27,460.10 1021.76,460.22 1022.24,460.41 1022.72,460.66 1023.20,460.97 1023.68,461.33 1024.16,461.73 1024.64,462.16 1025.12,462.61 1025.61,463.08 1026.09,463.54 1026.57,463.99 1027.05,464.41 1027.53,464.79 1028.01,465.11 1028.49,465.36 1028.98,465.52 1029.46,465.58 1029.94,465.55 1030.42,465.44 1030.90,465.27 1031.38,465.05 1031.86,464.81 1032.34,464.54 1032.83,464.27 1033.31,464.00 1033.79,463.74 1034.27,463.49 1034.75,463.26 1035.23,463.06 1035.71,462.89 1036.20,462.77 1036.68,462.69 1037.16,462.65 1037.64,462.66 1038.12,462.72 1038.60,462.83 1039.08,462.98 1039.56,463.16 1040.05,463.37 1040.53,463.59 1041.01,463.82 1041.49,464.03 1041.97,464.21 1042.45,464.35 1042.93,464.44 1043.41,464.48 1043.90,464.45 1044.38,464.38 1044.86,464.28 1045.34,464.16 1045.82,464.03 1046.30,463.92 1046.78,463.82 1047.27,463.74 1047.75,463.70 1048.23,463.69 1048.71,463.72 1049.19,463.78 1049.67,463.87 1050.15,464.00 1050.63,464.14 1051.12,464.31 1051.60,464.50 1052.08,464.70 1052.56,464.91 1053.04,465.13 1053.52,465.35 1054.00,465.56 1054.49,465.76 1054.97,465.94 1055.45,466.08 1055.93,466.16 1056.41,466.17 1056.89,466.10 1057.37,465.93 1057.85,465.68 1058.34,465.36 1058.82,465.00 1059.30,464.59 1059.78,464.15 1060.26,463.69 1060.74,463.23 1061.22,462.76 1061.71,462.30 1062.19,461.85 1062.67,461.43 1063.15,461.03 1063.63,460.66 1064.11,460.33 1064.59,460.05 1065.07,459.81 1065.56,459.62 1066.04,459.48 1066.52,459.39 1067.00,459.35 1067.48,459.36 1067.96,459.42 1068.44,459.53 1068.92,459.67 1069.41,459.86 1069.89,460.07 1070.37,460.31 1070.85,460.57 1071.33,460.84 1071.81,461.12 1072.29,461.38 1072.78,461.63 1073.26,461.86 1073.74,462.04 1074.22,462.19 1074.70,462.28 1075.18,462.32 1075.66,462.30 1076.14,462.24 1076.63,462.12 1077.11,461.97 1077.59,461.80"/>
  <line x1="64.41" y1="42.00" x2="64.41" y2="468" stroke="#b45309" stroke-width="1" opacity="0.55"/>
<line x1="151.04" y1="385.98" x2="151.04" y2="468" stroke="#b45309" stroke-width="1" opacity="0.55"/>
<line x1="121.68" y1="391.52" x2="121.68" y2="468" stroke="#b45309" stroke-width="1" opacity="0.55"/>
<line x1="104.84" y1="396.43" x2="104.84" y2="468" stroke="#b45309" stroke-width="1" opacity="0.55"/>
<line x1="132.75" y1="429.17" x2="132.75" y2="468" stroke="#b45309" stroke-width="1" opacity="0.55"/>
<line x1="174.63" y1="432.45" x2="174.63" y2="468" stroke="#b45309" stroke-width="1" opacity="0.55"/>
<line x1="207.84" y1="436.31" x2="207.84" y2="468" stroke="#b45309" stroke-width="1" opacity="0.55"/>
<line x1="279.08" y1="437.22" x2="279.08" y2="468" stroke="#b45309" stroke-width="1" opacity="0.55"/>
<line x1="186.18" y1="438.31" x2="186.18" y2="468" stroke="#b45309" stroke-width="1" opacity="0.55"/>
<line x1="228.06" y1="438.37" x2="228.06" y2="468" stroke="#b45309" stroke-width="1" opacity="0.55"/>
<line x1="434.06" y1="440.91" x2="434.06" y2="468" stroke="#b45309" stroke-width="1" opacity="0.55"/>
<line x1="320.47" y1="442.77" x2="320.47" y2="468" stroke="#b45309" stroke-width="1" opacity="0.55"/>
<line x1="340.20" y1="444.09" x2="340.20" y2="468" stroke="#b45309" stroke-width="1" opacity="0.55"/>
<line x1="382.08" y1="448.18" x2="382.08" y2="468" stroke="#b45309" stroke-width="1" opacity="0.55"/>
<line x1="264.16" y1="448.22" x2="264.16" y2="468" stroke="#b45309" stroke-width="1" opacity="0.55"/>
<line x1="366.20" y1="450.02" x2="366.20" y2="468" stroke="#b45309" stroke-width="1" opacity="0.55"/>
<line x1="242.98" y1="451.00" x2="242.98" y2="468" stroke="#b45309" stroke-width="1" opacity="0.55"/>
<line x1="566.43" y1="451.78" x2="566.43" y2="468" stroke="#b45309" stroke-width="1" opacity="0.55"/>
<line x1="455.72" y1="451.81" x2="455.72" y2="468" stroke="#b45309" stroke-width="1" opacity="0.55"/>
<line x1="298.81" y1="452.22" x2="298.81" y2="468" stroke="#b45309" stroke-width="1" opacity="0.55"/>
<line x1="613.59" y1="452.73" x2="613.59" y2="468" stroke="#b45309" stroke-width="1" opacity="0.55"/>
<line x1="414.33" y1="452.97" x2="414.33" y2="468" stroke="#b45309" stroke-width="1" opacity="0.55"/>
<line x1="517.81" y1="454.31" x2="517.81" y2="468" stroke="#b45309" stroke-width="1" opacity="0.55"/>
<line x1="306.03" y1="454.69" x2="306.03" y2="468" stroke="#b45309" stroke-width="1" opacity="0.55"/>
<line x1="353.68" y1="456.00" x2="353.68" y2="468" stroke="#b45309" stroke-width="1" opacity="0.55"/>
<line x1="742.59" y1="456.18" x2="742.59" y2="468" stroke="#b45309" stroke-width="1" opacity="0.55"/>
<line x1="860.03" y1="456.35" x2="860.03" y2="468" stroke="#b45309" stroke-width="1" opacity="0.55"/>
<line x1="397.96" y1="456.89" x2="397.96" y2="468" stroke="#b45309" stroke-width="1" opacity="0.55"/>
<line x1="587.60" y1="457.55" x2="587.60" y2="468" stroke="#b45309" stroke-width="1" opacity="0.55"/>
<line x1="813.82" y1="457.94" x2="813.82" y2="468" stroke="#b45309" stroke-width="1" opacity="0.55"/>
  <text x="570" y="516" font-size="13" text-anchor="middle" fill="#334155">log-frequency gamma</text>
  <text x="15" y="255" font-size="13" text-anchor="middle" fill="#334155" transform="rotate(-90 15 255)">Hann DFT amplitude</text>
</svg>
