<?xml version="1.0" encoding="UTF-8"?>
<svg xmlns="http://www.w3.org/2000/svg" width="1100" height="520" viewBox="0 0 1100 520">
  <rect width="100%" height="100%" fill="#f8fafc"/>
  <text x="62" y="25" font-size="20" font-family="system-ui, -apple-system, sans-serif" font-weight="700" fill="#0f172a">cramer-avg</text>
  <rect x="62" y="42" width="1016" height="426" fill="#ffffff" stroke="#cbd5e1"/>
  <line x1="62" y1="468" x2="62" y2="473" stroke="#475569"/>
  <text x="62" y="502" font-size="12" text-anchor="middle" fill="#334155">0</text>
  <line x1="146.7009556543864" y1="468" x2="146.7009556543864" y2="473" stroke="#475569"/>
  <text x="146.7009556543864" y="502" font-size="12" text-anchor="middle" fill="#334155">10</text>
  <line x1="231.4019113087728" y1="468" x2="231.4019113087728" y2="473" stroke="#475569"/>
  <text x="231.4019113087728" y="502" font-size="12" text-anchor="middle" fill="#334155">20</text>
  <line x1="316.1028669631593" y1="468" x2="316.1028669631593" y2="473" stroke="#475569"/>
  <text x="316.1028669631593" y="502" font-size="12" text-anchor="middle" fill="#334155">30</text>
  <line x1="400.8038226175456" y1="468" x2="400.8038226175456" y2="473" stroke="#475569"/>
  <text x="400.8038226175456" y="502" font-size="12" text-anchor="middle" fill="#334155">40</text>
  <line x1="485.5047782719321" y1="468" x2="485.5047782719321" y2="473" stroke="#475569"/>
  <text x="485.5047782719321" y="502" font-size="12" text-anchor="middle" fill="#334155">50</text>
  <line x1="570.2057339263185" y1="468" x2="570.2057339263185" y2="473" stroke="#475569"/>
  <text x="570.2057339263185" y="502" font-size="12" text-anchor="middle" fill="#334155">60</text>
  <line x1="654.9066895807048" y1="468" x2="654.9066895807048" y2="473" stroke="#475569"/>
  <text x="654.9066895807048" y="502" font-size="12" text-anchor="middle" fill="#334155">70</text>
  <line x1="739.6076452350912" y1="468" x2="739.6076452350912" y2="473" stroke="#475569"/>
  <text x="739.6076452350912" y="502" font-size="12" text-anchor="middle" fill="#334155">80</text>
  <line x1="824.3086008894777" y1="468" x2="824.3086008894777" y2="473" stroke="#475569"/>
  <text x="824.3086008894777" y="502" font-size="12" text-anchor="middle" fill="#334155">90</text>
  <line x1="909.0095565438642" y1="468" x2="909.0095565438642" y2="473" stroke="#475569"/>
  <text x="909.0095565438642" y="502" font-size="12" text-anchor="middle" fill="#334155">100</text>
  <line x1="993.7105121982506" y1="468" x2="993.7105121982506" y2="473" stroke="#475569"/>
  <text x="993.7105121982506" y="502" font-size="12" text-anchor="middle" fill="#334155">110</text>
  <line x1="57" y1="468" x2="62" y2="468" stroke="#475569"/>
  <text x="52" y="472" font-size="12" text-anchor="end" fill="#334155">0.000</text>
  <line x1="57" y1="361.5" x2="62" y2="361.5" stroke="#475569"/>
  <text x="52" y="365.5" font-size="12" text-anchor="end" fill="#334155">0.113</text>
  <line x1="57" y1="255" x2="62" y2="255" stroke="#475569"/>
  <text x="52" y="259" font-size="12" text-anchor="end" fill="#334155">0.226</text>
  <line x1="57" y1="148.49999999999994" x2="62" y2="148.49999999999994" stroke="#475569"/>
  <text x="52" y="152.49999999999994" font-size="12" text-anchor="end" fill="#334155">0.338</text>
  <line x1="57" y1="42" x2="62" y2="42" stroke="#475569"/>
  <text x="52" y="46" font-size="12" text-anchor="end" fill="#334155">0.451</text>
  <line x1="181.72" y1="42" x2="181.72" y2="468" stroke="#2563eb" stroke-width="1" opacity="0.28"><title>zero 1</title></line>
<line x1="240.06" y1="42" x2="240.06" y2="468" stroke="#2563eb" stroke-width="1" opacity="0.28"><title>zero 2</title></line>
<line x1="273.84" y1="42" x2="273.84" y2="468" stroke="#2563eb" stroke-width="1" opacity="0.28"><title>zero 3</title></line>
<line x1="319.70" y1="42" x2="319.70" y2="468" stroke="#2563eb" stroke-width="1" opacity="0.28"><title>zero 4</title></line>
<line x1="340.96" y1="42" x2="340.96" y2="468" stroke="#2563eb" stroke-width="1" opacity="0.28"><title>zero 5</title></line>
<line x1="380.36" y1="42" x2="380.36" y2="468" stroke="#2563eb" stroke-width="1" opacity="0.28"><title>zero 6</title></line>
<line x1="408.59" y1="42" x2="408.59" y2="468" stroke="#2563eb" stroke-width="1" opacity="0.28"><title>zero 7</title></line>
<line x1="428.98" y1="42" x2="428.98" y2="468" stroke="#2563eb" stroke-width="1" opacity="0.28"><title>zero 8</title></line>
<line x1="468.61" y1="42" x2="468.61" y2="468" stroke="#2563eb" stroke-width="1" opacity="0.28"><title>zero 9</title></line>
<line x1="483.59" y1="42" x2="483.59" y2="468" stroke="#2563eb" stroke-width="1" opacity="0.28"><title>zero 10</title></line>
<line x1="510.66" y1="42" x2="510.66" y2="468" stroke="#2563eb" stroke-width="1" opacity="0.28"><title>zero 11</title></line>
<line x1="540.11" y1="42" x2="540.11" y2="468" stroke="#2563eb" stroke-width="1" opacity="0.28"><title>zero 12</title></line>
<line x1="564.67" y1="42" x2="564.67" y2="468" stroke="#2563eb" stroke-width="1" opacity="0.28"><title>zero 13</title></line>
<line x1="577.25" y1="42" x2="577.25" y2="468" stroke="#2563eb" stroke-width="1" opacity="0.28"><title>zero 14</title></line>
<line x1="613.51" y1="42" x2="613.51" y2="468" stroke="#2563eb" stroke-width="1" opacity="0.28"><title>zero 15</title></line>
<line x1="630.17" y1="42" x2="630.17" y2="468" stroke="#2563eb" stroke-width="1" opacity="0.28"><title>zero 16</title></line>
<line x1="651.06" y1="42" x2="651.06" y2="468" stroke="#2563eb" stroke-width="1" opacity="0.28"><title>zero 17</title></line>
<line x1="672.42" y1="42" x2="672.42" y2="468" stroke="#2563eb" stroke-width="1" opacity="0.28"><title>zero 18</title></line>
<line x1="703.23" y1="42" x2="703.23" y2="468" stroke="#2563eb" stroke-width="1" opacity="0.28"><title>zero 19</title></line>
<line x1="715.42" y1="42" x2="715.42" y2="468" stroke="#2563eb" stroke-width="1" opacity="0.28"><title>zero 20</title></line>
<line x1="734.00" y1="42" x2="734.00" y2="468" stroke="#2563eb" stroke-width="1" opacity="0.28"><title>zero 21</title></line>
<line x1="764.26" y1="42" x2="764.26" y2="468" stroke="#2563eb" stroke-width="1" opacity="0.28"><title>zero 22</title></line>
<line x1="779.72" y1="42" x2="779.72" y2="468" stroke="#2563eb" stroke-width="1" opacity="0.28"><title>zero 23</title></line>
<line x1="802.50" y1="42" x2="802.50" y2="468" stroke="#2563eb" stroke-width="1" opacity="0.28"><title>zero 24</title></line>
<line x1="814.22" y1="42" x2="814.22" y2="468" stroke="#2563eb" stroke-width="1" opacity="0.28"><title>zero 25</title></line>
<line x1="845.42" y1="42" x2="845.42" y2="468" stroke="#2563eb" stroke-width="1" opacity="0.28"><title>zero 26</title></line>
<line x1="863.71" y1="42" x2="863.71" y2="468" stroke="#2563eb" stroke-width="1" opacity="0.28"><title>zero 27</title></line>
<line x1="874.03" y1="42" x2="874.03" y2="468" stroke="#2563eb" stroke-width="1" opacity="0.28"><title>zero 28</title></line>
<line x1="899.11" y1="42" x2="899.11" y2="468" stroke="#2563eb" stroke-width="1" opacity="0.28"><title>zero 29</title></line>
<line x1="920.17" y1="42" x2="920.17" y2="468" stroke="#2563eb" stroke-width="1" opacity="0.28"><title>zero 30</title></line>
<line x1="940.57" y1="42" x2="940.57" y2="468" stroke="#2563eb" stroke-width="1" opacity="0.28"><title>zero 31</title></line>
<line x1="955.14" y1="42" x2="955.14" y2="468" stroke="#2563eb" stroke-width="1" opacity="0.28"><title>zero 32</title></line>
<line x1="969.73" y1="42" x2="969.73" y2="468" stroke="#2563eb" stroke-width="1" opacity="0.28"><title>zero 33</title></line>
<line x1="1002.43" y1="42" x2="1002.43" y2="468" stroke="#2563eb" stroke-width="1" opacity="0.28"><title>zero 34</title></line>
<line x1="1009.59" y1="42" x2="1009.59" y2="468" stroke="#2563eb" stroke-width="1" opacity="0.28"><title>zero 35</title></line>
  <polyline fill="none" stroke="#0f766e" stroke-width="1.4" points="62.96,79.03 63.93,73.55 64.89,65.58 65.85,56.68 66.82,48.60 67.78,43.16 68.74,42.00 69.70,46.49 70.67,57.59 71.63,75.85 72.59,101.26 73.56,133.30 74.52,170.85 75.48,212.18 76.45,254.79 77.41,295.14 78.37,328.05 79.33,346.96 80.30,347.95 81.26,335.29 82.22,317.41 83.19,300.72 84.15,288.71 85.11,283.06 86.08,284.31 87.04,292.27 88.00,306.18 88.96,324.72 89.93,345.86 90.89,366.46 91.85,381.53 92.82,384.89 93.78,374.39 94.74,354.55 95.71,330.95 96.67,307.25 97.63,285.55 98.60,267.12 99.56,252.69 100.52,242.65 101.48,237.11 102.45,235.93 103.41,238.80 104.37,245.27 105.34,254.75 106.30,266.60 107.26,280.14 108.23,294.73 109.19,309.75 110.15,324.67 111.11,339.04 112.08,352.53 113.04,364.90 114.00,376.03 114.97,385.86 115.93,394.41 116.89,401.76 117.86,407.99 118.82,413.16 119.78,417.30 120.75,420.39 121.71,422.34 122.67,423.06 123.63,422.47 124.60,420.60 125.56,417.60 126.52,413.71 127.49,409.20 128.45,404.38 129.41,399.52 130.38,394.89 131.34,390.72 132.30,387.22 133.26,384.59 134.23,382.98 135.19,382.49 136.15,383.23 137.12,385.21 138.08,388.42 139.04,392.78 140.01,398.18 140.97,404.39 141.93,411.17 142.89,418.16 143.86,424.95 144.82,430.99 145.78,435.69 146.75,438.51 147.71,439.27 148.67,438.36 149.64,436.53 150.60,434.52 151.56,432.85 152.53,431.85 153.49,431.72 154.45,432.56 155.41,434.43 156.38,437.31 157.34,441.16 158.30,445.90 159.27,451.40 160.23,457.49 161.19,463.81 162.16,464.46 163.12,458.00 164.08,451.51 165.04,445.44 166.01,440.03 166.97,435.45 167.93,431.80 168.90,429.14 169.86,427.45 170.82,426.67 171.79,426.67 172.75,427.27 173.71,428.27 174.67,429.45 175.64,430.59 176.60,431.48 177.56,431.96 178.53,431.85 179.49,431.02 180.45,429.36 181.42,426.81 182.38,423.35 183.34,419.05 184.31,414.01 185.27,408.43 186.23,402.52 187.19,396.53 188.16,390.71 189.12,385.33 190.08,380.62 191.05,376.79 192.01,374.00 192.97,372.37 193.94,371.95 194.90,372.75 195.86,374.70 196.82,377.69 197.79,381.57 198.75,386.11 199.71,391.11 200.68,396.30 201.64,401.46 202.60,406.35 203.57,410.79 204.53,414.65 205.49,417.85 206.45,420.39 207.42,422.34 208.38,423.81 209.34,424.96 210.31,425.95 211.27,426.93 212.23,428.03 213.20,429.36 214.16,430.97 215.12,432.86 216.09,434.96 217.05,437.14 218.01,439.20 218.97,440.89 219.94,441.98 220.90,442.35 221.86,442.04 222.83,441.28 223.79,440.38 224.75,439.65 225.72,439.35 226.68,439.65 227.64,440.65 228.60,442.34 229.57,444.67 230.53,447.50 231.49,450.63 232.46,453.76 233.42,456.51 234.38,458.31 235.35,458.73 236.31,457.91 237.27,456.51 238.24,455.09 239.20,453.96 240.16,453.28 241.12,453.08 242.09,453.37 243.05,454.08 244.01,455.16 244.98,456.53 245.94,458.09 246.90,459.75 247.87,461.43 248.83,463.02 249.79,464.36 250.75,465.22 251.72,465.32 252.68,464.81 253.64,464.09 254.61,463.35 255.57,462.67 256.53,462.01 257.50,461.30 258.46,460.45 259.42,459.38 260.38,458.02 261.35,456.39 262.31,454.50 263.27,452.43 264.24,450.27 265.20,448.10 266.16,446.01 267.13,444.10 268.09,442.43 269.05,441.06 270.02,440.03 270.98,439.36 271.94,439.04 272.90,439.04 273.87,439.35 274.83,439.91 275.79,440.68 276.76,441.64 277.72,442.74 278.68,443.98 279.65,445.33 280.61,446.77 281.57,448.29 282.53,449.86 283.50,451.46 284.46,453.04 285.42,454.58 286.39,456.00 287.35,457.25 288.31,458.23 289.28,458.81 290.24,458.86 291.20,458.33 292.16,457.26 293.13,455.80 294.09,454.09 295.05,452.27 296.02,450.46 296.98,448.77 297.94,447.26 298.91,446.00 299.87,445.01 300.83,444.33 301.80,443.93 302.76,443.83 303.72,443.99 304.68,444.40 305.65,445.04 306.61,445.91 307.57,446.99 308.54,448.29 309.50,449.79 310.46,451.48 311.43,453.32 312.39,455.29 313.35,457.31 314.31,459.31 315.28,461.16 316.24,462.71 317.20,463.71 318.17,463.98 319.13,463.67 320.09,463.15 321.06,462.69 322.02,462.44 322.98,462.45 323.95,462.74 324.91,463.29 325.87,464.07 326.83,465.06 327.80,466.19 328.76,467.37 329.72,467.09 330.69,465.76 331.65,464.39 332.61,463.02 333.58,461.68 334.54,460.37 335.50,459.11 336.46,457.90 337.43,456.74 338.39,455.64 339.35,454.60 340.32,453.62 341.28,452.72 342.24,451.90 343.21,451.17 344.17,450.54 345.13,450.02 346.09,449.61 347.06,449.32 348.02,449.16 348.98,449.12 349.95,449.21 350.91,449.42 351.87,449.73 352.84,450.13 353.80,450.61 354.76,451.13 355.73,451.65 356.69,452.14 357.65,452.55 358.61,452.85 359.58,453.01 360.54,453.04 361.50,452.97 362.47,452.85 363.43,452.74 364.39,452.74 365.36,452.93 366.32,453.39 367.28,454.17 368.24,455.35 369.21,456.94 370.17,458.97 371.13,461.42 372.10,464.27 373.06,467.37 374.02,464.98 374.99,461.30 375.95,457.50 376.91,453.71 377.87,450.03 378.84,446.58 379.80,443.48 380.76,440.81 381.73,438.67 382.69,437.11 383.65,436.19 384.62,435.92 385.58,436.29 386.54,437.28 387.51,438.84 388.47,440.89 389.43,443.35 390.39,446.11 391.36,449.09 392.32,452.16 393.28,455.23 394.25,458.22 395.21,461.02 396.17,463.54 397.14,465.59 398.10,466.33 399.06,465.31 400.02,464.00 400.99,462.84 401.95,461.89 402.91,461.14 403.88,460.57 404.84,460.16 405.80,459.87 406.77,459.69 407.73,459.60 408.69,459.58 409.65,459.63 410.62,459.74 411.58,459.90 412.54,460.11 413.51,460.36 414.47,460.66 415.43,460.97 416.40,461.28 417.36,461.54 418.32,461.70 419.29,461.69 420.25,461.46 421.21,461.00 422.17,460.33 423.14,459.49 424.10,458.54 425.06,457.55 426.03,456.55 426.99,455.61 427.95,454.76 428.92,454.04 429.88,453.49 430.84,453.13 431.80,452.97 432.77,453.02 433.73,453.29 434.69,453.75 435.66,454.38 436.62,455.15 437.58,456.01 438.55,456.89 439.51,457.73 440.47,458.46 441.44,459.03 442.40,459.39 443.36,459.56 444.32,459.58 445.29,459.52 446.25,459.45 447.21,459.42 448.18,459.49 449.14,459.65 450.10,459.91 451.07,460.26 452.03,460.65 452.99,461.05 453.95,461.40 454.92,461.67 455.88,461.82 456.84,461.83 457.81,461.71 458.77,461.46 459.73,461.11 460.70,460.67 461.66,460.14 462.62,459.55 463.58,458.89 464.55,458.18 465.51,457.45 466.47,456.72 467.44,456.01 468.40,455.36 469.36,454.80 470.33,454.36 471.29,454.06 472.25,453.93 473.22,453.99 474.18,454.24 475.14,454.70 476.10,455.35 477.07,456.20 478.03,457.22 478.99,458.41 479.96,459.73 480.92,461.15 481.88,462.64 482.85,464.17 483.81,465.69 484.77,467.17 485.73,467.38 486.70,466.08 487.66,464.88 488.62,463.82 489.59,462.90 490.55,462.11 491.51,461.44 492.48,460.89 493.44,460.42 494.40,460.01 495.36,459.66 496.33,459.35 497.29,459.09 498.25,458.88 499.22,458.71 500.18,458.61 501.14,458.55 502.11,458.54 503.07,458.56 504.03,458.59 505.00,458.59 505.96,458.57 506.92,458.49 507.88,458.35 508.85,458.15 509.81,457.87 510.77,457.51 511.74,457.06 512.70,456.54 513.66,455.94 514.63,455.29 515.59,454.62 516.55,453.97 517.51,453.39 518.48,452.92 519.44,452.63 520.40,452.54 521.37,452.68 522.33,453.06 523.29,453.70 524.26,454.56 525.22,455.64 526.18,456.89 527.15,458.25 528.11,459.65 529.07,461.01 530.03,462.19 531.00,463.03 531.96,463.39 532.92,463.27 533.89,462.85 534.85,462.35 535.81,461.93 536.78,461.71 537.74,461.73 538.70,462.03 539.66,462.61 540.63,463.45 541.59,464.52 542.55,465.70 543.52,466.62 544.48,466.15 545.44,464.73 546.41,463.12 547.37,461.50 548.33,459.95 549.29,458.52 550.26,457.25 551.22,456.16 552.18,455.28 553.15,454.61 554.11,454.16 555.07,453.94 556.04,453.95 557.00,454.18 557.96,454.64 558.93,455.32 559.89,456.20 560.85,457.27 561.81,458.49 562.78,459.83 563.74,461.23 564.70,462.60 565.67,463.81 566.63,464.63 567.59,464.75 568.56,464.21 569.52,463.34 570.48,462.42 571.44,461.56 572.41,460.84 573.37,460.28 574.33,459.89 575.30,459.66 576.26,459.59 577.22,459.67 578.19,459.86 579.15,460.15 580.11,460.52 581.07,460.96 582.04,461.45 583.00,461.97 583.96,462.52 584.93,463.10 585.89,463.70 586.85,464.33 587.82,464.98 588.78,465.64 589.74,466.31 590.71,466.95 591.67,467.38 592.63,467.16 593.59,466.58 594.56,465.95 595.52,465.31 596.48,464.69 597.45,464.08 598.41,463.47 599.37,462.83 600.34,462.15 601.30,461.41 602.26,460.60 603.22,459.74 604.19,458.83 605.15,457.90 606.11,456.98 607.08,456.11 608.04,455.32 609.00,454.63 609.97,454.07 610.93,453.65 611.89,453.37 612.85,453.22 613.82,453.19 614.78,453.27 615.74,453.42 616.71,453.64 617.67,453.89 618.63,454.17 619.60,454.45 620.56,454.74 621.52,455.03 622.49,455.33 623.45,455.65 624.41,456.00 625.37,456.40 626.34,456.85 627.30,457.37 628.26,457.97 629.23,458.65 630.19,459.41 631.15,460.25 632.12,461.14 633.08,462.08 634.04,463.03 635.00,463.97 635.97,464.87 636.93,465.68 637.89,466.38 638.86,466.94 639.82,467.32 640.78,467.53 641.75,467.64 642.71,467.63 643.67,467.41 644.64,466.99 645.60,466.42 646.56,465.75 647.52,465.03 648.49,464.29 649.45,463.59 650.41,462.96 651.38,462.45 652.34,462.07 653.30,461.87 654.27,461.85 655.23,462.02 656.19,462.36 657.15,462.88 658.12,463.54 659.08,464.29 660.04,465.10 661.01,465.90 661.97,466.54 662.93,466.77 663.90,466.49 664.86,466.01 665.82,465.54 666.78,465.17 667.75,464.90 668.71,464.74 669.67,464.65 670.64,464.60 671.60,464.52 672.56,464.38 673.53,464.14 674.49,463.80 675.45,463.38 676.42,462.92 677.38,462.43 678.34,461.94 679.30,461.48 680.27,461.03 681.23,460.61 682.19,460.22 683.16,459.85 684.12,459.51 685.08,459.21 686.05,458.96 687.01,458.77 687.97,458.65 688.93,458.61 689.90,458.66 690.86,458.78 691.82,458.98 692.79,459.23 693.75,459.50 694.71,459.78 695.68,460.04 696.64,460.25 697.60,460.40 698.56,460.48 699.53,460.50 700.49,460.45 701.45,460.34 702.42,460.20 703.38,460.03 704.34,459.84 705.31,459.65 706.27,459.46 707.23,459.29 708.20,459.16 709.16,459.07 710.12,459.03 711.08,459.06 712.05,459.16 713.01,459.34 713.97,459.60 714.94,459.94 715.90,460.35 716.86,460.83 717.83,461.36 718.79,461.90 719.75,462.41 720.71,462.81 721.68,463.02 722.64,462.97 723.60,462.65 724.57,462.09 725.53,461.38 726.49,460.58 727.46,459.76 728.42,458.98 729.38,458.26 730.35,457.63 731.31,457.09 732.27,456.66 733.23,456.32 734.20,456.06 735.16,455.90 736.12,455.80 737.09,455.79 738.05,455.85 739.01,455.99 739.98,456.21 740.94,456.50 741.90,456.86 742.86,457.27 743.83,457.70 744.79,458.12 745.75,458.49 746.72,458.75 747.68,458.89 748.64,458.86 749.61,458.66 750.57,458.31 751.53,457.81 752.49,457.21 753.46,456.52 754.42,455.80 755.38,455.07 756.35,454.37 757.31,453.76 758.27,453.27 759.24,452.94 760.20,452.81 761.16,452.91 762.13,453.26 763.09,453.86 764.05,454.70 765.01,455.76 765.98,457.00 766.94,458.39 767.90,459.85 768.87,461.34 769.83,462.75 770.79,464.00 771.76,464.94 772.72,465.40 773.68,465.36 774.64,465.05 775.61,464.71 776.57,464.46 777.53,464.36 778.50,464.41 779.46,464.61 780.42,464.95 781.39,465.38 782.35,465.89 783.31,466.43 784.27,466.92 785.24,467.12 786.20,466.86 787.16,466.35 788.13,465.80 789.09,465.29 790.05,464.86 791.02,464.54 791.98,464.35 792.94,464.32 793.91,464.45 794.87,464.72 795.83,465.08 796.79,465.44 797.76,465.58 798.72,465.33 799.68,464.68 800.65,463.78 801.61,462.80 802.57,461.84 803.54,460.99 804.50,460.29 805.46,459.81 806.42,459.57 807.39,459.60 808.35,459.88 809.31,460.42 810.28,461.17 811.24,462.08 812.20,463.10 813.17,464.11 814.13,464.97 815.09,465.45 816.05,465.39 817.02,464.95 817.98,464.42 818.94,463.97 819.91,463.68 820.87,463.61 821.83,463.75 822.80,464.10 823.76,464.62 824.72,465.25 825.69,465.86 826.65,466.18 827.61,465.95 828.57,465.26 829.54,464.39 830.50,463.49 831.46,462.64 832.43,461.89 833.39,461.25 834.35,460.76 835.32,460.41 836.28,460.20 837.24,460.14 838.20,460.22 839.17,460.42 840.13,460.73 841.09,461.14 842.06,461.62 843.02,462.16 843.98,462.73 844.95,463.31 845.91,463.88 846.87,464.42 847.84,464.91 848.80,465.35 849.76,465.72 850.72,466.04 851.69,466.30 852.65,466.51 853.61,466.69 854.58,466.83 855.54,466.95 856.50,467.06 857.47,467.14 858.43,467.19 859.39,467.18 860.35,467.09 861.32,466.89 862.28,466.59 863.24,466.21 864.21,465.79 865.17,465.35 866.13,464.91 867.10,464.52 868.06,464.19 869.02,463.95 869.98,463.81 870.95,463.79 871.91,463.88 872.87,464.08 873.84,464.38 874.80,464.75 875.76,465.18 876.73,465.63 877.69,466.09 878.65,466.52 879.62,466.87 880.58,467.07 881.54,466.99 882.50,466.68 883.47,466.22 884.43,465.69 885.39,465.12 886.36,464.54 887.32,463.99 888.28,463.48 889.25,463.05 890.21,462.73 891.17,462.54 892.13,462.49 893.10,462.60 894.06,462.85 895.02,463.24 895.99,463.75 896.95,464.36 897.91,465.03 898.88,465.72 899.84,466.40 900.80,466.99 901.76,467.32 902.73,467.21 903.69,466.91 904.65,466.63 905.62,466.45 906.58,466.37 907.54,466.40 908.51,466.52 909.47,466.71 910.43,466.94 911.40,467.17 912.36,467.32 913.32,467.29 914.28,467.10 915.25,466.85 916.21,466.57 917.17,466.29 918.14,466.01 919.10,465.71 920.06,465.38 921.03,465.03 921.99,464.66 922.95,464.27 923.91,463.88 924.88,463.52 925.84,463.21 926.80,462.95 927.77,462.76 928.73,462.66 929.69,462.65 930.66,462.71 931.62,462.84 932.58,463.03 933.55,463.26 934.51,463.50 935.47,463.76 936.43,464.00 937.40,464.25 938.36,464.48 939.32,464.71 940.29,464.93 941.25,465.14 942.21,465.29 943.18,465.36 944.14,465.30 945.10,465.13 946.06,464.85 947.03,464.51 947.99,464.17 948.95,463.87 949.92,463.65 950.88,463.53 951.84,463.54 952.81,463.69 953.77,463.98 954.73,464.40 955.69,464.94 956.66,465.57 957.62,466.23 958.58,466.79 959.55,466.91 960.51,466.45 961.47,465.75 962.44,465.02 963.40,464.34 964.36,463.72 965.33,463.20 966.29,462.77 967.25,462.46 968.21,462.25 969.18,462.14 970.14,462.13 971.10,462.20 972.07,462.35 973.03,462.57 973.99,462.86 974.96,463.22 975.92,463.63 976.88,464.10 977.84,464.63 978.81,465.20 979.77,465.81 980.73,466.44 981.70,467.05 982.66,467.45 983.62,467.22 984.59,466.68 985.55,466.12 986.51,465.61 987.47,465.17 988.44,464.82 989.40,464.55 990.36,464.36 991.33,464.25 992.29,464.20 993.25,464.21 994.22,464.24 995.18,464.27 996.14,464.29 997.11,464.28 998.07,464.21 999.03,464.07 999.99,463.87 1000.96,463.61 1001.92,463.28 1002.88,462.90 1003.85,462.49 1004.81,462.05 1005.77,461.62 1006.74,461.21 1007.70,460.84 1008.66,460.53 1009.62,460.31 1010.59,460.17 1011.55,460.14 1012.51,460.21 1013.48,460.37 1014.44,460.63 1015.40,460.96 1016.37,461.36 1017.33,461.80 1018.29,462.27 1019.25,462.75 1020.22,463.22 1021.18,463.66 1022.14,464.06 1023.11,464.42 1024.07,464.72 1025.03,464.96 1026.00,465.15 1026.96,465.31 1027.92,465.44 1028.89,465.57 1029.85,465.70 1030.81,465.85 1031.77,466.01 1032.74,466.17 1033.70,466.29 1034.66,466.32 1035.63,466.22 1036.59,465.98 1037.55,465.60 1038.52,465.12 1039.48,464.59 1040.44,464.01 1041.40,463.41 1042.37,462.81 1043.33,462.22 1044.29,461.65 1045.26,461.11 1046.22,460.60 1047.18,460.13 1048.15,459.71 1049.11,459.34 1050.07,459.03 1051.04,458.80 1052.00,458.65 1052.96,458.59 1053.92,458.65 1054.89,458.82 1055.85,459.12 1056.81,459.56 1057.78,460.12 1058.74,460.80 1059.70,461.58 1060.67,462.42 1061.63,463.30 1062.59,464.15 1063.55,464.92 1064.52,465.49 1065.48,465.77 1066.44,465.72 1067.41,465.46 1068.37,465.13 1069.33,464.82 1070.30,464.56 1071.26,464.36 1072.22,464.23 1073.18,464.14 1074.15,464.09 1075.11,464.05 1076.07,464.02 1077.04,463.98 1078.00,463.94"/>
  <line x1="68.74" y1="42.00" x2="68.74" y2="468" stroke="#b45309" stroke-width="1" opacity="0.55"/>
<line x1="102.45" y1="235.93" x2="102.45" y2="468" stroke="#b45309" stroke-width="1" opacity="0.55"/>
<line x1="85.11" y1="283.06" x2="85.11" y2="468" stroke="#b45309" stroke-width="1" opacity="0.55"/>
<line x1="193.94" y1="371.95" x2="193.94" y2="468" stroke="#b45309" stroke-width="1" opacity="0.55"/>
<line x1="135.19" y1="382.49" x2="135.19" y2="468" stroke="#b45309" stroke-width="1" opacity="0.55"/>
<line x1="171.79" y1="426.67" x2="171.79" y2="468" stroke="#b45309" stroke-width="1" opacity="0.55"/>
<line x1="153.49" y1="431.72" x2="153.49" y2="468" stroke="#b45309" stroke-width="1" opacity="0.55"/>
<line x1="384.62" y1="435.92" x2="384.62" y2="468" stroke="#b45309" stroke-width="1" opacity="0.55"/>
<line x1="271.94" y1="439.04" x2="271.94" y2="468" stroke="#b45309" stroke-width="1" opacity="0.55"/>
<line x1="225.72" y1="439.35" x2="225.72" y2="468" stroke="#b45309" stroke-width="1" opacity="0.55"/>
<line x1="302.76" y1="443.83" x2="302.76" y2="468" stroke="#b45309" stroke-width="1" opacity="0.55"/>
<line x1="348.98" y1="449.12" x2="348.98" y2="468" stroke="#b45309" stroke-width="1" opacity="0.55"/>
<line x1="520.40" y1="452.54" x2="520.40" y2="468" stroke="#b45309" stroke-width="1" opacity="0.55"/>
<line x1="363.43" y1="452.74" x2="363.43" y2="468" stroke="#b45309" stroke-width="1" opacity="0.55"/>
<line x1="760.20" y1="452.81" x2="760.20" y2="468" stroke="#b45309" stroke-width="1" opacity="0.55"/>
<line x1="431.80" y1="452.97" x2="431.80" y2="468" stroke="#b45309" stroke-width="1" opacity="0.55"/>
<line x1="241.12" y1="453.08" x2="241.12" y2="468" stroke="#b45309" stroke-width="1" opacity="0.55"/>
<line x1="613.82" y1="453.19" x2="613.82" y2="468" stroke="#b45309" stroke-width="1" opacity="0.55"/>
<line x1="472.25" y1="453.93" x2="472.25" y2="468" stroke="#b45309" stroke-width="1" opacity="0.55"/>
<line x1="555.07" y1="453.94" x2="555.07" y2="468" stroke="#b45309" stroke-width="1" opacity="0.55"/>
<line x1="737.09" y1="455.79" x2="737.09" y2="468" stroke="#b45309" stroke-width="1" opacity="0.55"/>
<line x1="502.11" y1="458.54" x2="502.11" y2="468" stroke="#b45309" stroke-width="1" opacity="0.55"/>
<line x1="1052.96" y1="458.59" x2="1052.96" y2="468" stroke="#b45309" stroke-width="1" opacity="0.55"/>
<line x1="688.93" y1="458.61" x2="688.93" y2="468" stroke="#b45309" stroke-width="1" opacity="0.55"/>
<line x1="710.12" y1="459.03" x2="710.12" y2="468" stroke="#b45309" stroke-width="1" opacity="0.55"/>
<line x1="447.21" y1="459.42" x2="447.21" y2="468" stroke="#b45309" stroke-width="1" opacity="0.55"/>
<line x1="806.42" y1="459.57" x2="806.42" y2="468" stroke="#b45309" stroke-width="1" opacity="0.55"/>
<line x1="408.69" y1="459.58" x2="408.69" y2="468" stroke="#b45309" stroke-width="1" opacity="0.55"/>
<line x1="576.26" y1="459.59" x2="576.26" y2="468" stroke="#b45309" stroke-width="1" opacity="0.55"/>
<line x1="837.24" y1="460.14" x2="837.24" y2="468" stroke="#b45309" stroke-width="1" opacity="0.55"/>
  <text x="570" y="516" font-size="13" text-anchor="middle" fill="#334155">log-frequency gamma</text>
  <text x="15" y="255" font-size="13" text-anchor="middle" fill="#334155" transform="rotate(-90 15 255)">Hann DFT amplitude</text>
</svg>
