<svg xmlns="http://www.w3.org/2000/svg" width="1160" height="660" viewBox="0 0 1160 660">
<rect width="1160" height="660" fill="#111827"/>
<text x="64" y="38" fill="#f9fafb" font-size="20" font-weight="700">Roughness-collapse profile</text>
<text x="64" y="60" fill="#a7b0c4" font-size="13">Endpoint N=8000000: Delta(B,N) against missing roughness mass T(B,N). Points labeled by B.</text>
<rect x="70" y="70" width="660" height="450" fill="#0b1220" stroke="#263244"/>
<line x1="70" y1="70" x2="70" y2="520" stroke="#1f2a3a"/><line x1="70" y1="70" x2="730" y2="70" stroke="#1f2a3a"/>
<line x1="235" y1="70" x2="235" y2="520" stroke="#1f2a3a"/><line x1="70" y1="182.5" x2="730" y2="182.5" stroke="#1f2a3a"/>
<line x1="400" y1="70" x2="400" y2="520" stroke="#1f2a3a"/><line x1="70" y1="295" x2="730" y2="295" stroke="#1f2a3a"/>
<line x1="565" y1="70" x2="565" y2="520" stroke="#1f2a3a"/><line x1="70" y1="407.5" x2="730" y2="407.5" stroke="#1f2a3a"/>
<line x1="730" y1="70" x2="730" y2="520" stroke="#1f2a3a"/><line x1="70" y1="520" x2="730" y2="520" stroke="#1f2a3a"/>
<line x1="70" y1="587.1518547407454" x2="730" y2="247.45630325327193" stroke="#f4a261" stroke-width="3"/>
<circle cx="730" cy="110.90909090909093" r="4" fill="#f8fafc"/><text x="730" y="102.90909090909093" fill="#a7b0c4" font-size="10" text-anchor="middle">7</text>
<circle cx="634.5897549812354" cy="273.58400493229755" r="4" fill="#f8fafc"/><text x="634.5897549812354" y="265.58400493229755" fill="#a7b0c4" font-size="10" text-anchor="middle">13</text>
<circle cx="571.2290814316218" cy="355.17653872685617" r="4" fill="#f8fafc"/><text x="571.2290814316218" y="347.17653872685617" fill="#a7b0c4" font-size="10" text-anchor="middle">19</text>
<circle cx="508.571070475647" cy="414.0811644609096" r="4" fill="#f8fafc"/><text x="508.571070475647" y="406.0811644609096" fill="#a7b0c4" font-size="10" text-anchor="middle">31</text>
<circle cx="466.1204639142501" cy="443.03066713451767" r="4" fill="#f8fafc"/><text x="466.1204639142501" y="435.03066713451767" fill="#a7b0c4" font-size="10" text-anchor="middle">43</text>
<circle cx="415.8591981128732" cy="468.31262379672063" r="4" fill="#f8fafc"/><text x="415.8591981128732" y="460.31262379672063" fill="#a7b0c4" font-size="10" text-anchor="middle">67</text>
<circle cx="373.7714525988103" cy="483.9566664733643" r="4" fill="#f8fafc"/><text x="373.7714525988103" y="475.9566664733643" fill="#a7b0c4" font-size="10" text-anchor="middle">97</text>
<circle cx="322.428956248081" cy="497.991128518484" r="4" fill="#f8fafc"/><text x="322.428956248081" y="489.991128518484" fill="#a7b0c4" font-size="10" text-anchor="middle">151</text>
<circle cx="268.7646606979822" cy="503.69618304370425" r="4" fill="#f8fafc"/><text x="268.7646606979822" y="495.69618304370425" fill="#a7b0c4" font-size="10" text-anchor="middle">257</text>
<circle cx="226.84447755684792" cy="506.7529174159128" r="4" fill="#f8fafc"/><text x="226.84447755684792" y="498.7529174159128" fill="#a7b0c4" font-size="10" text-anchor="middle">401</text>
<circle cx="186.74547988071154" cy="511.1790384250106" r="4" fill="#f8fafc"/><text x="186.74547988071154" y="503.1790384250106" fill="#a7b0c4" font-size="10" text-anchor="middle">631</text>
<circle cx="149.06999568711362" cy="514.9215414697263" r="4" fill="#f8fafc"/><text x="149.06999568711362" y="506.9215414697263" fill="#a7b0c4" font-size="10" text-anchor="middle">997</text>
<circle cx="114.86544462497586" cy="519.0242307678066" r="4" fill="#f8fafc"/><text x="114.86544462497586" y="511.02423076780656" fill="#a7b0c4" font-size="10" text-anchor="middle">1543</text>
<circle cx="87.60685057374552" cy="519.3924926801564" r="4" fill="#f8fafc"/><text x="87.60685057374552" y="511.39249268015635" fill="#a7b0c4" font-size="10" text-anchor="middle">2237</text>
<text x="400" y="562" fill="#9ca3af" font-size="13" text-anchor="middle">missing roughness mass T(B,N)</text>
<text transform="translate(22 295) rotate(-90)" fill="#9ca3af" font-size="13" text-anchor="middle">Delta mean split</text>
<text x="70" y="588" fill="#d1d5db" font-size="12">integer affine R2=0.77282, slope=0.002627, intercept=-0.000603, RMSE=0.00048737</text>
<rect x="770" y="86" width="340" height="430" fill="#0b1220" stroke="#263244"/>
<text x="790" y="112" fill="#dbeafe" font-size="14">function-field slopes</text>
<text x="748" y="123" fill="#60a5fa" font-size="13">F3 d8</text>
<rect x="820" y="106" width="230" height="14" fill="#60a5fa" opacity="0.82"/>
<text x="1058" y="118" fill="#dbeafe" font-size="12">s=0.0323 R2=0.923</text>
<text x="748" y="157" fill="#60a5fa" font-size="13">F3 d9</text>
<rect x="820" y="140" width="222.85451776395365" height="14" fill="#60a5fa" opacity="0.82"/>
<text x="1050.8545177639537" y="152" fill="#dbeafe" font-size="12">s=0.0313 R2=0.955</text>
<text x="748" y="191" fill="#60a5fa" font-size="13">F3 d10</text>
<rect x="820" y="174" width="179.0831363139161" height="14" fill="#60a5fa" opacity="0.82"/>
<text x="1007.0831363139162" y="186" fill="#dbeafe" font-size="12">s=0.0252 R2=0.902</text>
<text x="748" y="225" fill="#60a5fa" font-size="13">F3 d11</text>
<rect x="820" y="208" width="167.56620464599686" height="14" fill="#60a5fa" opacity="0.82"/>
<text x="995.5662046459969" y="220" fill="#dbeafe" font-size="12">s=0.0236 R2=0.906</text>
<text x="748" y="259" fill="#34d399" font-size="13">F5 d4</text>
<rect x="820" y="242" width="153.64515793584593" height="14" fill="#34d399" opacity="0.82"/>
<text x="981.6451579358459" y="254" fill="#dbeafe" font-size="12">s=0.0216 R2=1.000</text>
<text x="748" y="293" fill="#34d399" font-size="13">F5 d5</text>
<rect x="820" y="276" width="157.3503804683211" height="14" fill="#34d399" opacity="0.82"/>
<text x="985.3503804683211" y="288" fill="#dbeafe" font-size="12">s=0.0221 R2=1.000</text>
<text x="748" y="327" fill="#34d399" font-size="13">F5 d6</text>
<rect x="820" y="310" width="121.3514474405911" height="14" fill="#34d399" opacity="0.82"/>
<text x="949.3514474405911" y="322" fill="#dbeafe" font-size="12">s=0.0171 R2=0.958</text>
<text x="748" y="361" fill="#34d399" font-size="13">F5 d7</text>
<rect x="820" y="344" width="114.9388005436509" height="14" fill="#34d399" opacity="0.82"/>
<text x="942.9388005436509" y="356" fill="#dbeafe" font-size="12">s=0.0162 R2=0.962</text>
<text x="790" y="548" fill="#a7b0c4" font-size="12">A survivor needs aligned slopes and a residual not explained by the roughness shell.</text>
</svg>