<svg xmlns="http://www.w3.org/2000/svg" width="1180" height="660" viewBox="0 0 1180 660">
<rect width="100%" height="100%" fill="#07111f"/>
<text x="70" y="26" fill="#e5e7eb" font-size="18" font-weight="700">Square-phase prime drift audit</text>
<text x="70" y="38" fill="#67e8f9" font-size="13">real Z</text>
<text x="290" y="38" fill="#fbbf24" font-size="13">real max |Z|</text>
<text x="510" y="38" fill="#a78bfa" font-size="13">Cramer mean |Z|</text>
<text x="70" y="56" fill="#34d399" font-size="13">W random mean |Z|</text>
<text x="290" y="56" fill="#fb7185" font-size="13">W composite mean |Z|</text>
<rect x="70" y="70" width="780" height="512" fill="#0b1626" stroke="#1f2937"/>
<line x1="70" y1="70" x2="850" y2="70" stroke="#1f2937"/>
<text x="18" y="74" fill="#94a3b8" font-size="12">1.57</text>
<line x1="70" y1="155.33333333333331" x2="850" y2="155.33333333333331" stroke="#1f2937"/>
<text x="18" y="159.33333333333331" fill="#94a3b8" font-size="12">1.13</text>
<line x1="70" y1="240.66666666666666" x2="850" y2="240.66666666666666" stroke="#1f2937"/>
<text x="18" y="244.66666666666666" fill="#94a3b8" font-size="12">0.68</text>
<line x1="70" y1="326" x2="850" y2="326" stroke="#1f2937"/>
<text x="18" y="330" fill="#94a3b8" font-size="12">0.24</text>
<line x1="70" y1="411.3333333333333" x2="850" y2="411.3333333333333" stroke="#1f2937"/>
<text x="18" y="415.3333333333333" fill="#94a3b8" font-size="12">-0.21</text>
<line x1="70" y1="496.6666666666667" x2="850" y2="496.6666666666667" stroke="#1f2937"/>
<text x="18" y="500.6666666666667" fill="#94a3b8" font-size="12">-0.65</text>
<line x1="70" y1="582" x2="850" y2="582" stroke="#1f2937"/>
<text x="18" y="586" fill="#94a3b8" font-size="12">-1.10</text>
<line x1="70" y1="371.1643344541511" x2="850" y2="371.1643344541511" stroke="#475569" stroke-width="1.5"/>
<polyline points="70.00,283.90 265.00,288.30 460.00,169.92 655.00,266.52 850.00,150.48" fill="none" stroke="#67e8f9" stroke-width="3"/><circle cx="70" cy="283.8987899558962" r="4" fill="#67e8f9"/><circle cx="265" cy="288.30195544312295" r="4" fill="#67e8f9"/><circle cx="460" cy="169.9192963797188" r="4" fill="#67e8f9"/><circle cx="655" cy="266.52142764714955" r="4" fill="#67e8f9"/><circle cx="850" cy="150.47628966290665" r="4" fill="#67e8f9"/>
<polyline points="70.00,166.26 265.00,166.26 460.00,156.30 655.00,97.38 850.00,97.38" fill="none" stroke="#fbbf24" stroke-width="3"/><circle cx="70" cy="166.2617824060925" r="4" fill="#fbbf24"/><circle cx="265" cy="166.2617824060925" r="4" fill="#fbbf24"/><circle cx="460" cy="156.29589641312384" r="4" fill="#fbbf24"/><circle cx="655" cy="97.3785758594683" r="4" fill="#fbbf24"/><circle cx="850" cy="97.3785758594683" r="4" fill="#fbbf24"/>
<polyline points="70.00,232.91 265.00,205.73 460.00,208.42 655.00,197.38 850.00,247.48" fill="none" stroke="#a78bfa" stroke-width="3"/><circle cx="70" cy="232.9064568696789" r="4" fill="#a78bfa"/><circle cx="265" cy="205.73443054298224" r="4" fill="#a78bfa"/><circle cx="460" cy="208.4159063619428" r="4" fill="#a78bfa"/><circle cx="655" cy="197.37585029439236" r="4" fill="#a78bfa"/><circle cx="850" cy="247.47634890404834" r="4" fill="#a78bfa"/>
<polyline points="70.00,219.58 265.00,198.04 460.00,246.97 655.00,262.50 850.00,245.70" fill="none" stroke="#34d399" stroke-width="3"/><circle cx="70" cy="219.57694756468368" r="4" fill="#34d399"/><circle cx="265" cy="198.0364533404654" r="4" fill="#34d399"/><circle cx="460" cy="246.97498343118144" r="4" fill="#34d399"/><circle cx="655" cy="262.5012084942789" r="4" fill="#34d399"/><circle cx="850" cy="245.70284949760855" r="4" fill="#34d399"/>
<polyline points="70.00,241.55 265.00,269.72 460.00,255.75 655.00,249.29 850.00,249.60" fill="none" stroke="#fb7185" stroke-width="3"/><circle cx="70" cy="241.54772065448714" r="4" fill="#fb7185"/><circle cx="265" cy="269.7221358853802" r="4" fill="#fb7185"/><circle cx="460" cy="255.75013653723948" r="4" fill="#fb7185"/><circle cx="655" cy="249.28934712228477" r="4" fill="#fb7185"/><circle cx="850" cy="249.6025300573816" r="4" fill="#fb7185"/>
<text x="880" y="120" fill="#cbd5e1" font-size="13">real final Z 1.151403</text>
<text x="880" y="148" fill="#cbd5e1" font-size="13">real max |Z| 1.428432</text>
<text x="880" y="176" fill="#cbd5e1" font-size="13">Cramer max |Z| 1.073587..3.110663</text>
<text x="880" y="204" fill="#cbd5e1" font-size="13">W random max |Z| 1.235646..2.403408</text>
<text x="880" y="232" fill="#cbd5e1" font-size="13">W comp max |Z| 1.289472..2.667986</text>
<text x="880" y="260" fill="#cbd5e1" font-size="13">holdout real Z 1.095728</text>
<text x="70" y="622" fill="#94a3b8" font-size="13">Z: cumulative centered square-annulus phase against exact W-shell mean and variance.</text>
</svg>